<svg xmlns="http://www.w3.org/2000/svg" width="252" height="44" viewBox="0 0 252 44">
  <g>
    <path d="M11.1,23.6 C11.1,25.9 10.9,26.6 10.4,27.1 C10,27.5 9.3,27.8 8.7,27.8 C6.7,27.8 6.6,26 6.6,22.6 C6.6,19 6.7,17.4 8.7,17.4 C9.4,17.4 10,17.7 10.4,18.1 C11,18.7 11.1,19.3 11.1,21.6 L11.1,23.6 L11.1,23.6 Z M19.4,29 L19.4,28 L18.8,28 C17.2,28 16.9,27.8 16.9,26.4 L16.9,0.7 L8.1,0.7 L8.1,1.7 L9.2,1.7 C10.8,1.7 11.1,1.9 11.1,3.1 L11.1,17.2 C10.1,16.3 8.5,15.8 6.8,15.8 C3.6,15.8 0.4,18.4 0.4,22.6 C0.4,26.8 3.6,29.4 6.8,29.4 C8.8,29.4 10.3,28.8 11.3,27.7 L11.3,29 L19.4,29 Z M29.5,21.8 L25.4,21.8 L25.4,21.4 C25.4,19.6 25.5,18.6 25.6,18.1 C25.8,17.3 26.5,16.9 27.4,16.9 C28.3,16.9 28.9,17.3 29.2,18.1 C29.4,18.6 29.4,19.6 29.4,21.4 L29.5,21.8 Z M35.1,22.9 C35,18.4 32.3,15.8 27.6,15.8 C22.6,15.8 19.6,18.4 19.6,22.6 C19.6,26.7 22.9,29.4 27.8,29.4 C30.9,29.4 33.5,28.1 35.1,25.6 L34.5,24.9 C33,27 31,28.2 29,28.2 C25.9,28.2 25.6,26.2 25.6,23.5 L25.6,22.8 L35.1,22.8 L35.1,22.9 L35.1,22.9 Z M45.8,29 L55.7,3.7 C56.2,2.4 56.5,2 56.9,1.9 C57.2,1.8 57.5,1.8 58.3,1.8 L58.5,1.8 L58.5,0.8 L51,0.8 L51,1.8 L51.2,1.8 C53.4,1.8 54,2.1 54,3.2 C54,4.1 53.4,5.6 53,6.6 L47.8,20.3 L42.2,5.7 C41.6,4.2 41.4,3.6 41.4,3.1 C41.4,2.5 41.7,2.1 42.3,2 C42.6,1.9 42.8,1.9 43.8,1.9 L44.2,1.9 L44.2,0.8 L31,0.8 L31,1.8 L31.8,1.8 C33,1.8 33.4,1.9 33.7,2.4 C33.9,2.6 34.1,3.2 34.4,3.8 L44.5,29 L45.8,29 Z M61.8,23.4 C61.8,25.3 61.7,26.7 61.6,27.2 C61.3,28 60.6,28.5 59.7,28.5 C58.7,28.5 58,28 57.8,27.2 C57.6,26.7 57.5,25.3 57.5,23.4 L57.5,21.6 C57.5,19.7 57.6,18.6 57.8,18.1 C58.1,17.3 58.8,16.8 59.7,16.8 C60.7,16.8 61.4,17.3 61.6,18.1 C61.8,18.6 61.8,19.7 61.8,21.6 L61.8,23.4 L61.8,23.4 Z M67.9,22.6 C67.9,18.5 64.6,15.8 59.6,15.8 C54.6,15.8 51.3,18.4 51.3,22.6 C51.3,26.8 54.5,29.4 59.6,29.4 C64.7,29.5 67.9,26.8 67.9,22.6 Z M68.2,29 L79,29 L79,28 L78.4,28 C76.8,28 76.5,27.8 76.5,26.5 L76.5,0.7 L67.7,0.7 L67.7,1.7 L68.8,1.7 C70.4,1.7 70.7,1.9 70.7,3.1 L70.7,26.4 C70.7,27.7 70.5,27.8 68.8,27.8 L68.2,27.8 L68.2,29 Z M100.2,29 L100.2,28 L99.8,28 C99.5,28 99.3,28 99,27.9 C98.8,27.8 98.5,27.5 98.1,27 L92.7,19.2 C94,18.1 95.8,17.6 98.5,17.5 L98.5,16.5 L89.9,16.5 L89.9,17.5 L90.7,17.5 C91.6,17.5 91.7,17.5 91.9,17.6 C92.1,17.7 92.2,17.9 92.2,18.1 C92.2,18.4 92.1,18.7 91.6,19.1 C91.4,19.3 90.8,19.8 90.5,20.1 L87.9,22.3 L87.9,0.7 L79.1,0.7 L79.1,1.7 L80.2,1.7 C81.8,1.7 82.1,1.9 82.1,3.1 L82.1,26.3 C82.1,27.7 81.9,27.9 80.2,27.9 L79.6,27.9 L79.6,28.9 L90.2,28.9 L90.2,27.9 L90,27.9 C88.4,27.9 88.1,27.7 88.1,26.2 L88.1,22.7 L92.2,28.9 L100.2,29 Z M114.2,24.7 C114.2,22.8 113.4,21.8 111,20.7 L109.5,20 C108.1,19.3 107.7,19 107.7,18.3 C107.7,17.6 108.2,17.2 109.1,17.2 C110.2,17.2 111.3,17.6 112,18.3 C112.4,18.7 112.6,19.1 112.6,20.1 L112.6,20.4 L113.4,20.4 L113.4,16.2 L112.6,16.2 C112.5,16.6 112.4,16.8 112,16.8 C111.8,16.8 111.7,16.8 111.2,16.6 C109.7,16.1 108.5,15.8 107,15.8 C103.3,15.8 101,17.5 101,20.3 C101,22.2 102.1,23.4 104.8,24.8 L105.7,25.2 C106.7,25.7 107,26.1 107,26.7 C107,27.4 106.5,27.8 105.5,27.8 C104.2,27.8 102.8,27.1 102.1,26.2 C101.7,25.7 101.6,25.1 101.6,24.1 L101.6,24 L100.8,24 L100.8,29 L101.6,29 C101.6,28.4 101.7,28.1 102,28.1 C102.1,28.1 102.2,28.2 102.5,28.2 C104.5,29 106,29.3 107.8,29.3 C111.8,29.4 114.2,27.6 114.2,24.7 L114.2,24.7 Z M134.6,29 L134.6,28 L134.2,28 C133.9,28 133.7,28 133.4,27.9 C133.2,27.8 132.8,27.5 132.5,27 L127.2,19.2 C128.5,18.1 130.3,17.6 133,17.5 L133,16.5 L124.4,16.5 L124.4,17.5 L125.2,17.5 C126.1,17.5 126.2,17.5 126.4,17.6 C126.6,17.7 126.7,17.9 126.7,18.1 C126.7,18.4 126.6,18.7 126.1,19.1 C125.9,19.3 125.3,19.8 125,20.1 L122.4,22.3 L122.4,0.7 L113.6,0.7 L113.6,1.7 L114.7,1.7 C116.4,1.7 116.6,1.9 116.6,3.1 L116.6,26.3 C116.6,27.7 116.3,27.9 114.7,27.9 L114.1,27.9 L114.1,28.9 L124.7,28.9 L124.7,27.9 L124.4,27.9 C122.8,27.9 122.5,27.7 122.5,26.2 L122.5,22.7 L126.6,28.9 L134.6,29 L134.6,29 Z M144,26.4 L144,23.8 C144,22.6 144.1,21.7 144.2,21.1 C144.3,20.5 144.6,19.9 144.8,19.4 C145.1,18.9 145.4,18.7 145.5,18.7 L145.7,18.8 C145.7,18.8 145.7,18.9 145.6,19.1 C145.4,19.5 145.4,19.9 145.4,20.4 C145.4,22.3 146.7,23.7 148.5,23.7 C150.4,23.7 151.6,22.2 151.6,19.9 C151.6,17.5 150.3,15.9 148.1,15.9 C146.1,15.9 144.6,17.3 143.8,19.8 L143.8,16.5 L135.6,16.5 L135.6,17.6 L136.3,17.6 C137.9,17.6 138.2,17.8 138.2,19 L138.2,26.6 C138.2,27.9 138,28 136.3,28 L135.8,28 L135.8,29 L146.5,29 L146.5,28 L145.8,28 C144.3,27.9 144,27.7 144,26.4 L144,26.4 Z M161.1,24.5 L161.1,25.7 C161.1,26.3 161,26.6 160.8,26.9 C160.6,27.3 160.1,27.5 159.6,27.5 C158.6,27.5 158.3,26.8 158.3,25.1 L158.3,24.5 C158.3,22.7 158.9,22 160.4,22 L161.2,22 L161.2,24.5 L161.1,24.5 L161.1,24.5 Z M168.7,29 L168.7,28 L168.2,28 C167.1,28 166.9,27.6 166.9,26.4 L166.9,22.2 C166.9,20.5 166.9,20.1 166.7,19.5 C166.6,19 166.4,18.5 166,18 C165,16.7 163.3,16 160.9,16 C159.5,16 157.9,16.3 156.3,16.9 C156.1,16.9 155.5,17.2 155.3,17.2 C155,17.2 154.9,17.1 154.9,16.6 L154.2,16.6 L154.2,20.8 L155,20.8 L155,20.5 C155,19.5 155.2,19 155.6,18.5 C156.2,17.9 157.4,17.5 158.6,17.5 C159.8,17.5 160.5,17.9 160.8,18.6 C160.9,19 161,19.3 161,20.2 L161,21 C160.1,20.9 159.5,20.9 158.6,20.9 C154.7,20.9 152.1,22.1 152.1,25.2 C152.1,28 154.2,29.4 156.7,29.4 C158.3,29.4 159.9,28.9 161.2,27.9 L161.2,29 L168.7,29 Z M188.9,29 L188.9,28 L188.5,28 C186.9,28 186.6,27.8 186.6,26.5 L186.6,21.6 L186.6,19.7 C186.5,18.9 186.2,18.2 185.8,17.6 C185,16.6 183.7,16 182.1,16 C180.2,16 178.5,16.7 177.1,18.2 L177.1,16.4 L169,16.4 L169,17.5 L169.8,17.5 C171.4,17.5 171.7,17.7 171.7,19 L171.7,26.4 C171.7,27.8 171.4,27.9 169.8,27.9 L169.3,27.9 L169.3,28.9 L178.8,28.9 L178.8,28 L178.6,28 C177.8,28 177.5,27.8 177.5,27.2 C177.5,26.9 177.4,26.4 177.4,25.8 L177.4,21.4 C177.4,19.8 177.5,19.4 177.8,18.9 C178.1,18.4 178.7,18.1 179.4,18.1 C180,18.1 180.4,18.3 180.6,18.8 C180.7,19.1 180.8,20.7 180.8,22.2 L180.8,25.8 C180.8,27 180.8,27.5 180.6,27.7 C180.4,27.9 180.1,28 179.6,28 L179.5,28 L179.5,29 L188.9,29 L188.9,29 Z M200.4,24.2 L200.4,23.8 L199.6,23.8 L199.6,24.1 C199.6,25.7 199.6,27.3 197.9,27.3 C197.3,27.3 196.9,27 196.8,26.4 C196.6,25.8 196.7,24.9 196.7,24.1 L196.7,17.6 L200.4,17.6 L200.4,16.4 L196.6,16.4 L196.6,11.4 L196.3,11.1 L188.8,16.6 L188.8,17.5 L190.8,17.5 L190.8,23.1 C190.8,24.4 190.8,24.9 190.9,25.4 C191,26.4 191.2,27.3 191.8,27.9 C192.6,28.9 193.8,29.3 195.6,29.3 C198,29.3 199.5,28.5 200.2,27 C200.3,26.5 200.4,25.8 200.4,24.2 L200.4,24.2 Z" transform="translate(51 7)"/>
    <path d="M22.4,0.5 C34.4,0.5 44,10.2 44,22.1 C44,34 34.3,43.7 22.4,43.7 C10.5,43.7 0.8,34 0.8,22.1 C0.8,10.2 10.5,0.5 22.4,0.5 Z M36,11 L36,10.1 L28,10.1 L28,11.1 L28.8,11.1 C31,11.1 31.6,11.7 31.6,12.8 C31.6,13.6 30.9,15.5 30.6,16.5 L25.4,30.1 L19.8,15.5 C19.2,14 19,13.3 19,12.8 C19,12.2 19.3,11.6 19.9,11.5 C20.3,11.4 20.4,11 21.4,11 L21,11 L21,10 L8,10 L8,11 L9.4,11 C10.6,11 11,11.3 11.3,11.7 C11.6,11.9 11.8,12.6 12,13.2 L22.2,38 L23.5,38 L33.4,13 C33.8,11.7 34.1,11.7 34.6,11.5 C34.9,11.4 35.2,11 36,11 Z"/>
  </g>
</svg>
