<svg xmlns="http://www.w3.org/2000/svg" width="252" height="44" viewBox="0 0 252 44"><g fill="#FFF"><path d="M62.1 30.6c0 2.3-.2 3-.7 3.5-.4.4-1.1.7-1.7.7-2 0-2.1-1.8-2.1-5.2 0-3.6.1-5.2 2.1-5.2.7 0 1.3.3 1.7.7.6.6.7 1.2.7 3.5v2zm8.3 5.4v-1h-.6c-1.6 0-1.9-.2-1.9-1.6V7.7h-8.8v1h1.1c1.6 0 1.9.2 1.9 1.4v14.1c-1-.9-2.6-1.4-4.3-1.4-3.2 0-6.4 2.6-6.4 6.8 0 4.2 3.2 6.8 6.4 6.8 2 0 3.5-.6 4.5-1.7V36h8.1zm10.1-7.2h-4.1v-.4c0-1.8.1-2.8.2-3.3.2-.8.9-1.2 1.8-1.2s1.5.4 1.8 1.2c.2.5.2 1.5.2 3.3l.1.4zm5.6 1.1c-.1-4.5-2.8-7.1-7.5-7.1-5 0-8 2.6-8 6.8 0 4.1 3.3 6.8 8.2 6.8 3.1 0 5.7-1.3 7.3-3.8l-.6-.7C84 34 82 35.2 80 35.2c-3.1 0-3.4-2-3.4-4.7v-.7h9.5v.1zM96.8 36l9.9-25.3c.5-1.3.8-1.7 1.2-1.8.3-.1.6-.1 1.4-.1h.2v-1H102v1h.2c2.2 0 2.8.3 2.8 1.4 0 .9-.6 2.4-1 3.4l-5.2 13.7-5.6-14.6c-.6-1.5-.8-2.1-.8-2.6 0-.6.3-1 .9-1.1.3-.1.5-.1 1.5-.1h.4V7.8H82v1h.8c1.2 0 1.6.1 1.9.6.2.2.4.8.7 1.4L95.5 36h1.3zm16-5.6c0 1.9-.1 3.3-.2 3.8-.3.8-1 1.3-1.9 1.3-1 0-1.7-.5-1.9-1.3-.2-.5-.3-1.9-.3-3.8v-1.8c0-1.9.1-3 .3-3.5.3-.8 1-1.3 1.9-1.3 1 0 1.7.5 1.9 1.3.2.5.2 1.6.2 3.5v1.8zm6.1-.8c0-4.1-3.3-6.8-8.3-6.8-5 0-8.3 2.6-8.3 6.8 0 4.2 3.2 6.8 8.3 6.8 5.1.1 8.3-2.6 8.3-6.8zm.3 6.4H130v-1h-.6c-1.6 0-1.9-.2-1.9-1.5V7.7h-8.8v1h1.1c1.6 0 1.9.2 1.9 1.4v23.3c0 1.3-.2 1.4-1.9 1.4h-.6V36zm32 0v-1h-.4c-.3 0-.5 0-.8-.1-.2-.1-.5-.4-.9-.9l-5.4-7.8c1.3-1.1 3.1-1.6 5.8-1.7v-1h-8.6v1h.8c.9 0 1 0 1.2.1.2.1.3.3.3.5 0 .3-.1.6-.6 1-.2.2-.8.7-1.1 1l-2.6 2.2V7.7h-8.8v1h1.1c1.6 0 1.9.2 1.9 1.4v23.2c0 1.4-.2 1.6-1.9 1.6h-.6v1h10.6v-1h-.2c-1.6 0-1.9-.2-1.9-1.7v-3.5l4.1 6.2 8 .1zm14-4.3c0-1.9-.8-2.9-3.2-4l-1.5-.7c-1.4-.7-1.8-1-1.8-1.7s.5-1.1 1.4-1.1c1.1 0 2.2.4 2.9 1.1.4.4.6.8.6 1.8v.3h.8v-4.2h-.8c-.1.4-.2.6-.6.6-.2 0-.3 0-.8-.2-1.5-.5-2.7-.8-4.2-.8-3.7 0-6 1.7-6 4.5 0 1.9 1.1 3.1 3.8 4.5l.9.4c1 .5 1.3.9 1.3 1.5 0 .7-.5 1.1-1.5 1.1-1.3 0-2.7-.7-3.4-1.6-.4-.5-.5-1.1-.5-2.1V31h-.8v5h.8c0-.6.1-.9.4-.9.1 0 .2.1.5.1 2 .8 3.5 1.1 5.3 1.1 4 .1 6.4-1.7 6.4-4.6zm20.4 4.3v-1h-.4c-.3 0-.5 0-.8-.1-.2-.1-.6-.4-.9-.9l-5.3-7.8c1.3-1.1 3.1-1.6 5.8-1.7v-1h-8.6v1h.8c.9 0 1 0 1.2.1.2.1.3.3.3.5 0 .3-.1.6-.6 1-.2.2-.8.7-1.1 1l-2.6 2.2V7.7h-8.8v1h1.1c1.7 0 1.9.2 1.9 1.4v23.2c0 1.4-.3 1.6-1.9 1.6h-.6v1h10.6v-1h-.3c-1.6 0-1.9-.2-1.9-1.7v-3.5l4.1 6.2 8 .1zm9.4-2.6v-2.6c0-1.2.1-2.1.2-2.7.1-.6.4-1.2.6-1.7.3-.5.6-.7.7-.7l.2.1s0 .1-.1.3c-.2.4-.2.8-.2 1.3 0 1.9 1.3 3.3 3.1 3.3 1.9 0 3.1-1.5 3.1-3.8 0-2.4-1.3-4-3.5-4-2 0-3.5 1.4-4.3 3.9v-3.3h-8.2v1.1h.7c1.6 0 1.9.2 1.9 1.4v7.6c0 1.3-.2 1.4-1.9 1.4h-.5v1h10.7v-1h-.7c-1.5-.1-1.8-.3-1.8-1.6zm17.1-1.9v1.2c0 .6-.1.9-.3 1.2-.2.4-.7.6-1.2.6-1 0-1.3-.7-1.3-2.4v-.6c0-1.8.6-2.5 2.1-2.5h.8v2.5h-.1zm7.6 4.5v-1h-.5c-1.1 0-1.3-.4-1.3-1.6v-4.2c0-1.7 0-2.1-.2-2.7-.1-.5-.3-1-.7-1.5-1-1.3-2.7-2-5.1-2-1.4 0-3 .3-4.6.9-.2 0-.8.3-1 .3-.3 0-.4-.1-.4-.6h-.7v4.2h.8v-.3c0-1 .2-1.5.6-2 .6-.6 1.8-1 3-1s1.9.4 2.2 1.1c.1.4.2.7.2 1.6v.8c-.9-.1-1.5-.1-2.4-.1-3.9 0-6.5 1.2-6.5 4.3 0 2.8 2.1 4.2 4.6 4.2 1.6 0 3.2-.5 4.5-1.5V36h7.5zm20.2 0v-1h-.4c-1.6 0-1.9-.2-1.9-1.5V26.7c-.1-.8-.4-1.5-.8-2.1-.8-1-2.1-1.6-3.7-1.6-1.9 0-3.6.7-5 2.2v-1.8H220v1.1h.8c1.6 0 1.9.2 1.9 1.5v7.4c0 1.4-.3 1.5-1.9 1.5h-.5v1h9.5V35h-.2c-.8 0-1.1-.2-1.1-.8 0-.3-.1-.8-.1-1.4v-4.4c0-1.6.1-2 .4-2.5.3-.5.9-.8 1.6-.8.6 0 1 .2 1.2.7.1.3.2 1.9.2 3.4v3.6c0 1.2 0 1.7-.2 1.9-.2.2-.5.3-1 .3h-.1v1h9.4zm11.5-4.8v-.4h-.8v.3c0 1.6 0 3.2-1.7 3.2-.6 0-1-.3-1.1-.9-.2-.6-.1-1.5-.1-2.3v-6.5h3.7v-1.2h-3.8v-5l-.3-.3-7.5 5.5v.9h2v5.6c0 1.3 0 1.8.1 2.3.1 1 .3 1.9.9 2.5.8 1 2 1.4 3.8 1.4 2.4 0 3.9-.8 4.6-2.3.1-.5.2-1.2.2-2.8zM22.4.5C34.4.5 44 10.2 44 22.1c0 11.9-9.7 21.6-21.6 21.6C10.5 43.7.8 34 .8 22.1.8 10.2 10.5.5 22.4.5zM36 11v-.9h-8v1h.8c2.2 0 2.8.6 2.8 1.7 0 .8-.7 2.7-1 3.7l-5.2 13.6-5.6-14.6c-.6-1.5-.8-2.2-.8-2.7 0-.6.3-1.2.9-1.3.4-.1.5-.5 1.5-.5H21v-1H8v1h1.4c1.2 0 1.6.3 1.9.7.3.2.5.9.7 1.5L22.2 38h1.3l9.9-25c.4-1.3.7-1.3 1.2-1.5.3-.1.6-.5 1.4-.5z"/></g></svg>