<svg xmlns="http://www.w3.org/2000/svg" width="200" height="153" viewBox="0 0 200 153">
  <g fill="none" fill-rule="evenodd">
    <g fill="#FFF" fill-rule="nonzero" transform="translate(0 123)">
      <path d="M10.7 23.6C10.7 25.9 10.5 26.6 10 27.1 9.6 27.5 8.9 27.8 8.3 27.8 6.3 27.8 6.2 26 6.2 22.6 6.2 19 6.3 17.4 8.3 17.4 9 17.4 9.6 17.7 10 18.1 10.6 18.7 10.7 19.3 10.7 21.6L10.7 23.6zM19 28.9L19 27.9 18.4 27.9C16.8 27.9 16.5 27.7 16.5 26.3L16.5.7 7.7.7 7.7 1.7 8.8 1.7C10.4 1.7 10.7 1.9 10.7 3.1L10.7 17.2C9.7 16.3 8.1 15.8 6.4 15.8 3.2 15.8 0 18.4 0 22.6 0 26.8 3.2 29.4 6.4 29.4 8.4 29.4 9.9 28.8 10.9 27.7L10.9 28.9 19 28.9 19 28.9zM29.1 21.7L25 21.7 25 21.3C25 19.5 25.1 18.5 25.2 18 25.4 17.2 26.1 16.8 27 16.8 27.9 16.8 28.5 17.2 28.8 18 29 18.5 29 19.5 29 21.3L29.1 21.7 29.1 21.7zM34.7 22.9C34.6 18.4 31.9 15.8 27.2 15.8 22.2 15.8 19.2 18.4 19.2 22.6 19.2 26.7 22.5 29.4 27.4 29.4 30.5 29.4 33.1 28.1 34.7 25.6L34 25C32.5 27.1 30.5 28.3 28.5 28.3 25.4 28.3 25.1 26.3 25.1 23.6L25.1 22.9 34.7 22.9 34.7 22.9zM45.4 28.9L55.3 3.6C55.8 2.3 56.1 1.9 56.5 1.8 56.8 1.7 57.1 1.7 57.9 1.7L58.1 1.7 58.1.7 50.5.7 50.5 1.7 50.7 1.7C52.9 1.7 53.5 2 53.5 3.1 53.5 4 52.9 5.5 52.5 6.5L47.3 20.2 41.7 5.6C41.1 4.1 40.9 3.5 40.9 3 40.9 2.4 41.2 2 41.8 1.9 42.1 1.8 42.3 1.8 43.3 1.8L43.7 1.8 43.7.7 30.6.7 30.6 1.7 31.4 1.7C32.6 1.7 33 1.8 33.3 2.3 33.5 2.5 33.7 3.1 34 3.7L44.1 29 45.4 29 45.4 28.9zM61.5 23.4C61.5 25.3 61.4 26.7 61.3 27.2 61 28 60.3 28.5 59.4 28.5 58.4 28.5 57.7 28 57.5 27.2 57.3 26.7 57.2 25.3 57.2 23.4L57.2 21.6C57.2 19.7 57.3 18.6 57.5 18.1 57.8 17.3 58.5 16.8 59.4 16.8 60.4 16.8 61.1 17.3 61.3 18.1 61.5 18.6 61.5 19.7 61.5 21.6L61.5 23.4zM67.6 22.6C67.6 18.5 64.3 15.8 59.3 15.8 54.3 15.8 51 18.4 51 22.6 51 26.8 54.2 29.4 59.3 29.4 64.4 29.5 67.6 26.8 67.6 22.6zM67.8 28.9L78.6 28.9 78.6 27.9 78 27.9C76.4 27.9 76.1 27.7 76.1 26.4L76.1.6 67.3.6 67.3 1.6 68.4 1.6C70 1.6 70.3 1.8 70.3 3L70.3 26.3C70.3 27.6 70.1 27.7 68.4 27.7L67.8 27.7 67.8 28.9 67.8 28.9zM99.9 29L99.9 28C99.9 28 99.7 28 99.5 28 99.2 28 99 28 98.7 27.9 98.5 27.8 98.2 27.5 97.8 27L92.4 19.2C93.7 18.1 95.5 17.6 98.2 17.5L98.2 16.5 89.6 16.5 89.6 17.5 90.4 17.5C91.3 17.5 91.4 17.5 91.6 17.6 91.8 17.7 91.9 17.9 91.9 18.1 91.9 18.4 91.8 18.7 91.3 19.1 91.1 19.3 90.5 19.8 90.2 20.1L87.6 22.3 87.6.7 78.8.7 78.8 1.7 79.9 1.7C81.5 1.7 81.8 1.9 81.8 3.1L81.8 26.3C81.8 27.7 81.6 27.9 79.9 27.9L79.3 27.9 79.3 28.9 90 28.9 90 27.9 89.7 27.9C88.1 27.9 87.8 27.7 87.8 26.2L87.8 22.7 91.9 28.9 99.9 29 99.9 29zM113.8 24.7C113.8 22.8 113 21.8 110.6 20.7L109.1 20C107.7 19.3 107.3 19 107.3 18.3 107.3 17.6 107.8 17.2 108.7 17.2 109.8 17.2 110.9 17.6 111.6 18.3 112 18.7 112.2 19.1 112.2 20.1L112.2 20.4 113 20.4 113 16.2 112.2 16.2C112.1 16.6 112 16.8 111.6 16.8 111.4 16.8 111.3 16.8 110.8 16.6 109.3 16.1 108.1 15.8 106.6 15.8 102.9 15.8 100.6 17.5 100.6 20.3 100.6 22.2 101.7 23.4 104.4 24.8L105.3 25.2C106.3 25.7 106.6 26.1 106.6 26.7 106.6 27.4 106.1 27.8 105.1 27.8 103.8 27.8 102.4 27.1 101.7 26.2 101.3 25.7 101.2 25.1 101.2 24.1L101.2 24 100.4 24 100.4 28.9 101.2 28.9C101.2 28.3 101.3 28 101.6 28 101.7 28 101.8 28.1 102.1 28.1 104.1 28.9 105.6 29.2 107.4 29.2 111.5 29.4 113.8 27.6 113.8 24.7z"/>
      <path d="M134.2 29L134.2 28C134.2 28 134 28 133.8 28 133.5 28 133.3 28 133 27.9 132.8 27.8 132.4 27.5 132.1 27L126.8 19.2C128.1 18.1 129.9 17.6 132.6 17.5L132.6 16.5 124 16.5 124 17.5 124.8 17.5C125.7 17.5 125.8 17.5 126 17.6 126.2 17.7 126.3 17.9 126.3 18.1 126.3 18.4 126.2 18.7 125.7 19.1 125.5 19.3 124.9 19.8 124.6 20.1L122 22.3 122 .7 113.2.7 113.2 1.7 114.3 1.7C116 1.7 116.2 1.9 116.2 3.1L116.2 26.3C116.2 27.7 115.9 27.9 114.3 27.9L113.7 27.9 113.7 28.9 124.3 28.9 124.3 27.9 124 27.9C122.4 27.9 122.1 27.7 122.1 26.2L122.1 22.7 126.2 28.9 134.2 29 134.2 29zM143.6 26.4L143.6 23.8C143.6 22.6 143.7 21.7 143.8 21.1 143.9 20.5 144.2 19.9 144.4 19.4 144.7 18.9 145 18.7 145.1 18.7 145.1 18.7 145.3 18.8 145.3 18.8 145.3 18.8 145.3 18.9 145.2 19.1 145 19.5 145 19.9 145 20.4 145 22.3 146.3 23.7 148.1 23.7 150 23.7 151.2 22.2 151.2 19.9 151.2 17.5 149.9 15.9 147.7 15.9 145.7 15.9 144.2 17.3 143.4 19.8L143.4 16.5 135.2 16.5 135.2 17.6 135.9 17.6C137.5 17.6 137.8 17.8 137.8 19L137.8 26.6C137.8 27.9 137.6 28 135.9 28L135.4 28 135.4 29 146.1 29 146.1 28 145.4 28C144 27.9 143.6 27.7 143.6 26.4zM160.7 24.4C160.7 24.7 160.7 25.2 160.7 25.6 160.7 26.2 160.6 26.5 160.4 26.8 160.2 27.2 159.7 27.4 159.2 27.4 158.2 27.4 157.9 26.7 157.9 25L157.9 24.4C157.9 22.6 158.5 21.9 160 21.9 160.3 21.9 160.3 21.9 160.8 21.9L160.8 24.4 160.7 24.4zM168.3 28.9L168.3 27.9 167.8 27.9C166.7 27.9 166.5 27.5 166.5 26.3L166.5 22.1C166.5 20.4 166.5 20 166.3 19.4 166.2 18.9 166 18.4 165.6 17.9 164.6 16.6 162.9 15.9 160.5 15.9 159.1 15.9 157.5 16.2 155.9 16.8 155.7 16.8 155.1 17.1 154.9 17.1 154.6 17.1 154.5 17 154.5 16.5L153.8 16.5 153.8 20.7 154.6 20.7 154.6 20.4C154.6 19.4 154.8 18.9 155.2 18.4 155.8 17.8 157 17.4 158.2 17.4 159.4 17.4 160.1 17.8 160.4 18.5 160.5 18.9 160.6 19.2 160.6 20.1L160.6 21C159.7 20.9 159.1 20.9 158.2 20.9 154.3 20.9 151.7 22.1 151.7 25.2 151.7 28 153.8 29.4 156.3 29.4 157.9 29.4 159.5 28.9 160.8 27.9L160.8 29.1 168.3 28.9 168.3 28.9zM188.6 28.9L188.6 27.9 188.2 27.9C186.6 27.9 186.3 27.7 186.3 26.4L186.3 21.5C186.3 20.4 186.3 20.1 186.3 19.6 186.2 18.8 185.9 18.1 185.5 17.5 184.7 16.5 183.4 15.9 181.8 15.9 179.9 15.9 178.2 16.6 176.8 18.1L176.8 16.3 168.7 16.3 168.7 17.4 169.5 17.4C171.1 17.4 171.4 17.6 171.4 18.9L171.4 26.3C171.4 27.7 171.1 27.8 169.5 27.8L169 27.8 169 28.8 178.5 28.8 178.5 28 178.3 28C177.5 28 177.2 27.8 177.2 27.2 177.2 26.9 177.1 26.4 177.1 25.8L177.1 21.4C177.1 19.8 177.2 19.4 177.5 18.9 177.8 18.4 178.4 18.1 179.1 18.1 179.7 18.1 180.1 18.3 180.3 18.8 180.4 19.1 180.5 20.7 180.5 22.2L180.5 25.8C180.5 27 180.5 27.5 180.3 27.7 180.1 27.9 179.8 28 179.3 28L179.2 28 179.2 28.9 188.6 28.9 188.6 28.9zM200 24.2L200 23.8 199.2 23.8 199.2 24.1C199.2 25.7 199.2 27.3 197.5 27.3 196.9 27.3 196.5 27 196.4 26.4 196.2 25.8 196.3 24.9 196.3 24.1L196.3 17.6 200 17.6 200 16.4 196.2 16.4 196.2 11.4 195.9 11.1 188.4 16.6 188.4 17.5 190.4 17.5 190.4 23.1C190.4 24.4 190.4 24.9 190.5 25.4 190.6 26.4 190.8 27.3 191.4 27.9 192.2 28.9 193.4 29.3 195.2 29.3 197.6 29.3 199.1 28.5 199.8 27 199.9 26.5 200 25.7 200 24.2z"/>
    </g>
    <path fill="#FFF" d="M99.9,0.3 C72.1,0.3 49.6,22.8 49.6,50.6 C49.6,78.4 72.1,100.9 99.9,100.9 C127.7,100.9 150.2,78.4 150.2,50.6 C150.2,22.8 127.7,0.3 99.9,0.3 Z"/>
    <path fill="#000" fill-rule="nonzero" d="M132,24.4 L131.6,24.4 C129.6,24.4 129,25.5 128.2,25.7 C127.1,26.1 126.4,26.2 125.3,29.2 L102.1,87.4 L99.1,87.4 L75.5,29.7 C74.9,28.3 74.5,26.7 74,26.1 C73.2,25.1 72.2,24.4 69.5,24.4 L66,24.4 L66,22.4 L97,22.4 L97,24.4 L97.6,24.4 C95.4,24.4 95,25.5 94.2,25.7 C92.8,25.9 92,27.5 92,28.8 C92,30 92.5,31.7 93.8,35.2 L107,69.3 L119,37.5 C119.8,35.3 121.2,30.6 121.2,28.6 C121.2,26.1 119.8,24.4 114.7,24.4 L113,24.4 L113,22.4 L132,22.4 L132,24.4 Z"/>
  </g>
</svg>
