<svg width="102" height="101" viewBox="0 0 102 101" xmlns="http://www.w3.org/2000/svg"><title>V-white</title><g fill="none" fill-rule="evenodd"><path d="M50.9.3C23.1.3.6 22.8.6 50.6c0 27.8 22.5 50.3 50.3 50.3 27.8 0 50.3-22.5 50.3-50.3C101.2 22.8 78.7.3 50.9.3z" fill="#FFF" fill-rule="nonzero"/><path d="M83 24.4h-.4c-2 0-2.6 1.1-3.4 1.3-1.1.4-1.8.5-2.9 3.5L53.1 87.4h-3L26.5 29.7c-.6-1.4-1-3-1.5-3.6-.8-1-1.8-1.7-4.5-1.7H17v-2h31v2h.6c-2.2 0-2.6 1.1-3.4 1.3-1.4.2-2.2 1.8-2.2 3.1 0 1.2.5 2.9 1.8 6.4L58 69.3l12-31.8c.8-2.2 2.2-6.9 2.2-8.9 0-2.5-1.4-4.2-6.5-4.2H64v-2h19v2z" fill="#000"/></g></svg>