<svg xmlns="http://www.w3.org/2000/svg" xmlns:xlink="http://www.w3.org/1999/xlink" width="294" height="253" viewBox="0 0 294 253">
  <defs>
    <polygon id="logo-centraal-museum-a" points="72.657 26.94 .543 26.94 .543 .838 72.657 .838"/>
  </defs>
  <g fill="none" fill-rule="evenodd">
    <path fill="#1A1919" d="M192.428,207.847 C192.428,203.677 191.896,202.122 190.765,202.122 C189.811,202.122 188.857,202.757 188.857,211.31 C188.857,219.583 189.349,220.503 190.765,220.503 C192.285,220.503 192.639,218.172 192.708,214.527 L196.599,214.704 C196.599,219.091 195.959,224.394 190.588,224.394 C185.674,224.394 184.046,219.583 184.046,211.31 C184.046,201.694 186.948,198.231 190.588,198.231 C195.891,198.231 196.53,203.111 196.53,207.705 L192.428,207.847"/>
    <polyline fill="#1A1919" points="199.47 198.728 209.863 198.728 209.863 202.614 204.064 202.614 204.064 209.048 208.343 209.048 208.343 213.15 204.064 213.15 204.064 220.007 210.109 220.007 210.109 223.897 199.47 223.897 199.47 198.728"/>
    <polyline fill="#1A1919" points="212.096 198.728 216.586 198.728 220.792 212.018 220.861 212.018 220.861 198.728 224.54 198.728 224.54 223.897 220.969 223.897 216.055 208.659 215.986 208.659 215.986 223.897 212.096 223.897 212.096 198.728"/>
    <polyline fill="#1A1919" points="229.816 202.614 225.857 202.614 225.857 198.728 238.37 198.728 238.37 202.614 234.415 202.614 234.415 223.897 229.816 223.897 229.816 202.614"/>
    <path fill="#1A1919" d="M244.458 209.402L245.378 209.402C247.075 209.402 247.714 207.705 247.714 205.904 247.714 203.179 246.721 202.403 245.167 202.403L244.458 202.403 244.458 209.402zM239.864 198.728L245.024 198.728C249.407 198.728 252.309 200.563 252.309 205.866 252.309 207.99 251.669 210.818 249.623 212.018L252.343 223.897 247.714 223.897 245.555 213.081 244.458 213.081 244.458 223.897 239.864 223.897 239.864 198.728 239.864 198.728zM259.809 202.614L259.74 202.614 258.289 214.635 261.156 214.635 259.809 202.614zM256.877 198.728L263.522 198.728 266.635 223.897 262.214 223.897 261.544 218.31 257.831 218.31 257.196 223.897 253.34 223.897 256.877 198.728 256.877 198.728zM273.889 202.614L273.82 202.614 272.37 214.635 275.236 214.635 273.889 202.614zM270.958 198.728L277.603 198.728 280.716 223.897 276.294 223.897 275.625 218.31 271.912 218.31 271.277 223.897 267.421 223.897 270.958 198.728 270.958 198.728z"/>
    <polyline fill="#1A1919" points="282.771 198.728 287.366 198.728 287.366 220.007 293.233 220.007 293.233 223.897 282.771 223.897 282.771 198.728"/>
    <g transform="translate(184 226)">
      <mask id="logo-centraal-museum-b" fill="#fff">
        <use xlink:href="#logo-centraal-museum-a"/>
      </mask>
      <polyline fill="#1A1919" points=".543 1.33 6.657 1.33 8.708 14.236 8.782 14.236 10.937 1.33 16.913 1.33 16.913 26.503 12.811 26.503 12.811 8.049 12.741 8.049 9.628 26.503 7.085 26.503 4.006 8.049 3.937 8.049 3.937 26.503 .543 26.503 .543 1.33" mask="url(#logo-centraal-museum-b)"/>
      <path fill="#1A1919" d="M19.892 1.33L24.486 1.33 24.486 20.812C24.486 21.944 24.736 23.109 26.079 23.109 27.349 23.109 27.776 22.013 27.776 20.812L27.776 1.33 31.662 1.33 31.662 20.212C31.662 25.16 29.473 27 25.794 27 22.262 27 19.892 25.16 19.892 20.212L19.892 1.33M37.966 19.219C37.966 20.635 37.966 23.109 39.944 23.109 41.464 23.109 41.995 21.693 41.995 20.67 41.995 16.179 33.653 15.156 33.653 7.695 33.653 3.912 35.704.838 39.59.838 43.727.838 45.32 3.985 45.423 8.511L41.321 8.511C41.321 7.094 41.321 4.724 39.486 4.724 38.39 4.724 37.75 5.643 37.75 7.025 37.75 11.3 46.097 12.751 46.097 20.07 46.097 23.921 43.904 27 39.767 27 34.853 27 33.864 22.686 33.864 19.219L37.966 19.219" mask="url(#logo-centraal-museum-b)"/>
      <polyline fill="#1A1919" points="48.26 1.33 58.654 1.33 58.654 5.221 52.854 5.221 52.854 11.654 57.134 11.654 57.134 15.756 52.854 15.756 52.854 22.613 58.9 22.613 58.9 26.503 48.26 26.503 48.26 1.33" mask="url(#logo-centraal-museum-b)"/>
      <path fill="#1A1919" d="M60.886,1.33 L65.48,1.33 L65.48,20.812 C65.48,21.944 65.73,23.109 67.074,23.109 C68.343,23.109 68.771,22.013 68.771,20.812 L68.771,1.33 L72.657,1.33 L72.657,20.212 C72.657,25.16 70.467,27 66.789,27 C63.256,27 60.886,25.16 60.886,20.212 L60.886,1.33" mask="url(#logo-centraal-museum-b)"/>
    </g>
    <polyline fill="#1A1919" points="259.636 227.33 265.75 227.33 267.801 240.236 267.875 240.236 270.029 227.33 276.005 227.33 276.005 252.503 271.903 252.503 271.903 234.049 271.834 234.049 268.721 252.503 266.178 252.503 263.099 234.049 263.03 234.049 263.03 252.503 259.636 252.503 259.636 227.33"/>
    <polyline fill="#1A1919" points="182.751 198.447 150.816 162.281 153.467 159.94 185.402 196.107 182.751 198.447"/>
    <path fill="#FD3DB9" fill-opacity=".7" d="M179.491,90.444 C179.491,140.013 139.313,180.191 89.748,180.191 C40.178,180.191 0,140.013 0,90.444 C0,40.878 40.178,0.7 89.748,0.7 C139.313,0.7 179.491,40.878 179.491,90.444"/>
  </g>
</svg>
