<svg width="7013" height="7012" viewBox="0 0 7013 7012" xmlns="http://www.w3.org/2000/svg"><title>Shape</title><path d="M3506.133 7011.504C1569.758 7011.504.016 5441.924.016 3505.752.016 1569.58 1569.758 0 3506.133 0 5442.508 0 7012.25 1569.58 7012.25 3505.752c0 1936.173-1569.742 3505.752-3506.117 3505.752zM2707.857 5063.48c352.01-60.995 625.02-281.98 849.028-684.95 71.002-127.99 140.005-281.98 272.01-604.958 188.005-463.967 283.008-639.954 407.013-757.946 81.002-77.994 135.004-101.993 231.007-101.993 109.004 0 168.006 30.998 290.01 153.99 113.004 113.99 214.007 258.98 425.014 614.956 340.01 571.958 505.016 773.944 770.025 940.932 74.002 45.997 242.008 121.992 250.008 112.992 1-2 23-54.996 48.002-117.99 54-134.992 108.003-310.98 140.004-453.97l23-102.992-62.002-31.998c-82.003-41.997-223.007-188.986-320.01-331.976-40.002-56.996-154.006-240.983-254.01-408.97-100.002-167.99-212.006-347.977-247.007-399.973-192.006-278.98-394.012-474.966-596.02-576.96-436.014-218.984-955.03-108.99-1276.042 271.982-174.005 205.985-274.01 392.972-483.016 909.935-186.006 457.968-294.01 660.953-410.013 771.946-84.004 78.994-127.006 96.993-228.01 97.993-115.003 0-174.005-28.997-290.01-144.99-123.003-123.99-216.006-259.98-480.015-704.95-202.006-338.975-321.01-505.963-470.015-655.953-178.006-179.987-389.013-300.98-585.02-337.976-41-7.998-44-6.998-54.002 18-42 103.992-120.004 425.97-136.004 560.96-3 29.998-8 66.995-11 82.994-5 24-3 26.998 23 26.998 38.002 0 127.005 42.997 191.007 91.994 64.003 48.996 179.007 184.987 261.01 305.978 32 47.997 141.004 224.984 241.007 391.972 261.01 436.97 389.013 612.957 552.02 763.946 274.008 253.982 598.02 358.975 929.03 300.98z" fill-rule="nonzero" fill="#BBE3DD"/></svg>