<svg xmlns="http://www.w3.org/2000/svg" width="157" height="113" viewBox="0 0 157 113"><g fill="none" fill-rule="evenodd"><path fill="#FFF" d="M30.49 47.56V34.567h2.448v1.35c.422-.51.858-.89 1.31-1.143.45-.252.92-.378 1.406-.378.463 0 .838.126 1.126.378.29.252.49.633.603 1.144.382-.47.814-.838 1.298-1.1.484-.265.948-.398 1.395-.398.6 0 1.05.182 1.346.548.297.365.445.913.445 1.644v10.95h-2.448v-9.805c0-.406-.047-.68-.14-.816-.093-.137-.262-.206-.505-.206-.17 0-.39.09-.658.274-.268.183-.51.416-.73.7v9.853H35.13v-9.803c0-.398-.05-.668-.152-.81-.102-.142-.282-.213-.542-.213-.187 0-.422.09-.707.267-.285.18-.548.415-.792.708v9.853H30.49m15.918-8.208h2.12v-1.316c0-.544-.084-.933-.25-1.17-.167-.234-.433-.352-.798-.352-.382 0-.656.118-.822.353-.167.236-.25.625-.25 1.17v1.315zm-2.496 4.543V38.06c0-1.127.34-2.047 1.023-2.757.682-.71 1.563-1.066 2.642-1.066 1.105 0 1.953.33 2.546.986.592.658.89 1.604.89 2.838v3.314h-4.605v2.447c0 .684.08 1.157.237 1.42.16.264.43.397.81.397.4 0 .676-.112.835-.335.158-.224.237-.717.237-1.48v-.902h2.485v.975c0 1.332-.303 2.335-.908 3.008-.605.674-1.508 1.01-2.71 1.01-1.08 0-1.93-.356-2.55-1.07-.622-.715-.932-1.697-.932-2.948zm11.375-4.543h2.12v-1.316c0-.544-.085-.933-.25-1.17-.167-.234-.433-.352-.8-.352-.38 0-.654.118-.82.353-.167.236-.25.625-.25 1.17v1.315zm-2.497 4.543V38.06c0-1.127.34-2.047 1.023-2.757.682-.71 1.563-1.066 2.643-1.066 1.104 0 1.952.33 2.545.986.594.658.89 1.604.89 2.838v3.314h-4.603v2.447c0 .684.08 1.157.237 1.42.16.264.428.397.81.397.398 0 .676-.112.834-.335.16-.224.238-.717.238-1.48v-.902h2.484v.975c0 1.332-.302 2.335-.907 3.008-.605.674-1.508 1.01-2.71 1.01-1.08 0-1.93-.356-2.55-1.07-.623-.715-.933-1.697-.933-2.948zm9.122 3.666V34.567h2.448v1.765c.308-.632.677-1.108 1.108-1.43.43-.32.918-.48 1.462-.48h.243v2.715c-.113-.057-.236-.1-.365-.127-.13-.03-.272-.043-.426-.043-.626 0-1.12.187-1.48.56-.362.374-.542.885-.542 1.535v8.5h-2.448M72.373 34.566h2.24l1.5 8.002h.12l1.23-8.002h2.39l-2.51 12.995h-2.23l-2.74-12.994M83.274 39.352h2.12v-1.316c0-.544-.084-.933-.25-1.17-.167-.234-.433-.352-.798-.352-.382 0-.656.118-.823.353-.166.236-.25.625-.25 1.17v1.315zm-2.497 4.543V38.06c0-1.127.34-2.047 1.023-2.757.682-.71 1.563-1.066 2.643-1.066 1.104 0 1.952.33 2.545.986.593.658.89 1.604.89 2.838v3.314h-4.604v2.447c0 .684.08 1.157.237 1.42.16.264.43.397.81.397.4 0 .677-.112.836-.335.158-.224.237-.717.237-1.48v-.902h2.484v.975c0 1.332-.302 2.335-.907 3.008-.605.674-1.508 1.01-2.71 1.01-1.08 0-1.93-.356-2.55-1.07-.622-.715-.933-1.697-.933-2.948zm11.375-4.543h2.12v-1.316c0-.544-.084-.933-.25-1.17-.167-.234-.433-.352-.798-.352-.382 0-.656.118-.822.353-.167.236-.25.625-.25 1.17v1.315zm-2.496 4.543V38.06c0-1.127.34-2.047 1.023-2.757.68-.71 1.562-1.066 2.64-1.066 1.106 0 1.954.33 2.547.986.592.658.89 1.604.89 2.838v3.314H92.15v2.447c0 .684.08 1.157.238 1.42.158.264.428.397.81.397.398 0 .675-.112.834-.335.158-.224.237-.717.237-1.48v-.902h2.486v.975c0 1.332-.302 2.335-.907 3.008-.606.674-1.51 1.01-2.71 1.01-1.08 0-1.932-.356-2.553-1.07-.62-.715-.93-1.697-.93-2.948zm9.122 3.666V34.567h2.448v1.765c.308-.632.677-1.108 1.108-1.43.43-.32.917-.48 1.46-.48h.245v2.715c-.115-.057-.237-.1-.366-.127-.13-.03-.273-.043-.427-.043-.625 0-1.118.187-1.48.56-.36.374-.54.885-.54 1.535v8.5h-2.45M105.342 47.56V29.95h2.448v9.377l2.217-4.76h2.594l-2.41 4.36 2.57 8.634h-2.45l-1.692-6.43-.828 1.523v4.908h-2.448M114 47.56V34.567h2.45v1.765c.308-.632.677-1.108 1.107-1.43.43-.32.918-.48 1.46-.48h.245v2.715c-.113-.057-.234-.1-.365-.127-.13-.03-.272-.043-.426-.043-.624 0-1.118.187-1.48.56-.36.374-.54.885-.54 1.535v8.5H114m10.73-3.24v-3.373c-.86.56-1.452 1.08-1.776 1.56-.326.48-.488 1.06-.488 1.74 0 .407.065.72.195.94.13.218.313.328.55.328.283 0 .565-.108.845-.323.28-.215.506-.505.676-.87zm.074 1.78c-.382.52-.807.92-1.278 1.205-.47.284-.95.427-1.438.427-.674 0-1.195-.248-1.564-.744-.37-.495-.555-1.202-.555-2.12 0-1.2.338-2.22 1.017-3.062.677-.84 1.926-1.747 3.744-2.722v-1.4c0-.39-.067-.687-.206-.89-.138-.202-.34-.305-.61-.305-.34 0-.608.097-.802.292-.196.195-.293.463-.293.804v.72h-2.448c0-.042-.005-.1-.013-.172-.01-.073-.013-.13-.013-.17 0-1.09.345-1.98 1.035-2.68.69-.698 1.56-1.047 2.607-1.047 1.094 0 1.91.333 2.44 1 .532.665.798 1.687.798 3.068v5.54c0 .87.02 1.63.06 2.278.042.65.098 1.13.17 1.438h-2.422c-.065-.17-.116-.37-.153-.602-.036-.23-.062-.517-.08-.86zm4.398-2.205v-5.737c0-1.193.335-2.145 1.004-2.855.67-.71 1.55-1.066 2.637-1.066 1.08 0 1.926.336 2.54 1.01.613.675.92 1.613.92 2.814v1.024h-2.486v-1.048c0-.544-.083-.933-.25-1.17-.166-.234-.432-.352-.797-.352-.382 0-.656.118-.822.353-.166.236-.25.625-.25 1.17v5.784c0 .684.08 1.157.238 1.42.158.264.428.397.81.397.397 0 .675-.112.834-.335.158-.224.237-.717.237-1.48v-1h2.485v1.073c0 1.332-.303 2.335-.907 3.008-.606.674-1.51 1.01-2.71 1.01-1.072 0-1.92-.358-2.546-1.077-.626-.72-.938-1.7-.938-2.94m9.122 3.665V29.95h2.448v6.04c.446-.52.907-.915 1.383-1.187.474-.272.935-.408 1.382-.408.568 0 .994.19 1.28.573.282.38.425.954.425 1.717V47.56h-2.424v-9.803c0-.406-.047-.68-.14-.816-.094-.137-.262-.206-.506-.206-.178 0-.4.09-.663.274-.265.183-.51.416-.738.7v9.853h-2.448m9.865-2.74v-8.233h-1.5v-2.02h1.5v-3.74h2.41v3.74h1.803v2.02H150.6v8.002c0 .372.092.652.274.84.183.186.45.28.798.28.08 0 .18-.01.298-.03.118-.02.258-.052.42-.092l.013 2.12c-.228.07-.455.124-.683.157-.226.033-.467.05-.718.05-.942 0-1.646-.26-2.113-.774-.468-.515-.7-1.288-.7-2.32M154.4 47.56v-2.764h2.595v2.765l-1.402 3.12H154.4l.89-3.12h-.89M30.49 68.188h2.448v-17.61H30.49M39.44 64.95v-3.375c-.86.56-1.452 1.08-1.777 1.56-.325.478-.487 1.06-.487 1.74 0 .407.065.72.195.94.13.218.314.328.55.328.283 0 .565-.108.846-.323.28-.215.505-.505.675-.87zm.075 1.777c-.382.52-.808.922-1.28 1.206-.47.284-.95.427-1.437.427-.674 0-1.195-.248-1.565-.744-.37-.495-.554-1.202-.554-2.12 0-1.2.338-2.22 1.016-3.062.678-.84 1.927-1.747 3.745-2.722v-1.4c0-.39-.068-.687-.206-.89-.138-.202-.34-.305-.61-.305-.34 0-.607.098-.802.293-.196.195-.293.463-.293.804v.72h-2.45c0-.042-.003-.1-.01-.172-.01-.073-.013-.13-.013-.17 0-1.09.345-1.98 1.035-2.68.69-.698 1.56-1.048 2.606-1.048 1.096 0 1.91.333 2.442 1 .532.665.798 1.688.798 3.07v5.54c0 .87.02 1.628.06 2.277.042.652.098 1.13.17 1.44h-2.422c-.065-.172-.116-.372-.152-.604-.037-.23-.063-.517-.08-.86zm4.64 1.462V55.193h2.448v1.424c.446-.52.907-.915 1.382-1.187.475-.27.935-.407 1.382-.407.57 0 .995.19 1.28.573.283.38.425.954.425 1.717V68.19h-2.424v-9.805c0-.406-.046-.68-.14-.816-.093-.14-.262-.208-.505-.208-.18 0-.4.09-.664.274-.265.183-.51.416-.737.7v9.853h-2.448m13.153-6.737v-3.02c0-.446-.09-.778-.268-.992-.18-.214-.446-.323-.804-.323-.357 0-.62.107-.79.318-.172.21-.257.544-.257.998v3.02c0 .455.084.79.255 1.005.17.216.434.323.79.323.36 0 .626-.11.805-.328.18-.22.268-.55.268-1zm-1.425 7.04c-.317.146-.55.302-.7.47-.15.165-.225.35-.225.553 0 .276.166.515.5.72.332.202.75.303 1.253.303.635 0 1.15-.1 1.548-.3.398-.198.597-.452.597-.76 0-.34-.222-.59-.664-.743-.44-.155-1.21-.236-2.307-.244zm-1.34-4.117c-.576-.356-.984-.764-1.224-1.223-.24-.46-.36-1.074-.36-1.845v-2.595c0-1.226.29-2.174.87-2.844.58-.67 1.4-1.006 2.455-1.006.56 0 1.068.12 1.523.354.454.235.884.6 1.29 1.096.18-.39.42-.692.725-.908.304-.214.672-.342 1.102-.383v2.107c-.105-.017-.2-.03-.286-.043-.086-.012-.158-.017-.214-.017-.203 0-.384.042-.542.127-.158.085-.286.21-.384.372.008.145.015.29.02.437.002.146.005.288.005.426v2.9c0 1.127-.268 1.992-.804 2.593-.535.6-1.306.9-2.313.9-.138-.006-.333-.023-.585-.048-.024 0-.045-.003-.06-.01-.187.136-.33.276-.427.42-.097.14-.146.277-.146.407 0 .373.474.59 1.424.645.568.033 1.023.073 1.364.122 1.055.154 1.83.468 2.326.944.495.474.743 1.135.743 1.978 0 1.016-.396 1.78-1.188 2.296-.792.516-1.96.774-3.502.774-1.283 0-2.28-.183-2.996-.548-.715-.365-1.07-.873-1.07-1.523 0-.203.047-.41.145-.62.097-.212.23-.403.4-.573.163-.163.373-.316.63-.463.254-.146.585-.3.99-.463-.478-.122-.847-.312-1.107-.572-.26-.26-.39-.568-.39-.926 0-.414.114-.79.34-1.127.228-.337.642-.725 1.243-1.164zm9.683-4.396h2.12v-1.316c0-.544-.084-.933-.25-1.17-.167-.234-.433-.352-.798-.352-.382 0-.656.118-.822.353-.167.236-.25.625-.25 1.17v1.315zm-2.497 4.543V58.69c0-1.13.34-2.05 1.022-2.76.683-.71 1.563-1.066 2.643-1.066 1.104 0 1.953.33 2.545.987.593.66.89 1.605.89 2.84V62h-4.604v2.447c0 .682.08 1.155.237 1.418.16.264.43.397.81.397.398 0 .676-.112.835-.335.158-.224.237-.717.237-1.48v-.902h2.484v.975c0 1.332-.303 2.335-.908 3.008-.605.675-1.508 1.012-2.71 1.012-1.08 0-1.93-.357-2.55-1.072-.622-.714-.933-1.696-.933-2.947zm9.122 3.666V55.193H73.3v1.765c.308-.634.677-1.11 1.108-1.432.43-.32.917-.48 1.46-.48h.245v2.715c-.114-.057-.236-.1-.366-.127-.13-.03-.272-.043-.426-.043-.624 0-1.117.186-1.48.56-.36.374-.54.885-.54 1.535v8.5H70.85m12.288-2.74v-8.233h-1.498v-2.02h1.498v-3.74h2.41v3.74h1.804v2.02H85.55v8.002c0 .373.093.653.275.84.183.187.45.28.798.28.08 0 .18-.01.298-.03.12-.02.26-.05.422-.09l.012 2.118c-.228.072-.455.125-.682.158-.228.033-.468.05-.72.05-.94 0-1.645-.26-2.112-.774-.467-.517-.7-1.29-.7-2.322m5.98 2.74V50.58h2.448v6.04c.446-.52.907-.915 1.382-1.187.475-.27.936-.407 1.382-.407.57 0 .995.19 1.28.573.283.38.426.954.426 1.717V68.19h-2.424v-9.805c0-.406-.047-.68-.14-.816-.094-.14-.262-.208-.506-.208-.18 0-.4.09-.663.274-.265.183-.51.416-.737.7v9.853H89.12m16.064-12.996V68.19h-2.41v-1.426c-.448.527-.913.93-1.396 1.206-.483.275-.952.414-1.406.414-.56 0-.983-.193-1.267-.58-.285-.385-.426-.963-.426-1.734V55.194h2.422v9.974c0 .31.05.532.152.67s.267.207.494.207c.178 0 .403-.092.676-.274.272-.182.52-.415.75-.7v-9.876h2.41m2.35 12.995h2.45V55.193h-2.45V68.19zm0-15.19h2.45v-2.423h-2.45V53zm3.97 11.67l2.34-.525c.105.756.283 1.298.535 1.626.25.33.604.495 1.06.495.34 0 .612-.104.815-.312.202-.207.305-.484.305-.834 0-.675-.82-1.633-2.46-2.875-.017-.016-.038-.032-.062-.05-.82-.616-1.402-1.216-1.748-1.8-.345-.585-.517-1.247-.517-1.987 0-1.063.33-1.92.986-2.57.657-.648 1.518-.974 2.58-.974 1 0 1.808.3 2.425.902.617.6.962 1.425 1.035 2.472l-2.29.548c-.09-.55-.24-.964-.45-1.236-.21-.272-.49-.408-.84-.408-.325 0-.58.103-.768.31-.186.207-.28.486-.28.835 0 .57.573 1.303 1.718 2.204.308.253.547.448.718.586.9.755 1.518 1.42 1.85 1.992.334.572.5 1.215.5 1.93 0 1.072-.33 1.93-.993 2.575-.66.646-1.536.97-2.624.97-1.038 0-1.9-.343-2.58-1.024-.682-.683-1.1-1.633-1.255-2.85"/><path fill="#C63146" d="M108.265 96.054l.008.02-6.523 2.696-6.566-2.727.017-.01 6.525-2.695 6.54 2.716"/><path fill="#F2D8CD" d="M92.3 7.362l.046.037-6.567 2.71-6.426-2.665-.114-.053L85.786.84 92.3 7.362"/><path fill="#D48088" d="M101.516 79.992l-.013 12.99-6.523 2.695-.02.008-2.67-6.46 9.226-9.233M85.71 10.488l2.615 6.326-2.636 6.348-2.616-6.327 2.636-6.347"/><path fill="#B62C41" d="M85.332 10.38l-.075.193-2.637 6.348-13.086-.01 9.26-9.245 6.426 2.666.112.05"/><path fill="#F2D8CD" d="M94.633 95.85l.01.022-2.706 6.51-6.484-6.49 6.49-6.492 2.69 6.45M22.928 54.612l.007.018-6.546 2.704-9.246-9.263 13.086.014 2.698 6.528"/><path fill="#B62C41" d="M6.874 48.362l9.228 9.234-2.7 6.5-6.54-2.717.012-13.018"/><path fill="#D48088" d="M13.175 64.436l.01.02-6.525 2.696-6.54-2.717-.008-.02 6.523-2.696 6.54 2.716"/><path fill="#FFF" d="M62.875 104.287v-20.09c0-1.243-.24-2.177-.722-2.8-.48-.62-1.195-.932-2.14-.932-.946 0-1.66.31-2.14.933-.483.622-.724 1.556-.724 2.8v20.09c0 1.244.24 2.18.722 2.812.48.63 1.195.946 2.14.946.946 0 1.66-.316 2.14-.946.482-.63.723-1.568.723-2.813M51.5 84.547c0-2.84.77-5.06 2.314-6.672 1.543-1.61 3.675-2.414 6.397-2.414 2.574 0 4.61.827 6.113 2.478 1.5 1.65 2.253 3.904 2.253 6.758v18.445c0 3.155-.744 5.586-2.228 7.295-1.486 1.71-3.597 2.565-6.336 2.565-2.77 0-4.883-.85-6.335-2.553-1.452-1.7-2.178-4.186-2.178-7.455V84.547m-22.283 27.68V76.233h4.978l7.493 22.857V76.233h5.202v35.994h-5.202l-6.77-19.89c-.034-.082-.53-1.59-.53-1.59v21.48h-5.17M11.795 112.227V76.233h14.463v5.203h-8.912v9.433h6.422v5.202h-6.422v16.155h-5.55"/></g></svg>