<?xml version="1.0" encoding="utf-8"?>
<!-- Generator: Adobe Illustrator 16.2.0, SVG Export Plug-In . SVG Version: 6.00 Build 0)  -->
<!DOCTYPE svg PUBLIC "-//W3C//DTD SVG 1.1//EN" "http://www.w3.org/Graphics/SVG/1.1/DTD/svg11.dtd">
<svg version="1.1" id="Layer_1" xmlns="http://www.w3.org/2000/svg" xmlns:xlink="http://www.w3.org/1999/xlink" x="0px" y="0px"
	 width="222.915px" height="55px" viewBox="0 0 222.915 55" enable-background="new 0 0 222.915 55" xml:space="preserve">
<path fill-rule="evenodd" clip-rule="evenodd" fill="#BAE2DC" d="M46.088,25.942c-0.059-0.644-0.143-1.281-0.271-1.912
	c-0.156-0.771-0.371-1.529-0.635-2.273c-0.43-1.203-0.986-2.344-1.68-3.416c-0.44-0.681-0.926-1.325-1.459-1.938
	c-0.66-0.761-1.385-1.453-2.167-2.085c-0.644-0.518-1.326-0.98-2.04-1.396c-0.875-0.511-1.788-0.936-2.741-1.276
	c-1.386-0.495-2.81-0.807-4.278-0.924c-0.157-0.013-0.325,0.017-0.477-0.055c-0.6,0-1.202,0-1.802,0
	c-0.02,0.031-0.052,0.029-0.083,0.032c-0.502,0.031-1.002,0.081-1.5,0.155c-0.894,0.133-1.772,0.335-2.63,0.613
	c-1.125,0.364-2.2,0.839-3.224,1.433c-1.044,0.604-2.019,1.31-2.904,2.128c-0.576,0.532-1.121,1.094-1.621,1.702
	c-0.799,0.97-1.485,2.013-2.05,3.132c-0.404,0.804-0.734,1.639-1.008,2.497c-0.425,1.333-0.671,2.697-0.741,4.088
	c-0.055,1.092-0.023,2.184,0.14,3.271c0.141,0.93,0.344,1.845,0.629,2.741c0.356,1.115,0.826,2.181,1.408,3.198
	c0.665,1.165,1.466,2.229,2.383,3.203c0.482,0.514,1.005,0.985,1.549,1.433c0.848,0.7,1.756,1.304,2.723,1.82
	c0.986,0.524,2.018,0.941,3.09,1.264c1.257,0.372,2.541,0.603,3.848,0.662c1.091,0.046,2.183,0.02,3.269-0.145
	c0.926-0.139,1.835-0.337,2.726-0.622c1.186-0.38,2.316-0.884,3.389-1.519c0.975-0.579,1.883-1.248,2.724-2.006
	c0.453-0.409,0.878-0.845,1.284-1.301c0.458-0.517,0.88-1.058,1.274-1.623c0.579-0.833,1.063-1.715,1.481-2.637
	c0.326-0.72,0.596-1.46,0.813-2.218c0.223-0.781,0.386-1.575,0.49-2.383c0.069-0.531,0.125-1.062,0.142-1.597
	C46.16,27.307,46.15,26.625,46.088,25.942z M43.339,30.06c-0.183,1.002-0.479,1.968-0.881,2.902
	c-0.132,0.306-0.141,0.308-0.463,0.189c-0.63-0.229-1.182-0.591-1.687-1.028c-0.987-0.855-1.692-1.932-2.366-3.031
	c-0.596-0.972-1.136-1.98-1.792-2.914c-0.338-0.483-0.706-0.94-1.185-1.297C34.349,24.42,33.557,24.463,33,25
	c-0.361,0.347-0.627,0.764-0.859,1.2c-0.536,1.004-0.922,2.074-1.356,3.124c-0.436,1.06-0.896,2.11-1.549,3.062
	c-0.561,0.813-1.239,1.497-2.122,1.956c-0.551,0.284-1.137,0.45-1.757,0.514c-0.74,0.076-1.457-0.008-2.154-0.255
	c-0.605-0.214-1.146-0.545-1.639-0.956c-0.991-0.82-1.702-1.864-2.371-2.942c-0.629-1.019-1.193-2.081-1.879-3.064
	c-0.362-0.519-0.75-1.017-1.28-1.379c-0.223-0.152-0.463-0.27-0.747-0.261c-0.086,0.004-0.128-0.037-0.114-0.126
	c0.104-0.683,0.202-1.367,0.379-2.037c0.1-0.38,0.21-0.758,0.339-1.131c0.03-0.087,0.068-0.142,0.122-0.129
	c0.458,0.078,0.853,0.204,1.229,0.382c0.796,0.377,1.462,0.92,2.047,1.575c0.747,0.836,1.334,1.781,1.906,2.737
	c0.478,0.798,0.931,1.611,1.458,2.379c0.291,0.424,0.601,0.836,0.98,1.189c0.268,0.25,0.556,0.471,0.927,0.539
	c0.472,0.084,0.896-0.015,1.26-0.338c0.421-0.371,0.715-0.838,0.973-1.328c0.524-0.999,0.909-2.057,1.336-3.096
	c0.419-1.017,0.859-2.023,1.478-2.94c0.268-0.399,0.56-0.778,0.903-1.111c0.791-0.766,1.719-1.281,2.818-1.427
	c1.425-0.19,2.706,0.168,3.843,1.052c0.67,0.521,1.219,1.152,1.713,1.835c0.721,0.993,1.306,2.071,1.94,3.117
	c0.502,0.827,1.003,1.657,1.723,2.322c0.208,0.19,0.431,0.354,0.702,0.442C43.339,29.933,43.356,29.967,43.339,30.06z"/>
<g>
	<path fill="#FFFFFF" d="M55.651,35.003H52.57V29.54h2.744l0.363,2.822c0.621,0.234,1.346,0.386,2.64,0.386
		c2.2,0,3.159-1.008,3.159-2.588c0-2.096-2.227-2.329-4.738-3.054c-2.409-0.7-3.936-2.124-3.936-5.126
		c0-3.443,2.408-5.307,6.239-5.307c1.244,0,2.227,0.103,2.744,0.207h2.848v4.945h-2.693l-0.362-2.382
		c-0.544-0.207-1.269-0.362-2.381-0.362c-1.917,0-2.978,0.776-2.978,2.33c0,1.89,1.889,2.304,4.065,2.874
		c3.261,0.854,4.917,1.993,4.917,5.229c0,3.701-2.355,5.694-6.756,5.694C57.282,35.208,56.324,35.105,55.651,35.003z"/>
	<path fill="#FFFFFF" d="M66.355,28.245c0-4.375,2.821-7.042,7.223-7.042c2.201,0,3.676,0.312,4.583,0.7v3.107h-2.278
		c-0.466-0.932-1.061-1.398-2.382-1.398c-2.046,0-3.288,1.449-3.288,4.659c0,3.236,1.062,4.557,3.263,4.557
		c1.682,0,2.355-0.75,2.899-1.45h1.838v2.666c-1.01,0.569-2.511,1.14-4.815,1.14C68.686,35.183,66.355,32.596,66.355,28.245z"/>
	<path fill="#FFFFFF" d="M79.437,32.853h0.905c0.311,0,0.647-0.361,0.647-0.648v-7.817c0-0.285-0.336-0.699-0.647-0.699h-1.008
		v-2.278h4.633c0.439,0,0.725,0.389,0.775,1.967c0.907-1.114,1.968-2.097,3.755-2.097c0.285,0,0.569,0.051,0.829,0.129v2.796h-0.648
		c-1.967,0-3.158,0.414-3.909,0.828v7.817h1.89v2.151h-7.222V32.853z"/>
	<path fill="#FFFFFF" d="M89.711,28.271c0-4.375,3.185-7.068,7.145-7.068c3.961,0,7.146,2.693,7.146,7.068
		c0,4.351-3.185,6.913-7.146,6.913C92.896,35.183,89.711,32.621,89.711,28.271z M100.17,28.297c0-3.081-1.424-4.608-3.314-4.608
		c-1.89,0-3.313,1.528-3.313,4.608c0,3.054,1.423,4.504,3.313,4.504C98.747,32.802,100.17,31.352,100.17,28.297z"/>
	<path fill="#FFFFFF" d="M104.399,32.853h1.009c0.311,0,0.648-0.361,0.648-0.648V19.806c0-0.286-0.337-0.7-0.648-0.7h-1.087V16.88
		h4.867c0.441,0,0.648,0.31,0.648,0.88v14.444c0,0.312,0.362,0.648,0.646,0.648h1.062v2.151h-7.145V32.853z"/>
	<path fill="#FFFFFF" d="M112.306,32.853h1.01c0.311,0,0.648-0.361,0.648-0.648V19.806c0-0.286-0.337-0.7-0.648-0.7h-1.087V16.88
		h4.868c0.439,0,0.646,0.31,0.646,0.88v14.444c0,0.312,0.363,0.648,0.647,0.648h1.062v2.151h-7.146V32.853z"/>
	<path fill="#FFFFFF" d="M121.31,39.196v-1.994c1.449-0.44,2.744-1.217,3.676-2.382l-4.479-10.406
		c-0.181-0.441-0.44-0.725-0.802-0.725h-0.493v-2.278h6.577v2.278h-1.787l2.926,7.015l2.174-5.307
		c0.389-0.983,0.519-1.708-0.621-1.708h-0.414v-2.278h5.98v2.278h-0.569c-0.362,0-0.726,0.31-0.932,0.803l-4.454,10.019
		c-1.061,2.329-2.407,3.857-3.701,4.686H121.31z"/>
	<path fill="#FFFFFF" d="M134.823,21.411h1.605v-3.625h3.78v3.625h2.743v2.278h-2.743v7.455c0,1.452,0.517,1.709,1.915,1.709h0.932
		v2.019c-0.569,0.183-1.371,0.337-2.434,0.337c-2.615,0-4.193-0.828-4.193-3.649v-7.87h-1.605V21.411z"/>
	<path fill="#FFFFFF" d="M147.151,28.918c0.155,2.692,1.346,3.934,3.52,3.934c1.684,0,2.278-0.595,2.979-1.476h2.148v2.486
		c-1.114,0.673-2.59,1.32-5.437,1.32c-4.712,0-7.067-2.641-7.067-6.913c0-4.375,2.719-7.068,6.809-7.068
		c4.064,0,6.187,2.073,6.187,6.679c0,0.467-0.051,0.907-0.051,1.037H147.151z M147.202,26.77h5.308
		c-0.13-2.382-0.854-3.313-2.407-3.313C148.522,23.456,147.487,24.439,147.202,26.77z"/>
	<path fill="#FFFFFF" d="M156.99,32.853H158c0.311,0,0.647-0.361,0.647-0.648V19.806c0-0.286-0.337-0.7-0.647-0.7h-1.087V16.88
		h4.867c0.44,0,0.646,0.31,0.646,0.88v14.444c0,0.312,0.363,0.648,0.647,0.648h1.062v2.151h-7.146V32.853z"/>
	<path fill="#FFFFFF" d="M164.897,32.853h1.009c0.311,0,0.647-0.361,0.647-0.648V19.806c0-0.286-0.337-0.7-0.647-0.7h-1.087V16.88
		h4.866c0.44,0,0.647,0.31,0.647,0.88v14.444c0,0.312,0.363,0.648,0.647,0.648h1.062v2.151h-7.145V32.853z"/>
	<path fill="#FFFFFF" d="M172.801,32.853h0.984c0.311,0,0.621-0.361,0.621-0.648v-7.817c0-0.285-0.311-0.699-0.621-0.699h-1.087
		v-2.278h4.893c0.413,0,0.621,0.414,0.621,1.449v9.344c0,0.312,0.337,0.648,0.646,0.648h0.984v2.151h-7.042V32.853z M174.226,18.356
		c0-1.113,0.905-2.019,2.044-2.019c1.14,0,2.046,0.905,2.046,2.019c0,1.114-0.906,1.994-2.046,1.994
		C175.131,20.35,174.226,19.47,174.226,18.356z"/>
	<path fill="#FFFFFF" d="M180.579,32.853h0.906c0.311,0,0.646-0.361,0.646-0.648v-7.817c0-0.285-0.335-0.699-0.646-0.699h-1.011
		v-2.278h4.635c0.439,0,0.699,0.362,0.776,1.76c1.269-1.19,3.003-1.968,5.048-1.968c1.89,0,3.521,0.752,3.521,3.392v7.61
		c0,0.312,0.337,0.648,0.648,0.648h0.724v2.151h-6.705v-2.151h1.553V25.89c0-1.347-0.517-1.734-1.786-1.734
		c-1.088,0-2.098,0.232-2.978,0.517v8.181h1.581v2.151h-6.913V32.853z"/>
	<path fill="#FFFFFF" d="M196.205,36.4c0-1.554,1.217-2.382,2.381-2.847c-0.646-0.338-1.112-1.089-1.112-1.968
		c0-1.14,0.673-2.02,1.579-2.614c-1.14-0.751-1.786-1.891-1.786-3.34c0-2.667,2.201-4.428,5.487-4.428
		c0.647,0,1.27,0.079,1.839,0.208h4.763v2.278h-0.802c-0.232,0-0.569,0.233-0.569,0.466c0.154,0.439,0.258,0.958,0.258,1.476
		c0,2.64-2.2,4.271-5.488,4.271c-0.932,0-1.76-0.128-2.484-0.362c-0.077,0.285-0.104,0.648-0.104,0.88
		c0,0.596,0.388,0.828,1.14,0.828h3.78c2.899,0,4.271,1.062,4.271,3.393c0,2.873-2.019,4.892-7.326,4.892
		C197.834,39.532,196.205,38.264,196.205,36.4z M205.914,35.519c0-0.775-0.468-1.19-1.813-1.19h-4.607
		c-0.13,0.388-0.155,0.777-0.155,1.19c0,1.166,0.775,1.788,2.848,1.788C204.695,37.307,205.914,36.634,205.914,35.519z
		 M204.877,25.631c0-1.553-0.854-2.33-2.124-2.33c-1.269,0-2.123,0.777-2.123,2.33c0,1.528,0.854,2.33,2.123,2.33
		C204.023,27.961,204.877,27.159,204.877,25.631z"/>
</g>
</svg>
