<?xml version="1.0" encoding="utf-8"?>
<!-- Generator: Adobe Illustrator 16.2.0, SVG Export Plug-In . SVG Version: 6.00 Build 0)  -->
<!DOCTYPE svg PUBLIC "-//W3C//DTD SVG 1.1//EN" "http://www.w3.org/Graphics/SVG/1.1/DTD/svg11.dtd">
<svg version="1.1" id="Layer_1" xmlns="http://www.w3.org/2000/svg" xmlns:xlink="http://www.w3.org/1999/xlink" x="0px" y="0px"
	 width="131.395px" height="69.211px" viewBox="0 0 131.395 69.211" enable-background="new 0 0 131.395 69.211"
	 xml:space="preserve">
<g>
	<path fill="#FFFFFF" d="M58.885,34.83c0,14.176-11.505,25.613-25.613,25.613c-14.176,0-25.613-11.438-25.613-25.613
		c0-14.176,11.437-25.613,25.613-25.613C47.379,9.217,58.885,20.654,58.885,34.83z M41.353,30.995H35.6V27.16
		c0-1.507,0.274-2.534,2.192-2.534h3.355l0.206-4.863c0,0-1.712-0.274-3.835-0.274c-5.411,0-7.67,3.424-7.67,7.054v4.452h-3.835
		v5.136h3.835v14.107H35.6V36.131h5.342L41.353,30.995z"/>
	<path fill="#FFFFFF" d="M123.468,34.83c0,14.176-11.506,25.613-25.613,25.613c-14.177,0-25.613-11.438-25.613-25.613
		c0-14.108,11.437-25.613,25.613-25.613C111.962,9.217,123.468,20.722,123.468,34.83z M113.196,25.311
		c-1.164,0.479-2.329,0.891-3.63,1.027c1.301-0.822,2.329-2.055,2.74-3.493c-1.165,0.685-2.534,1.233-3.973,1.507
		c-1.163-1.165-2.807-1.986-4.588-1.986c-3.493,0-6.301,2.808-6.301,6.301c0,0.479,0,1.027,0.137,1.438
		c-5.204-0.274-9.861-2.671-13.012-6.438c-0.479,0.89-0.821,1.849-0.821,3.013c0,2.191,1.096,4.109,2.807,5.273
		c-1.027-0.069-2.054-0.342-2.876-0.822c0,0.068,0,0.068,0,0.068c0,3.082,2.192,5.616,5.069,6.232
		c-0.548,0.137-1.096,0.206-1.644,0.206c-0.411,0-0.822-0.068-1.165-0.137c0.753,2.534,3.082,4.383,5.822,4.383
		c-2.123,1.711-4.863,3.013-7.808,3.013c-0.479,0-0.958-0.068-1.507-0.137c2.809,1.781,6.164,2.602,9.725,2.602
		c11.574,0,17.875-9.657,17.875-17.943c0-0.273,0-0.548,0-0.822C111.21,27.708,112.374,26.612,113.196,25.311z"/>
</g>
</svg>
