<svg xmlns="http://www.w3.org/2000/svg" xmlns:xlink="http://www.w3.org/1999/xlink" width="121" height="43" viewBox="0 0 121 43"><defs><path id="a" d="M79.336 21.79v21.15H.15V.643h79.186V21.79z"/></defs><g fill="none" fill-rule="evenodd"><path fill="#797A76" d="M35.496 42.14V1.674H24.743v11.042c0 3.296.058 8.672.347 10.464-.867-1.677-4.452-7.054-6.3-9.54L9.885 1.673H0V42.14h10.753V29.77c0-3.295-.058-8.672-.346-10.464 1.04 1.792 4.508 6.995 6.3 9.48l9.654 13.355h9.136"/><g transform="translate(41)"><mask id="b" fill="#fff"><use xlink:href="#a"/></mask><path fill="#797A76" d="M79.336 29.71c0-7.57-4.51-10.693-14.685-13.12-5.202-1.215-6.646-1.91-6.646-3.413 0-1.445.81-2.486 4.163-2.486 4.103 0 7.687 1.39 11.273 3.817l5.434-8.787c-4.28-3.006-9.25-4.682-16.13-4.682-9.77 0-15.956 5.145-15.956 12.775 0 8.094 4.683 10.753 14.453 13.008 5.434 1.274 6.88 2.198 6.88 3.7 0 1.91-1.272 2.602-5.26 2.602-3.758 0-8.903-2.022-11.852-4.046l-5.433 8.786c4.22 2.775 10.52 4.915 17.052 4.915 9.713 0 16.71-3.816 16.71-13.066" mask="url(#b)"/><path fill="#BD282B" d="M.15 21.82C.15 10.125 9.63.644 21.326.644s21.18 9.48 21.18 21.178S33.023 43 21.326 43 .15 33.518.15 21.82zm10.788 0c0-5.736 4.65-10.388 10.39-10.388 5.737 0 10.39 4.652 10.39 10.39 0 5.737-4.653 10.388-10.39 10.388-5.74 0-10.39-4.65-10.39-10.39z" mask="url(#b)"/></g></g></svg>