<?xml version="1.0" encoding="UTF-8" standalone="no"?>
<!-- Generator: Adobe Illustrator 21.1.0, SVG Export Plug-In . SVG Version: 6.00 Build 0)  -->
<svg id="Laag_1" style="enable-background:new 0 0 263 49.6" xmlns="http://www.w3.org/2000/svg" xml:space="preserve" viewBox="0 0 263 49.6" version="1.1" y="0px" x="0px" xmlns:xlink="http://www.w3.org/1999/xlink">
<style type="text/css">
	.st0{clip-path:url(#SVGID_2_);fill:url(#SVGID_3_);}
	.st1{fill:#D2452A;}
</style>
	<defs>
		<path id="SVGID_1_" d="m126.2 47c0.1-0.1 0.2 0 0.3 0s0.2 0.1 0.3 0c0 0.1-0.1 0.1-0.2 0.1s-0.3-0.1-0.4-0.1m21.4-2.1c0-0.1 0.1-0.1 0.2-0.1 0 0.1-0.1 0.1-0.2 0.1m-25.7-2.5c0.4 0 0.8 0.3 1 0.7-0.5-0.1-0.7-0.4-1-0.7m30-0.1c-0.5 0.5-1.1 1-1.9 1.2 0.6-0.5 1.1-1 1.9-1.2m-17.6-0.6c1.8 0 4.5-0.2 6.1-0.2-0.9 0.4-2.1 0.6-3.4 0.6-0.9 0.1-1.9-0.1-2.7-0.4m-6-0.5c1.2 0 2.2 0.7 3.1 1.2-1.3-0.1-2.3-0.7-3.1-1.2m-2.7-1.5c0.7 0.1 1.4 0.2 1.8 0.7-0.7 0-1.5-0.2-1.8-0.7m10.2-1.8c0.5-0.2 1.3-0.2 2-0.3-0.3 0.2-1 0.3-1.5 0.3h-0.5m-8-0.8c1.8 0.4 4.1 0.7 6.5 0.8 0.1 0.1 0.1 0.3 0.1 0.5h-0.8c-2.2 0.1-4.3-0.6-5.8-1.3m20.8-0.7c-1.8 2.2-5.1 3.8-8.8 4.3 2.8-1.7 6.1-2.7 8.8-4.3m-11.4-0.3c-0.5 0.3-1.2 0.3-2 0.3h-0.1c0.6-0.3 1.4-0.3 2.1-0.3m-11.7-0.5c-0.4-0.2-1-0.8-1.1-1.2 2.6 1.1 5.5 1.9 9.2 1.9 0 0.7 1.5 0.7 2.3 0.6 2.7-0.2 5.2-1.7 7.3-2.4-0.2 0.6-0.9 1.2-1.6 1.5-2 0.8-4.8 1.2-7.7 1.2-3.2 0.1-6.4-0.4-8.4-1.6m-2.5-1.2c1.7 1.8 3.9 3.1 6.6 4-2.8-0.6-5.4-1.7-6.6-4m22-0.4c0-0.1 0.1-0.1 0.1-0.2 0.1 0.1 0.1 0.2-0.1 0.2 0.1 0 0 0 0 0m13.2-0.4c0.1 0.2 0 0.4-0.2 0.4 0-0.1 0.1-0.2 0.2-0.4m-7.6-0.9c-0.4 1.3-1.8 2.2-3 2.9 0.7-1.1 1.9-2.1 3-2.9m-3.2-2.6c-0.1 0.9-0.7 2.1-1.5 2.5 0.2-0.9 1-1.7 1.5-2.5m3.4 0c0.3 0.3-0.1 0.9-0.5 1 0-0.5 0.4-0.7 0.5-1m-18.1-0.6c0.9 0.3 2.3 0.7 3.6 0.5-0.2 0.6-0.8 0.9-1.4 0.9-1 0-2.1-0.6-2.2-1.4m-5.7-0.1c0.8 2 2.2 3.8 4.4 4.3 0.3 0.1 0.8 0 0.8 0.4h-0.5c-2.7 0.1-4.8-2.2-4.7-4.7m3.9-0.1c0.1-0.5 1.1 0.8 1.2 0.9 0.6 0.5 1.4 0.9 1.9 1.5-0.2 0.2-0.4 0.3-0.6 0.3-1.2 0-2.7-1.9-2.5-2.7m27.6-0.7h0.1c0 1.1 0.4 3.1-0.6 3.4 0.1-0.9 0.3-2.4 0.5-3.4m-42.7 0c0.3 0.5 0.5 1.5 0.5 2-0.2-0.6-0.4-1.2-0.5-2m20.6 0.7c0.3-0.4 0.8-0.6 1.3-0.8 0 0.5-0.5 0.8-1 0.8h-0.3m-15.9-1.2c0.2 0.5 0.1 1.5 0 2-0.5-0.2-0.2-1.6 0-2m28.3-0.5c0.3 0.6-0.1 1.5-0.4 1.9-0.1-0.6 0.2-1.5 0.4-1.9m-5.3-0.4c0.2 0.5-0.2 1-0.5 1.3 0-0.5 0.2-1 0.5-1.3m-11.9-0.2c0.2 0.2 0 0.5-0.1 0.7-0.3-0.1-0.1-0.6 0.1-0.7m21.1-0.2c0.5 0.9 0.4 2.7 0.1 3.7 0-1.1-0.5-2.8-0.1-3.7m-12.5-0.2c0 0.5-0.2 0.7-0.4 0.9-0.3-0.2-0.1-0.9 0.4-0.9m-10.6-0.3c0.2 0.7-0.1 2.2-0.1 3.1-0.8-0.7-0.3-2.4 0.1-3.1m-0.7-0.2c0.1 0 0.1 0.1 0.1 0.1-1.3 2.3 0.3 4.8 1.6 6.3-2.4-0.5-4.1-4.7-1.7-6.4m-5.6-0.2c-0.3 1.7-0.7 4.5-0.4 6.3-1.6-1.2-0.2-4.7 0.4-6.3m-4.8-0.3c0.2 0.1 0.2 0.4 0.1 0.6-0.2-0.1-0.2-0.4-0.1-0.6m30-0.4c0.2 0.1 0.2 0.6 0.1 0.9-0.1-0.1-0.2-0.7-0.1-0.9m-31.9 17.5c-1.3-1.4-3.1-3.1-4.1-4.8-2-3.3-3.2-8.2-4-12.6 0-0.1 0-0.2 0.1-0.2 1.4 4.9 2.3 9.9 5.1 13.3 1.4 1.7 2.8 3.4 4.5 4.7 1.7 1.4 3.7 2.3 5.6 3.5-2.8-0.6-5.5-2-7.2-3.9m15-17.7c-0.1 0.5-0.5 0.7-0.8 0.9 0-0.5 0.3-0.9 0.8-0.9m18.7-0.1c0.2 1.3 1.1 3.1 0.2 3.9 0-1.2-0.1-2.7-0.2-3.9m-18.4 3c-0.6-4 6-4.2 6-0.4-0.5 1-2.3 0.8-2.6 1.9-1.3 0-3.2-0.3-3.4-1.5m16.5-3.1c0.1 0 0.2 0.2 0.1 0.2s0-0.2-0.1-0.2m-9.4-0.2c0.9 0 1.5 1.1 0.7 1.5-0.5-0.2-0.6-0.9-0.7-1.5m-1.5 0c0.6 0.3 1.1 1.1 1 1.8-0.4-0.5-0.7-1.2-1-1.8m5-0.8c0.7 0.4 1.1 2.3 0.4 3.1-0.4-0.7-0.2-2.2-0.4-3.1m14.9-0.5c0.9 1.1 1.1 3.5 0.7 5.3-0.4-1.5-0.4-3.6-0.7-5.3m-16.6-0.5c0.3 0 0.5 0.3 0.4 0.6-0.3-0.1-0.4-0.3-0.4-0.6m-16 0.3c-0.1-0.2 0-0.5 0.2-0.5 0.3 0.1 0.1 0.5-0.2 0.5m7-0.5c-0.1 0.5-0.7 0.7-1.2 0.9-0.3-0.7 0.6-1.4 1.2-0.9m1.8-0.3c0.2-0.2 0.9-0.2 1.1 0.1-0.1 0.2-0.3 0.2-0.5 0.2-0.3 0-0.5-0.1-0.6-0.3m-22.7 8.5c-0.5-2.4-1.6-4.4-1.6-7.1 0-1 0-1.7 0.8-1.9 0.4 4.8 1.5 9.2 3.1 12.9 1.4 3.2 4.1 5.3 5.8 7.9-3.5-2.6-6.9-6.4-8.1-11.8m10.8-9.2c-0.5 2.2-1.4 4.3-1.8 6.7-1.1-2 1-5.1 1.8-6.7m17.3 0c0.4-0.1 1 0.1 1.2 0.4h-0.2c-0.4 0.1-0.7-0.2-1-0.4m-27.9-0.3c0 2.1 0.2 4.7 0.7 6.6-0.7-1.6-1.7-4.5-0.7-6.6m1.9-0.3c0.2 0.1 0 0.4 0 0.6-0.3-0.1-0.1-0.5 0-0.6m38.2-0.2c0.7 0.7 1 1.7 1.1 2.9-0.4-0.9-0.9-1.8-1.1-2.9m-14.6-0.5c0.6 0.1 1.2 0.1 1.5 0.4h-0.3c-0.5 0-1.1-0.1-1.2-0.4m0.9-0.4c0.1 0 0.2 0 0.2 0.1-0.2 0.1-0.2 0-0.2-0.1m-2.1-0.6c-1.8 0.6-4.5 0.8-6.4 1.1 1.2-1.2 4.3-1.7 6.4-1.1m-20.1-0.3c-0.3 2.3-0.7 5.5-0.2 8.4-0.9-2.5-1.1-6.3 0.2-8.4m27.4-0.7h0.1c2.5 1.7 5.6 4.4 5.2 8.8-0.1 0.9-0.5 1.5-0.9 2.2 0.5-5.1-1.6-8.6-4.4-11m7.2-1.7c0.6 0.4 0.9 1.2 1.3 1.8-0.5-0.3-1.1-0.9-1.3-1.8m5.7-0.2c1.5 2 2.2 5.1 2.7 7.9-1.3-2.3-1.9-5.3-2.7-7.9m-27.4-0.2c-1.6 1.6-3.3 3.4-4.5 5.5 0.9-2.3 2.1-4.5 4.5-5.5m2.8-0.3c3.9-0.1 7.1 1.5 9.6 3.3 1.4 1 2.9 2.4 3.7 3.7 2.1 3.3 2.3 9.2-1.4 11-4.6 2.2-13.6 2.9-18.2 0.2-2.9-1.7-1.4-7.5-0.2-10.2 1.1-0.4 2.1-1.4 3.4-1.3 0.2 0.4-0.3 0.6-0.2 0.9 0.9 0 1.6-0.9 2.4-1-0.3 1.5-1.7 2.1-2.5 3.3-0.6 1-1.4 2.4-1.4 4 0 1.2 1 2.7 1.6 3.3 0.5 0.6 1.7 1.3 2.6 1.5 1.5 0.4 2.7-0.2 4.1-0.2 1.7 0 3.2-0.2 4.5-0.9 3.4-1.9 6.5-6.5 3.9-10.7-0.2-0.3-0.6-0.4-0.9-0.7-0.7-0.7-0.7-1.9-1.5-2.4-3-2.4-10-4.2-12.8-0.8 0.5 0.3 0.8-0.3 1.1-0.5 2.9-1.6 8.3-1 10.2 1-3.2-0.9-9.2-1.8-10.9 1.2-1.1 0.1-2 0.7-2.7 1.1 1-2.7 3-4.5 5.6-5.8m2.9-0.3c0-0.1 0.2-0.2 0.4-0.2 6.1 0.9 11.6 5 12 11.5-1.5-6.4-6.3-9.5-12.4-11.3m20.1-0.6c0.6 0.5 0.8 1.5 1.1 2.2-0.7-0.3-1-1.2-1.1-2.2m-6.8-1c0.3-0.1 0.4 0.3 0.5 0.5-0.3-0.1-0.3-0.4-0.5-0.5m-9.5-0.2c5.4 0.8 9.6 3.3 11.1 8-2.6-3.6-6.3-6.5-11.1-8m7.6 0c1.1 0.6 2 1.7 2.7 3-1.1-0.8-1.8-1.9-2.7-3m-5.2-0.1c0.1 0 0.2 0 0.2 0.2-0.1-0.1-0.2-0.1-0.2-0.2m-0.1 0c-3-0.8-7.2-0.4-10 0.2 2.2-2 7.4-1.6 10-0.2m-7-2.7c6.3 0 10.1 2.5 13.2 5.7-3-2.3-6.4-4.3-11.2-4.7-4.2-0.4-6.5 2.6-9.4 3.7 1.4-2.5 4-4.1 7.4-4.7m-2.9-2.1c4.9-1 9 1.8 11.8 3.7-2.6-1.2-5.8-2.7-9.7-2-4.5 0.8-6.6 4-9 6.9-1.7 2.1-3.1 4.5-4.2 7.2-1.7-8.7 4.9-13.3 11.1-15.8m4.4-0.5c3.8 0.5 6.9 2.1 9 4.4-2.6-1.5-5.6-3.4-9-4.4m11.2-2.6c0.9 0.2 1.6 0.7 2 1.4-0.8-0.4-1.6-0.7-2-1.4m-21.8-0.7c2.5-1.3 5.5-2.6 9.3-2.5-4.1 0.3-6.8 2.2-9.7 3.5-0.2-0.5 0.3-0.6 0.4-1m13.9-2.7c0.8 0.1 1.4 0.3 2 0.6h-0.1c-0.8 0-1.3-0.4-1.9-0.6m-8.4 0c0.4-0.1 0.8-0.3 1.3-0.2-0.3 0.1-0.8 0.2-1.3 0.2 0.1 0 0 0 0 0m3.5-0.4c0.3-0.1 1-0.2 1.1 0.1h-0.5-0.2c-0.1-0.1-0.2-0.1-0.4-0.1m0.9-0.7h-0.1-0.7c-4.6 0.1-7.5 2-10.4 3.9s-5.4 4.1-7.9 6.4c-2.2 4.1-4.6 8-6.6 12.2 0 0.1 0.1 0.4 0 0.4v0.8c0.9 4.3 1.5 8.4 3.2 11.6 1.6 3 4.1 6 6.8 8 3.6 2.6 9.2 3.7 15.1 3.7h0.1c3.3 0 6.6-0.3 9.7-0.9 1.1-0.2 2.3-0.6 3.5-0.9 6.9-1.6 10.1-8 13.6-13.1v-0.4c-0.7 0.2-0.7 1.1-1.3 1.4-0.4-0.8 0.2-1.6 0.2-2.5 0.1-2.7-0.2-5.2-0.4-7.6-0.1-1.3-0.6-2.5-0.9-3.8-0.3-1.4-1.1-3.2-1.8-4.3-1.2-1.8-2.8-3.8-4.4-5.5-1.6-1.5-2.9-4-4.9-5.1-1-0.5-2.1-0.8-3.1-1.3-2.5-1.4-5.8-3-9.7-3z"/>
	</defs>
	<clipPath id="SVGID_2_">
		<use xlink:href="#SVGID_1_"/>
	</clipPath>
		<linearGradient id="SVGID_3_" y2="48.701" gradientUnits="userSpaceOnUse" x2="2.75" gradientTransform="matrix(52.05 0 0 -52.05 17.003 2559.6)" y1="48.701" x1="1.75">
		<stop stop-color="#FFD602" offset="0"/>
		<stop stop-color="#FFD217" offset=".2056"/>
		<stop stop-color="#FFD024" offset=".31"/>
		<stop stop-color="#F5E958" offset="1"/>
	</linearGradient>
	<rect y="1.3" x="108.1" height="46.9" class="st0" width="52"/>
	<path class="st1" d="m136.8 9.9c-2.7-0.4-5.6 0-8.3 0.1-0.1 0-0.1 0.1-0.2 0.2 0.2 0.2 0.5 0.1 0.7 0.1s0.4-0.1 0.6 0c-0.3 0.5-1 0.6-1.5 0.9-1.5 1-2.8 2.2-4.1 3.3-0.7 0.6-1.1 1.4-1.7 2-0.7 0.7-1.3 1.9-1.6 2.7-0.5 1.4-0.9 3.1-1.1 4.6s-1 3.2-0.7 4.7c0.1 0.7 0.5 1.4 0.6 2.2 0.3 2 0.9 4.5 2.6 6.6 0.1 0.1 0.2 0.2 0.3 0.4 2 2.4 4.4 3.2 6.7 4s4.6 1.3 7 1.6c3.2-0.5 6.4-0.8 9.7-1.5 0.1 0 0.2-0.2 0.2-0.1 0.1-0.1 0.3-0.2 0.4-0.3 2-2.2 4.1-4.2 5.1-6.5 1-2.1 1.6-4.7 1.5-7-0.1-4.7-4.5-10.6-9.2-14.6-0.6-0.5-1.4-1-2-1.5-1.6-1-3.2-1.6-5-1.9zm0.3 0.8c0.5 0.1 1 0.2 1.5 0.5-0.5 0-1-0.1-1.5-0.5m3.2 1.2c0.1-0.1 0.1 0 0.1 0 0.1 0.1 0 0.1-0.1 0 0.1 0.1 0.1 0.1 0 0m-10.4-1.1c-0.1 0.1-0.2 0-0.3 0.1 0-0.1 0.2-0.2 0.3-0.1m-3.3 1.9c0.6-0.4 1.5-1.5 2.1-1.1-0.5 0.4-1.4 0.9-2.1 1.1v0m0.3 0.3c-0.7 0.9-1.9 1.7-2.7 2.6 0.2-1 1.5-2.1 2.7-2.6m8.4 2c2 0.1 4.3 1.2 6.2 3-2.2-0.9-4.2-2.2-6.2-3m-3 0.4c0.9-0.3 2 0.1 2.9 0.5-0.4 0-0.7 0-1.1-0.1-0.6-0.1-1.2-0.3-1.8-0.4m-2.2-0.3c-0.6 0.4-1.3 1.4-2 1.6 0.3-0.6 1.4-1.3 2-1.6m11.5 2.1c1.1 0.5 2.4 2.1 2.7 3.2-0.7-0.9-1.9-2.3-2.7-3.2m-17.3-2.5c-0.7 1.6-2.1 3.1-3.2 4.7 0.5-1.6 1.9-3.2 3.2-4.7m7.2 1.5c-0.2 0.2-0.5 0.1-0.7 0.2 0-0.3 0.5-0.4 0.7-0.2m4 1.7s-0.1 0 0 0h-0.1c-0.1-0.1 0.1-0.1 0.1 0m-5.3-0.8c-0.7 0.5-1.4 1.1-2.1 1.7 0.6-0.6 1.3-1.9 2.1-1.7m4.1 0.9c-0.5 0.3-1.4 0.2-2 0.2 0.5-0.3 1.4-0.5 2-0.2m7.4 5.1c0.4-0.3-0.3-1.1-0.7-1.5-1.3-1.4-3.2-2.1-4.5-2.9 0.4-0.1 1 0 1.5 0.3 2.8 1.6 6.3 6 6.7 8.8 0 0.3 0 0.9-0.2 1.1-0.3-1.9-1.2-3.8-2.8-5.8m-10.2-5.2c-0.3 0.3-0.9 0.5-1.2 0.6 0.2-0.4 0.8-0.6 1.2-0.6m-0.1 15c-1.7-2.1-2.3-4.4-2.3-6.5 0-1.2 0.1-2.6 0.5-3.5 0.9-2.5 4.1-5 6.7-3.8 3.2 1.6 7.4 6.1 7.9 9.7 0.3 2.3-3.6 3.8-5.6 4.3-0.7-0.4-1.7-0.6-2.2-1.3 0.1-0.3 0.5-0.1 0.6-0.3-0.4-0.5-1.2-0.5-1.6-0.9 1-0.5 1.9 0.1 2.9 0 0.8-0.1 1.9-0.3 2.8-0.9 0.7-0.5 1.1-1.7 1.2-2.3 0.1-0.5 0-1.5-0.3-2-0.4-1-1.3-1.4-1.9-2.1-0.7-0.9-1.5-1.6-2.4-2-2.5-1.1-6.4-0.8-7.6 2.3-0.1 0.2 0 0.5 0 0.8-0.1 0.6-0.7 1.2-0.7 1.8-0.1 2.6 1.9 7.1 5.1 7.2-0.1-0.4-0.5-0.3-0.8-0.4-2.1-0.9-4.1-4.1-3.8-5.9 0.9 2.1 3 5.7 5.4 5.4 0.6 0.5 1.3 0.8 1.8 1-1.1 0.3-2.1 0.3-3.1 0.2-0.9-0.1-1.7-0.4-2.6-0.8m-3.7-7.4c-0.1-2.1 0-4.8 2.7-6.5 0.5-0.3 1.1-0.4 1.6-0.4-3.1 1.9-4.1 4.5-4.3 6.9m12.9-5.2c0.3 0.1 0.8 0.6 1 0.9-0.3-0.1-0.6-0.5-1-0.9m-14-2.1c-0.3 0.6-0.6 1.2-1.1 1.8 0-0.7 0.4-1.2 1.1-1.8m24 4.1c0.2-0.1 0.2 0.2 0.2 0.3-0.1 0 0-0.2-0.2-0.3m-21.1-3.1c0 0.2-0.2 0.4-0.4 0.4-0.1-0.2 0.2-0.3 0.4-0.4m16.5 2.6c0.5 0.7 0.7 1.5 0.7 2.2-0.5-0.7-0.6-1.5-0.7-2.2m-6-0.6c0.4 0.1 0.7 0.5 1.1 1-0.4-0.2-0.8-0.6-1.1-1m2.3 0.9c0-0.1 0.1-0.2 0.3-0.3 1.1 1.2 1.8 2.8 2.1 4.1-0.6-1.2-1.4-2.5-2.4-3.8m-13.3-2.4c0 0.1-0.1 0.1-0.1 0.1-0.1 0 0-0.1 0.1-0.1m0.7 11.6c-2.1-3.7-2.2-8.3 1.2-11.2-2.9 3.4-2.6 7.3-0.9 11.3h-0.1c-0.1 0-0.1-0.1-0.2-0.1m-7.9-12c0.1 0.5-0.3 1-0.8 1.5 0.1-0.5 0.5-1 0.8-1.5m11.5 1.9c-0.2 0.2-0.6 0.3-0.9 0.3 0.1-0.3 0.6-0.3 0.9-0.3m-6.3-0.3c-0.8 2.9-0.9 6 0.3 9.2-1.8-3.2-2.3-6.5-0.3-9.2m5.4 1c-0.2 0.5-1.1 1.1-1.5 1.5-0.1-0.5 0.7-1.5 1.5-1.5m-8.3-1c0.1 0.4 0 1-0.5 1.4 0-0.4 0.3-0.9 0.5-1.4m20.5 3.5c0.9 1.7 1.4 3.6 0.6 5.2 0.2-1.7 0.1-3.4-0.6-5.2m2.1 0.4c0.3 0.4 0.5 0.9 0.4 1.2-0.3-0.4-0.5-0.9-0.4-1.2m-13.3-1.3c0.3-0.2 0.5-0.2 0.7-0.2 0 0.2-0.3 0.3-0.5 0.3-0.1 0-0.1 0-0.2-0.1m16.7 2.6c0.1 0.3 0 0.5 0 0.8-0.1-0.2-0.1-0.6 0-0.8m-8.9-0.8c-0.1-0.2-0.3-0.4-0.1-0.6 1.4 1.5 1.1 3.7-0.4 4.8 0.8-1.3 1.2-2.8 0.5-4.2m-4.2-1.1c1.2-0.4 1.9 1.5 1.3 2.2-0.2-0.6-0.6-1.6-1.3-2.2m-1.4-0.1c0.4-0.2 0.8 0 1 0.4h-0.1c-0.3-0.1-0.6-0.2-0.9-0.4m3.3 2.3c0-0.5-0.1-1.1 0-1.6 1.1 0.1 0.6 2.4 0 2.7h-0.1c-0.1-0.1 0.1-1 0.1-1.1m-5.5-2.4c0 0.4-0.3 0.7-0.6 1-0.3-0.5 0-1.3 0.6-1m1.5 0.3c0.4-0.1 0.7 0.1 1 0.3 0.4 0.2 0.8 0.4 1.1 0.3 0.6 0.7 1.2 1.9 0.6 2.5-0.5 0.5-1.1 0.7-1.6 0.6-1.4-0.3-2.6-2.5-1.1-3.7m-0.9 0.2c-0.1 0.4-0.4 0.9-0.6 1.3-0.1-0.5 0.2-1 0.6-1.3m-2.8-0.2c0.1 0.2 0 0.3-0.1 0.5-0.2-0.2-0.1-0.4 0.1-0.5m-6.6-1c0 0.9-0.3 1.8-0.5 2.7-0.2-0.9 0.1-1.8 0.5-2.7m13.4 6.5v-0.1c1.8-0.2 2.5-2.2 2.8-3.5 0.8 1.5-0.6 3.9-2.5 3.6h-0.3m5.8 11.8c2.5-2.2 4.5-4.6 5.9-7 1.2-2.1 1.2-4.4 1.9-6.4 0 3.1-0.7 6.5-3.1 9.3-1.1 1.3-1.8 2.7-3.2 3.8-0.4 0.3-0.7 0.5-1.1 0.5-0.2 0-0.3-0.1-0.4-0.2m-16-7.8c-2.8-3.4-3-6.5-2.5-9.4 0 2.6 0.4 5.2 2.2 8 1.6 2.4 4.3 2.4 6.1 3.5-0.5 0.1-1.1 0-1.6 0-1.4-0.2-2.9-1-4.2-2.1m3.1-8.4c0.3 0.2 0.3 0.6 0.3 0.8-0.3-0.2-0.5-0.6-0.3-0.8m-7.5-0.9c0.1 0.2-0.1 0.3-0.1 0.5-0.1-0.2 0-0.4 0.1-0.5m14 3.5c0-0.2 0.3-0.2 0.4-0.2 0 0.1-0.2 0.2-0.4 0.2m2.2 0.1c0 0.7-1.2 1.1-1.8 1.2 0.3-0.3 1.3-0.8 1.8-1.2m-8.6-1c0.2 0.3 0.6 0.7 0.4 1-0.1-0.4-0.4-0.7-0.4-1m-0.1 0.5c0.1 0.1 0.1 0.1 0 0.1s-0.1-0.1 0-0.1m2.5 0.6c0.2-0.1 0.6 0.5 0.4 0.6-0.2 0-0.5-0.4-0.4-0.6m2.8 0.6c0.3-0.1 0.6 0 0.9 0.1-0.2 0.1-0.3 0.2-0.5 0.1-0.1 0-0.3-0.1-0.4-0.2m7.9 1.7c0 1.4-2.6 2-3.7 2.4 1.1-0.5 2.8-1.4 3.7-2.4m-19.8-3.1c0.3 2 0.5 4.4 1.4 6.6-1.3-2.2-1.8-4.5-1.4-6.6m10.5 2.3c0.3-0.1 0.7 0.1 1 0.3-0.1 0.2-0.3 0.2-0.5 0.2s-0.5-0.2-0.5-0.5m-3.4-0.6c1.1 0.7 2.4 2.1 3.3 3-1.1-0.2-2.7-1.6-3.3-3m-12.1-1.7c0.2 0.6 0.3 1.1 0.1 1.7-0.2-0.6-0.2-1.1-0.1-1.7m8.6 8.8c-2.7-2.2-2.8-5.6-3-7.9 0.4 1.9 1 4.3 3.1 6 2.4 2.1 5.1 1.9 7.7 2 1.9 0 3.8-0.2 5.8-0.7-2.3 2.6-5.1 3.1-7.8 2.7-2.1-0.2-4.1-1.1-5.8-2.1m-1.6-7.5c0 0.1 0.1 0.1 0 0.2-0.1-0.1-0.1-0.1 0-0.2m0 0.3c0.8 1.9 2.9 4 4.4 5.3-2-0.4-4.1-3.4-4.4-5.3m17.6 3.6c0.1 0.4-0.8 0.8-1.1 0.9 0.2-0.4 0.7-0.7 1.1-0.9m-0.8 1.2c-0.6 1.5-3.2 1.6-4.5 1.8 1.4-0.7 3-1.1 4.5-1.8m-5.4-0.5c0-0.2 0.3-0.3 0.4-0.1-0.1 0.1-0.2 0.2-0.3 0.1 0 0.1 0 0.1-0.1 0m8.2 1.4c-0.2 0.4-0.5 0.8-0.9 1.1 0.2-0.3 0.6-0.9 0.9-1.1m-13.1-0.4c1.6 0.2 3.3 0.4 5 0.2-1.1 0.3-2.3 0.5-3.5 0.3-0.5-0.1-1-0.3-1.5-0.5m9.7 1.1c0 0.1-0.2 0.2-0.3 0.3 0-0.2 0.2-0.3 0.3-0.3m2.2 1.4c-1 1.4-3 3.1-4.8 3.3 1.4-0.8 3.4-1.9 4.8-3.3m-24.3-3.3c0.4 0.4 0.4 0.9 0.5 1.3-0.3-0.5-0.4-0.9-0.5-1.3m22.6 7.8c1.2-0.8 2.6-2 3.4-3.1-0.6 1.1-1.8 2.9-3.4 3.1v0m-20.6-4.4c0.2 0.3 0.4 0.4 0.4 0.7-0.2-0.1-0.5-0.5-0.4-0.7m0.7 0.3c1.9 2 4.2 2.7 6.1 3.8-0.2 0.3-0.5 0.1-0.8 0.2-1.8-0.9-3.8-2-5.3-4m19.3 3.1c0 0.2-0.2 0.2-0.3 0.2-0.1-0.2 0.2-0.2 0.3-0.2m-18.5-1.6c0.2 0.1 0.5 0.4 0.7 0.6-0.3-0.2-0.6-0.3-0.7-0.6"/>
	<path d="m59.1 40.3c0-0.2-0.1-0.3-0.1-0.5 0.1 0.1 0.3 0.5 0.1 0.5m0.1 1.2c0.2-0.1 0.2 0 0.2 0.3-0.2 0.1-0.3 0-0.2-0.3m0.8 2.5c0.1-0.1 0.7 0.8 0.8 0.9-0.4 0.3-0.7-0.5-0.8-0.9m5.6 3c0-0.1 1 0.1 1.1 0.2 0 0.2-1-0.1-1.1-0.2m1.7 0.3c0-0.2 0.4 0 0.5 0 0 0.1-0.4 0-0.5 0m7.6-9.8c0.1-0.1 0.3 0.3 0.4 0.4-0.1 0.1-0.3-0.3-0.4-0.4m-4.2 0.3c-0.2 0.2-1.7-0.4-1.9-0.4-0.6-0.1-1.6-0.3-2-0.7 1.1 0.1 3.2 0.3 3.9 1.1m-4-4.1c-1.2 0-2.3-1.6-2.6-2.6 0.6 1.1 1.5 2 2.6 2.6m-1.9 2c0-0.1 0.8 0.2 0.9 0.2-0.1 0.2-0.7-0.2-0.9-0.2m-1.1-5.6c-0.2-0.2-0.4-0.8-0.2-1 0.1 0.4 0.2 0.7 0.2 1m-0.2 5.2c-0.1 0.1-0.3-0.2-0.4-0.2 0-0.1 0.3 0.2 0.4 0.2m3.3-7.8c0.2-0.3 1-0.1 1.3 0-0.5 0.2-0.9 0-1.3 0m2.6 0c0.1-0.1 0.4 0.1 0.5 0.1-0.1 0.1-0.4-0.1-0.5-0.1m2.2-1.7c0.5 0.1 1.6 0.6 1.8 1.1-0.6-0.2-1.2-0.7-1.8-1.1m3.2 4.4c0.2-0.1 0.3 0.5 0.4 0.6-0.3 0.1-0.4-0.4-0.4-0.6m0.5-0.5c0.2 0.2 0.5 0.7 0.2 1-0.1-0.4-0.1-0.7-0.2-1m-13.8 3.8c-0.2 0.1-0.3-0.4-0.4-0.6 0.1 0 0.3 0.5 0.4 0.6m-0.7-5.7c-0.2 0.4-0.2 0.9-0.5 1.3-0.1-0.3 0.2-1.1 0.5-1.3m-0.4 1.5c0.1 0.2 0.3 0.6-0.1 0.7 0-0.1-0.1-0.6 0.1-0.7m-0.3 0.6c-0.2-0.1-0.2-0.2 0-0.4v0.4zm-1.3 11.5c0.2 0.4 0.7 1.1 0.4 1.3 0.9 1.5 1.2 2.8 2.9 3.4 1.5 0.5 3.3 1.2 4.9 1.3 1.7 0.1 3.3-0.1 4.9-0.8 1.1-0.5 2.5-1.1 3.3-2.1-0.2 0-0.4 0.1-0.7 0.2-0.1-0.3 1-1.5 1.2-1.8 0.5-0.7 0.8-1.4 0.8-2.2 0.1-1.4-0.4-2.6-1.4-3.5-2.3-2.2-5.6-2.1-8.3-3.6-1.3-0.8-2.4-1.9-2.9-3.4-0.3-0.8-0.4-1.3 0.4-1.6 0.7-0.3 1.5-0.5 2.3-0.6 1.7-0.2 3.4-0.2 4.6 1.1 0.5 0.5 0.8 1.1 1.2 1.7 0.3 0.6 0.5 1.4 1.2 1.6 0.1-0.3 0-0.9 0.2-1.2 0.2 0.2 0.5 0 0.8 0.1 0.1 0 0.3 0.2 0.4 0.2 0.4 0 0.1-0.1 0.3-0.5 0.1-0.1 0.2 0.1 0.3-0.2 0.4-1-0.4-2.5-1.2-3.2-1.4-1.3-3-2.2-5-2.7-0.5-0.1-0.7 0.1-1.2 0.2s-1-0.1-1.5-0.1c-1.3 0-2.5 0-3.7 0.5-1.1 0.5-1.8 1.2-2.5 2.2-0.4 0.5-0.4 0.8-0.6 1.3 0 0.1-0.2 0.4-0.2 0.5-0.1 0.1-0.1 0.2-0.1 0.3 0 0.2 0.1 0.2 0.2 0.2 0.1 0.2 0.1 0.5 0.1 0.8 0.1 0.4 0.2 0.5 0.3 0.9 0.4 1 0.6 1.9 1.4 2.8s1.3 1.3 2.4 1.6c1.2 0.3 2.3 0.8 3.4 1.2 1.1 0.3 2.4 0.4 3.5 0.9 0.8 0.4 1.1 1.3 1.2 2.1 0.2 0.9 0 1.3-0.5 1.9l-0.7 0.7c-0.4 0.3-0.8 0.9-1.2 1.1s-0.6 0-1 0.1c-0.5 0.1-0.7 0.2-1.3 0.2-0.5 0-0.8-0.1-1.2-0.3s-0.8-0.2-1.1-0.3-0.6-0.1-0.8-0.3c-0.5-0.4-0.5-0.8-0.9-1.2-0.2-0.2-0.5-0.5-0.6-0.8-0.2-0.5 0-1.2-0.1-1.8-0.3 0.2 0 1.4-0.2 1.5-0.2-0.4 0-0.8-0.3-1.2-0.1 0.1-0.2 0.3-0.2 0.4-0.2 0-0.4-0.9-0.6-1-0.5-0.3-0.6 0.2-0.6 0.6-0.4-0.3-0.3-0.8-0.8-0.9-0.7-0.1-0.5 0.5-0.5 0.9-0.1 0-0.3-0.5-0.4-0.6-0.3 0.1 0.2 0.5-0.3 0.2 0 0.7 0.4 1.4 0.2 2.2 0-0.3-0.1-0.4-0.2-0.3m-12.6-2.9c0.2 0 0.4 0.3 0.3 0.5-0.1-0.2-0.2-0.4-0.3-0.5m1 1.1c0.8 0.4 1.4 0.7 2.3 0.9-0.7 0.2-2.1-0.2-2.3-0.9m1.4-3.1c-0.1-0.2-0.2-0.5-0.2-0.8 0.5 1 1.3 1.8 2 2.6-0.7 0.1-1.5-1.2-1.8-1.8m-0.5-1.2c-0.1 0-0.1-0.4-0.1-0.5 0.1-0.1 0.2 0.4 0.1 0.5m-0.2-7c-0.2 0.1-0.1-0.9-0.1-1 0 0.1 0.3 1 0.1 1m4.4 9.1c0-0.1 0.1-0.5 0.2-0.5 0 0.2 0 0.6-0.2 0.5m-7.2-10.7c-0.2 1.3 0 2.8 0 4.1 0 1.1 0.3 2.1 0.3 3.1 0 0.6 0 1.1 0.2 1.7s0 1.3 0.2 1.9c0.2 1 0.8 1.9 1.5 2.5 0.9 0.8 2.1 0.7 3.3 0.6 1-0.1 1.9-0.8 2.8-1.2 1-0.5 1.5-1.3 2.1-2.2 0.5-0.7 1.4-2.4 0.8-3.3-0.2 0.2-0.1 0.3-0.1 0.6-0.1-0.1-0.2-0.4-0.4-0.4-0.2 0.7-0.2 1.3-0.5 2-0.1-0.2 0.1-0.7 0.1-0.9 0-0.4 0.1-0.8-0.1-1.1 0 0-0.2-0.1-0.2-0.2-0.2-0.2 0-0.2-0.2-0.3-0.5-0.2-0.5 0.4-0.5 0.7-0.4 0.1-0.5-1.5-1-0.4-0.3 0.7 0 2.2-0.6 2.7-0.1-0.9 0.3-1.8 0.1-2.7-0.2 1.2-0.2 2.4-0.8 3.5-0.6 1-1.2 0.9-2 0.1-0.7-0.7-1.5-1.8-1.6-2.8s0.7-2.6 0.1-3.5c-0.4 0.7 0 1.9-0.3 2.7-0.2-0.4 0-1.3 0-1.8 0-0.4-0.2-0.8-0.2-1.2 0-0.6 0.2-0.5 0.7-0.5h1.7 3.5c0.6 0 1 0 0.3-0.3-0.4-0.2-1-0.2-1.4-0.3 0-0.2 0.9-0.1 1-0.1h0.7c0.1 0 0.1-0.2 0.2-0.2 0.4-0.1 1 0.2 1.4 0 0.1 0 0-0.3 0.1-0.3 0 0 0.3-0.2 0.4-0.2-0.3-0.2-0.5-0.1-0.8-0.2s-0.6-0.4-0.8-0.5c-0.4-0.1-1.1 0-1.5 0l0.3-0.3c-0.2-0.2-1.6 0-1.9 0-0.7 0-1.4 0.1-2.1 0.2-0.3 0-0.5 0.1-0.8 0.1-0.5 0-0.3 0.1-0.5-0.3-0.1-0.3 0.1-1.5-0.6-1.4 0.2 0.2 0.8 1.5 0.3 1.7-0.1-0.4-0.1-0.8-0.2-1.2-0.2-0.4-0.3-0.9-0.5-1.2-0.1 0.2-0.2 0.4-0.2 0.6-0.2-0.4-0.2-0.2-0.5-0.3-0.1 0-0.3 0-0.4-0.1s0-0.3-0.1-0.4c-0.2-0.2-0.4-0.4-0.6-0.1-0.1 0.1 0 0.3 0 0.4-0.1 0.2-0.2 0.1-0.3 0.3-0.1-0.1-0.1-0.3-0.2-0.4-0.3 0.3-0.2 0.5-0.2 0.8m-12.9 11c0.2 0.3 0.5 0.5 0.6 0.9-0.3-0.1-0.6-0.4-0.6-0.9m1 1s2.1 0.8 2.2 1c-0.7 0.3-1.7-0.5-2.2-1m2.4-1.5c-0.5-0.5-1.4-1.2-1.6-2-0.3-0.8-0.2-1.7-0.1-2.5s0.4-1.6 0.9-2.3c0.1-0.1 1.3-1.2 1.4-0.7-0.1 0-0.4 0.1-0.4 0.2 1.5 0.1 2.5 0.4 3.8 1.1 0.5 0.3 1.1 0.5 1.2 1 0.1 0.2-0.1 0.6-0.1 0.9v1.1c0 1.3-0.1 2.5-1.2 3.3s-2.2 0.4-3.5 0c0.1 0.1 0.2 0.1 0.1 0.2-0.2-0.2-0.4-0.2-0.5-0.3m0.3 2.4c0.3 0 0.8-0.1 1.1 0.1-0.3 0.1-1 0.1-1.1-0.1m1.9 0.1c0.4-0.1 0.7-0.2 1.1-0.3-0.1 0.3-0.9 0.4-1.1 0.3m2.8-4.2c0.2-1.1 0-2.4 0.3-3.5 0.5 0.3 0.1 1.4 0.1 1.8-0.1 0.7 0 1.4-0.1 2.1-0.3 0-0.4-0.2-0.3-0.4m0.2-4.2c-1.2-0.8-2.6-1.4-4.1-1.7 0.8-0.4 3.7 0.9 4.1 1.7m-2.6-2.1c0 0.1-0.5 0.1-0.5-0.1 0.2 0 0.3 0 0.5 0.1m5.3 2.3c0.2 0 0.1 0.7 0.1 0.7 0-0.2 0-0.5-0.1-0.7m-12.1 3.3c0.1 0.6-0.1 1 0.1 1.7 0.2 0.5 0.3 1.1 0.6 1.6 0.5 1 1.6 1.5 2.5 1.9 2.6 0.9 4.7-0.3 6.9-1.6v1.1c0.3-0.2 0.1-1.1 0.3-1.1 0.1 0.6-0.2 1.9 0.2 2.4 0.2-0.2 0.2-0.6 0.2-0.9 0.1 0 0.2 0.7 0.2 0.7 0.4-0.2 0.1-1.4 0.3-1.4 0.1 0.9 0.4 0.3 0.4-0.3 0.3 0.3 0.2 0.7 0.4 1 0.2-0.3 0.1-0.6 0.2-0.9 0.1 0.2 0 0.5 0.3 0.7 0.3-0.2 0.2-0.8 0.2-1.1 0.3 0 0 0.5 0.2 0.5-0.2-1.8-0.1-3.7-0.3-5.5l-0.3-2.7c-0.1-0.9-0.1-2.1-0.4-3-0.3 0.1 0 0.4-0.2 0.5-0.2-0.4-1.7-1.5-1.6-0.5 0 0.3 0.5 0.8-0.3 0.9-0.2 0-1.1-0.5-0.9-0.5-0.2-0.3-1.2-0.5-1.5-0.6l-2.1-0.3c-1.1 0-2.4 0.2-3.3 1-0.8 0.7-1.2 1.7-1.5 2.7-0.2 0.6-0.3 1.2-0.4 1.9 0 0.2-0.2 0.6-0.3 0.7 0 0.2 0.1 0.8 0.1 1.1m18.7-24.1c-0.2 0.1-0.3-1.5-0.3-1.6 0.3 0.5 0.2 1 0.3 1.6m-0.3-2.3c-0.3-0.9-0.7-1.5-1.3-2.2 1 0.1 1.3 1.4 1.3 2.2m-2.2 10.1c-0.1 0-0.1-1-0.1-1.2 0.2 0.1 0.1 1.1 0.1 1.2m-0.2-5c-0.1-0.7-0.1-1.5-0.1-2.2 0.2 0.7 0.1 1.5 0.1 2.2m-0.5-4.1c-0.3 0-0.8-0.9-1-1.1-0.4-0.3-0.8-0.6-1.3-0.7-0.4-0.1-2.8 0-2.8 0 0.8-0.4 2.1-0.5 3-0.3 1.1 0.3 1.7 1.2 2.1 2.1m-4.8-4.1c-0.3 0.1-0.6 0.2-0.9 0.2 0.3-0.1 0.6-0.3 0.9-0.2m-3 8.4c-0.2-1-0.1-2.2 0-3.2 0.3 0 0.1 2.9 0 3.2m-0.4 0c-0.1 0 0-0.5 0-0.6v0.6zm-0.4 3c-0.2 0-0.2-0.6-0.2-0.8 0.2 0 0.2 0.7 0.2 0.8m-2.1-5c-0.1-1 0-2 0.1-3 0.1 0.9 0.2 2-0.1 3m0.1 1.3v-0.5c0.2 0 0.1 0.5 0 0.5m-0.7 0.9c0 0.2 0 0.8-0.2 0.7 0.1-0.1 0-0.8 0.2-0.7m-0.3 2c0-0.3 0-0.6 0.1-0.9 0.2 0.2 0.1 0.8-0.1 0.9m-1.2 1c-0.1 0.6-0.5 1.2-1 1.6 0-0.3 0.3-0.4 0.4-0.6 0.3-0.3 0.4-0.6 0.6-1m-1.3-2.8c-0.1 0.2-0.1 1.2-0.5 1.1 0.2-0.6 0.4-1.3 0.5-1.9 0.3 0.1 0.1 0.7 0 0.8m-0.1-0.8c-0.2 0 0.1-1.5 0.1-1.7 0.2 0.6 0.1 1.1-0.1 1.7m-0.1-0.8c-0.2 0.8 0 1.6-0.3 2.3-0.3 0.6-0.7 1.3-1 1.9s-0.7 1-1.3 1.5-1.1 0.6-1.9 0.6c-1.2 0-2.4 0-3.4-0.7-1.2-0.8-1.8-2.5-2.1-3.8s-0.8-3-0.1-4.2c0.3-0.6 0.8-1.2 1.3-1.6 0.7-0.6 1.3-0.6 2.1-0.5 2 0.1 7.5 1.3 6.7 4.5m0-5.3c-0.6-0.4-1.3-0.9-1.9-1.3 0.4 0.1 1.9 0.6 1.9 1.3m-1.9 1.2c-1.4-0.8-3-1.1-4.6-1.3 0.7-0.3 1.8 0 2.5 0.2 0.6 0.2 1.7 0.5 2.1 1.1m-3.3-0.7c0.9 0.2 1.9 0.4 2.8 0.8 0.6 0.3 2 1 2.1 1.7-1.1-0.8-2.2-1.5-3.5-1.9-0.4-0.2-3.3-0.5-3.3-0.7 0.5-0.1 1.2-0.1 1.9 0.1m-5.4 5c0.2 0.8 0.2 1.6 0.4 2.3 0.3 0.8 0.7 1.5 1 2.2-0.7-0.6-1.1-1.4-1.3-2.3 0-0.2-0.3-2.2-0.1-2.2m-0.1 2.9c0.1 0 0.5 0.8 0.5 0.9-0.2 0.2-0.5-0.7-0.5-0.9m0.1 3.9c-0.1 0.1-0.5-0.3-0.6-0.3 0.2-0.1 0.5 0.2 0.6 0.3m-0.3-5.6c-0.2 0-0.1-0.5-0.1-0.5 0.1 0.1 0.1 0.3 0.1 0.5m0.4 6.3c0 0.2-1-0.5-1-0.6-0.3-0.3-0.5-0.7-0.8-1.1 0.6 0.6 1.2 1.2 1.8 1.7m0.3 0c0.1-0.1 0.6 0.2 0.5 0.2s-0.3-0.1-0.5-0.2m0.7 0.1c0.1-0.1 0.5 0.1 0.6 0.2 0 0.1-0.5-0.2-0.6-0.2m0.4-2.7c0.2 0.1 0.4 0.3 0.6 0.4-0.3 0-0.5-0.1-0.6-0.4m2.7 3.7h1c0 0.3-0.8 0-1 0m1.9 0.1c0.4-0.2 0.8-0.3 1.3-0.3-0.2 0.3-1 0.4-1.3 0.3m3.2-4.4c0.1-0.2 0.3-0.4 0.4-0.6-0.1 0.3-0.2 0.6-0.4 0.6m-12-7.3c0 0.1-0.1 0.6-0.3 0.5 0.1-0.2 0.1-0.6 0.3-0.5m-0.3 0.1c-0.2 1-0.3 2-0.4 3.1 0 0.5-0.2 1.1-0.1 1.7s0.3 0.9 0.1 1.5c-0.3-0.1 0.1-0.5-0.3-0.6-0.2 0.6-0.3 0.7-0.7 1.2-0.2-0.1 0.1-0.9 0.1-1.1-0.2 0-0.4 1.7-0.8 1.5 0.1-0.4 0.9-1.9 0.5-2.2-0.7-0.4-0.3 1.4-1 1.1 0-0.2 0.1-0.6-0.1-0.7 0.2 0.6-0.4 0.8-0.6 1.3-0.1-0.1-0.1-0.2-0.2-0.3-0.7 1.2-1.2 2.2-2.5 2.6-1.1 0.4-2.3 0.8-3.4 0.4-2.4-0.8-4.2-3.6-4.3-6.1 0-1.2 0.3-2.4 0.7-3.5 0.5-1.3 1.3-2.1 2.8-1.9 1.4 0.2 2.7 0.6 4.1 1 1.3 0.4 2.4 0.9 3.2 1.8 0.3-0.4 0.4 0.2 0.7 0.2 0.6 0.2 0.3-0.3 0.1-0.5 0.4-0.2 0.2-0.4-0.1-0.7 0 0.2 1.2 0.3 1.3 0.4 0.4 0 0.8 0.2 0.9-0.2m-1.7-2c-0.1 0.1-1.1-0.7-1-0.8 0.3 0.2 0.8 0.5 1 0.8m-2.7 1.5c-1-0.4-2-0.6-3-0.9-0.5-0.1-1-0.3-1.5-0.4s-1.2-0.2-1.6-0.4c1-0.5 2.4 0.1 3.4 0.4 0.8 0.2 2.4 0.4 2.7 1.3m-1.4-1.2c-1-0.3-2-0.5-2.9-0.8 0.5-0.3 2.6 0.3 2.9 0.8m-3.1-1h-1c0.2-0.3 0.8-0.1 1 0m-1.5 0.3c-0.1 0-0.5 0.1-0.5 0 0.2-0.1 0.5-0.2 0.5 0m-2.9 2.8c0 0.1-0.1 0.4-0.2 0.4 0-0.2 0-0.5 0.2-0.4m-0.4 1.3c0 0.2-0.1 0.4-0.1 0.6h-0.1c0-0.1 0-0.6 0.2-0.6m2.6 7.3c-0.6-0.1-1-0.7-1.3-1.1-0.1-0.2-0.7-1.3-0.5-1.5 0.4 1 1.1 2 2 2.6h-0.2m1.9 0.8c-0.1 0-0.9 0-0.8-0.3 0.1 0.1 0.8 0.2 0.8 0.3m-4.2 1.6c0.7 0.4 1.6 0.6 2.5 0.7 0.8 0.1 1.8-0.1 2.6 0.1 0 0.7-3.1 0.4-3.5 0.3s-2.8-1.2-2.6-1.7c0.3 0 0.7 0.4 1 0.6m-1.2-14.3c-0.1 0.1-0.2 0.3-0.3 0.4-0.1-0.2 0.2-0.4 0.3-0.4m-0.1 13.3c-0.3-0.2-0.5-0.4-0.6-0.7 0.3 0 0.6 0.4 0.6 0.7m-0.9-1c-0.3-0.2-0.5-0.5-0.5-0.8 0.3 0.2 0.4 0.5 0.5 0.8m-0.8-8.9c-0.3-0.1 0.3-1.1 0.4-1.2 0 0.4-0.2 0.8-0.4 1.2m16.2 4.6c-0.2 0-0.2-2.3-0.1-2.6 0.4 0.9 0.2 1.8 0.1 2.6m0.1-2.6v-0.6 0.6zm0-1c0.1-0.3 0.1-0.5 0.2-0.8 0.1 0-0.1 0.9-0.2 0.8m0.2 3.4s0.2 0.6 0 0.6v-0.6zm-16.9-2.2c-0.1-0.4 0-0.8 0.1-1.1 0.2 0.3 0.1 0.9-0.1 1.1m-0.2 0.3c0.2 0 0.1 0.7 0 0.9-0.1 0 0-0.8 0-0.9m-0.1 2.3c0 0.3 0.1 0.5 0.1 0.8-0.1 0-0.2-0.7-0.1-0.8m48.8 0.5c-0.2-1.8-0.3-3.5-0.4-5.3-0.1-1-0.1-2-0.4-2.9-0.2-0.8-0.6-1-1.3-1.3-0.6-0.3-1.1-0.8-1.8-1.1-0.9-0.3-1.8-0.5-2.7-0.5-1.8-0.1-3.5 0.5-5 1.3-0.1-0.3-0.2-0.6-0.5-0.8-0.1 0.2-0.1 0.4-0.1 0.6-0.1 0-0.2-0.3-0.3-0.4-0.2 0.1-0.2 0.6-0.2 0.8-0.2-0.2-0.3-0.6-0.4-0.8l-0.2-0.3c-0.1-0.1 0-0.2-0.2-0.2-0.8-0.2 0 1.3-0.3 1.4-0.2-0.3-0.4-0.7-0.6-1-0.1 0.7 0.1 1.4 0.2 2.2-0.4-0.3-0.1-0.1-0.2 0.2s0 0.7 0 1c0 0.5-0.1 1.1-0.1 1.6v3.2c0.3-0.1 0.3 0.3 0.3 0.5-0.1 0.3 0 0.3-0.4 0.4 0-0.9-0.1-2-0.2-2.9s-0.2-1.9-0.9-2.5c-1.4-1.4-2.9-2.6-4.8-3.2-2-0.7-3.9-0.9-5.9-0.2-2.1 0.7-3.7 2.5-5 4.1-0.5-0.5-1-1.1-1.5-1.6-0.7-0.6-1.5-0.9-2.3-1.3-1.4-0.7-2.9-1.5-4.5-1.6-1.9-0.2-4 0-5.6 1.1-0.6 0.1-1 0.5-1.4 1-0.4 0.6-1.1 1.3-1.5 2-0.3 0.7-0.2 1.5-0.4 2.2-0.2 0.5-0.3 1.2-0.4 1.7-0.1 0.8-0.1 1.7 0 2.4 0.1 0.6 0.3 1.2 0.5 1.7 0.3 0.9 0.4 1.5 1.1 2.3 1.1 1.2 2.2 2.6 3.9 2.9 1 0.2 2.2 0.2 3.2-0.1 0.8-0.3 1.7-0.6 2.5-0.9 0.9-0.3 1.8-1 2.6-1.5 0.2-0.1 2-1.6 1.6-1.7 0.7-0.7 1.2-1.4 1.7-2.3 0.8 1.6 1.3 3.6 3 4.4 1.9 0.9 4.2 1.4 6.3 1.3 1.7-0.1 3.7-1.3 5-2.4 0.7-0.6 1.4-1.3 1.9-2.2 0.1-0.2 1-2.4 0.8-2.4-0.1 0.8 0.3 1.5 0.3 2.2 0 0.3-0.1 0.4-0.1 0.7s0.1 0.7 0.1 1c0.1 0.5 0.3 0.8 0.4 1.3 0 0.3 0.1 1.1 0.6 1.1 0-0.2 0-1.2 0.1-1.3 0.1 0.6 0.1 1.3 0.2 1.9 0.3-0.3 0-1.7 0.3-1.7 0.1 0.2 0.1 0.4 0.2 0.6 0.1-0.2 0.1-0.4 0.2-0.6 0.2 0.3 0 0.6 0.3 0.5 0.2-0.1 0.2-0.7 0.2-0.9 0.2 0.3 0.4 2 0.5 0.7 0.1-1-0.3-2-0.1-3 0.3 0 0.3 2.7 0.4 3.1 0.4-0.1-0.1-2.9-0.1-3.3-0.2-1.5 0.1-2.9 0.2-4.3 0-0.7-0.2-1.4-0.1-2.1 0.1-0.4 0.2-0.5 0.5-0.8 0.4-0.4 0.7-1.1 1.2-1.5 0.4-0.4 1-0.5 1.5-0.6 1.1-0.1 2.4 0 3.2 0.7 1.1 1 1.3 2.1 1.3 3.5 0 2.8 0.3 5.6 0.5 8.3 0.7-0.2 0 1 0.4 1.2 0.6 0.3 0.2-1 0.5-1 0.1 0.4 0.1 1 0.5 1.2 0.2-0.3-0.1-0.9 0.1-1.2s0.8 0.6 0.9-0.3c0.3 0 0.3 0.7 0.6 0.5s-0.2-1.5-0.2-1.7c-0.1-0.8 0-1.6 0-2.3 0-0.6-0.3-1.4-0.1-1.9 0.4 0 0.3 2.6 0.3 3 0 0.5-0.3 2.3 0.3 2.6 0.3-0.2-0.1-1.8-0.2-2.2 0-0.5 0.1-1.4 0-2.3m47.5-4.3c-0.1 0-0.1-1.2-0.1-1.4 0.1-0.1 0.1 1.2 0.1 1.4zm-2.7-5.7c-0.3 0.1-0.4-0.1-0.6-0.2 0-0.2 0.5 0.1 0.6 0.2m-0.8 2.8c-0.1 0.1-0.3-0.3-0.4-0.4 0.1 0 0.3 0.3 0.4 0.4m-1.5-1.5c-0.1 0.1-0.7 0-0.9-0.1 0.1-0.3 0.8 0 0.9 0.1m-4.3-1.3c-0.3 0.1-0.5 0.3-0.8 0.4 0-0.1 0.7-0.5 0.8-0.4m-0.8 5.2c0 0.1 0.1 0.8-0.2 0.7 0.1-0.1 0.1-0.7 0.2-0.7m-0.2 5c0.1-2 0.4-4 0.6-6 0.3 0.5-0.3 6-0.6 6m-0.2-10.2c-0.3 0-0.2-0.8-0.1-0.9 0 0.3 0.1 0.6 0.1 0.9m-2.9 1.2c-0.2-0.5-0.1-1.8 0-2v2zm-0.8 9.7c0.1-0.6 0.2-1.2 0.2-1.8 0.3 0.5 0.1 1.4-0.2 1.8m-6 4.9c-0.2 0.1-0.5 0.1-0.7 0 0.2-0.2 0.5-0.2 0.7 0m-1.4 0.4c-0.1 0.2-0.5 0.2-0.8 0h0.8zm-2.8-2.7c-0.1 0.2-1-0.4-1-0.6 0.4 0.2 0.7 0.4 1 0.6m-1.6 1.9c-0.1 0.2-0.5-0.1-0.6-0.2 0.1-0.2 0.5 0.1 0.6 0.2m-0.9-7.6c-0.4 0.1-0.5-1.9-0.5-2.2 0-0.5 0.3-2.6 1.2-2.3-0.2-0.5 0.6-0.8 0.9-0.9 0.4-0.1 0.8 0.1 0.5-0.5-0.1 0 0.5 0 0.5 0.1 0.1-0.2-0.2-0.2-0.3-0.3 2.4-0.8 5.1 0.5 6.9 2.1-2.8 1.5-6 2.8-9.2 4m8.9-4.7c-0.7-0.5-1.6-0.9-2.3-1.4 0.4 0.1 3.3 1.5 3 1.9-0.2-0.2-0.4-0.4-0.7-0.5m-1.2-1.4c-0.2-0.1-0.4-0.2-0.5-0.3 0.2 0 0.5 0 0.5 0.3m-1.2-2.4c0 0.1-0.5 0-0.6 0 0-0.1 0.5 0 0.6 0zm-4.5 0.5c-0.1 0.1-0.3 0.1-0.4 0.2 0-0.2 0.4-0.4 0.4-0.2m-2.3 3.6c0 0.1-0.3 0.6-0.5 0.6 0.1-0.2 0.2-0.5 0.5-0.6m-0.4 2.9c0.1 0.4 0.3 0.8 0.2 1.2-0.2-0.1-0.3-0.9-0.2-1.2m11.5-6.3c0.4 0 1.2 0.4 1.3 0.8-0.4-0.2-0.9-0.5-1.3-0.8m0.8 3.7c0 0.1 0.1 0.1 0.1 0.2-0.1 0-0.1 0.1-0.2 0.1-0.1-0.1 0.2-0.2 0.1-0.3m0.2-2.2c0.4 0 0.5 0.4 0.6 0.7-0.3 0-0.5-0.6-0.6-0.7m-13.6 11.9c-0.1 0-0.7-0.4-0.5-0.6 0.2 0.2 0.4 0.4 0.5 0.6m-0.9-1c-0.2-0.1-0.4-0.3-0.4-0.6 0.2 0.1 0.5 0.3 0.4 0.6m-0.8-9.5c-0.1 0.2-0.2 0.5-0.4 0.7-0.2-0.2 0.2-0.5 0.4-0.7m-0.5 0.9h0.1c-0.1 0.4-0.6 4-0.6 4-0.2-1.3-0.3-2.9 0.5-4m-0.6 0.9c-0.3 1-0.2 2.3 0.1 3.4 0.1 0.4 0.4 1 0.4 1.4s-0.3 0.5-0.6 0.7c0.2 0.1 0.2 0.2 0.1 0.4-0.6-0.3-0.4 0.7-0.7 0.6 0-0.3 0.1-0.7-0.3-0.6 0-0.3 0.1-0.8-0.4-0.7-0.3 0.1-0.4 0.5-0.6 0.8-0.1-0.1 0.1-0.3-0.2-0.4-0.7 1.1-1.4 2-2.5 2.7-0.9 0.6-2.6 1.2-3.7 0.9-1.2-0.4-2-1.4-2.4-2.5-0.5-1.2-0.9-2.5-1-3.9-0.2-2.4 1-5 3.4-5.8 1.2-0.4 2.7-0.1 3.9 0.4 1.6 0.6 2.1 1.8 3 3.2 0.4-0.3 0.1-0.2 0.2-0.6 0-0.3 0.2-0.3 0.1-0.7 0.1 0.2 1.4-0.2 1.2 0.7m-2.4-1.2c-0.1 0-0.6-0.6-0.4-0.7 0.1 0.2 0.2 0.4 0.4 0.7m-0.2-3.6c-0.1 0.2-0.7-0.2-0.6-0.3 0.1 0.1 0.3 0.2 0.6 0.3m-1.1 2.3l-1.5-0.6c0.4-0.1 1.3 0.1 1.5 0.6m-0.1-0.8c-0.1 0.1-0.4-0.2-0.5-0.2 0-0.1 0.5 0.2 0.5 0.2m-3-0.3c-0.2 0-0.5 0.1-0.7 0.1 0.1-0.3 0.5-0.3 0.7-0.1m-2.6-1.6c-0.5 0.2-1 0.3-1.6 0.5-0.1-0.2 1.5-0.6 1.6-0.5m-2 11.1c-0.5-0.3-1.1-2.1-0.7-2.5 0.2 0.8 0.5 1.7 0.7 2.5m-0.7 4.6c-0.2 0.3-1.1-0.7-1-0.8 0.3 0.3 0.7 0.5 1 0.8m-1.4-0.8c-0.4-0.5-0.8-0.9-1-1.5 0.4 0.1 1 1.1 1 1.5m-0.7-12.2c-0.6 1.5-1.5 2.9-1.4 4.6-0.8-0.1 0.7-4.2 1.4-4.6m-1.6 4.6c0.2 0.9 0.2 1.8 0.1 2.7-0.3-0.6-0.4-2.1-0.1-2.7m0.4 2.1c0.3 1 0.6 2.1 0.9 3.1-0.5 0.2-0.9-2.7-0.9-3.1m6.1 4.9c-0.3-0.1-0.9-0.4-0.9-0.8 0.1 0 0.9 0.6 0.9 0.8m-2.7 1.9c1 0.3 1.8 0.5 2.8 0.7-0.7 0.1-2.3 0.1-2.8-0.7m3.5 0.3c0.2-0.2 1-0.2 1.2 0-0.3 0.2-0.8 0.3-1.2 0m2.1-0.4c0.2 0 0.4-0.1 0.5-0.1-0.2 0.2-0.3 0.2-0.5 0.1m0.2-1.6c0.4-0.2 0.9-0.4 1.3-0.5-0.3 0.3-0.8 0.5-1.3 0.5m3.5-2.8c0.1-0.2 0.2-0.3 0.3-0.5 0.3 0.2-0.2 0.5-0.3 0.5m2.9-1c0.8-0.3 0.1 1.1 0 0m0.3-2.6c0.2 0.3 0.2 0.7 0.3 1s0.3 0.7 0 0.9c-0.2-0.6-0.3-1.3-0.3-1.9m31.3-2.7c0-1.4-0.4-2.9-1.4-3.9-0.6-0.7-1.8-1.5-2.6-1.7-0.2 0-0.4 0.1-0.6 0-0.2 0-0.3-0.1-0.5-0.2 0-0.1-0.1-0.2-0.2-0.2h-0.4c-0.3 0-0.6 0-0.9 0.1-1.4 0.1-2.7 0.4-4 0.9-0.1-0.4 0-1-0.2-1.4-0.1-0.2-0.3-0.2-0.5-0.4-0.1 0.1-0.1 0.3-0.2 0.4-0.3-0.2-0.4 0.1-0.5 0-0.2-0.1-0.2-0.4-0.4-0.6-0.4-0.5-0.4 0.1-0.6 0.5-0.1-0.1-0.2-0.1-0.3 0-0.1-0.1-0.1-0.3-0.3-0.3 0 0.4-0.2 0.6-0.2 0.9-0.1 0.3-0.1 0.7-0.1 1.1 0 0.9 0.2 1.8 0.2 2.7 0.1 1.8 0.2 3.7 0 5.4-0.2-0.2-0.2-0.5-0.6-0.7-0.1 0.2 0.2 0.6 0 0.8-0.1-0.3-0.2-0.4-0.4-0.6-0.2 0.3-0.1 0.5 0 0.8-0.2-0.4-0.6-1.5-1.1-1.5-0.8 0 0.3 1.1-0.1 1.4-0.1-0.2-0.5-1-0.8-0.9 0.1 0.2 0.3 0.7 0.2 1 0 0.2-0.2 0.2-0.3 0.3-0.1 0.3 0 1.4-0.4 1.5 0-0.4 0.2-0.8-0.1-1.2-0.3 0.6 0 1.1-0.5 1.7-0.4 0.6-0.8 0.9-1.4 1.3-1.2 0.8-2.1 1.5-3.6 1.5-1.1 0-2.5-0.6-3.3-1.4-0.4-0.4-0.5-1-0.7-1.5-0.3-0.8-0.4-1 0.4-1.3 2.5-0.8 4.8-2.1 7.3-3.1 1-0.4 2.1-0.9 3-1.5 0.9-0.5 1.6-1.4 1.2-2.4 0.5-0.1 0.2-0.4 0-0.7-0.1-0.3-0.3-0.6-0.4-0.9 0.1 0 0.3-0.1 0.4-0.1-0.5-0.9-1.6-1.1-2.5-1.4-1.1-0.3-2.1-0.5-3.2-0.6-0.9-0.1-1.7 0-2.6 0.1-0.4 0.1-0.7 0-1.1 0-0.5 0-1 0.2-1.5 0.2 0.1-0.2 0.3-0.4 0.2-0.6-1.1 0-2.2 1.4-3 2-1 0.8-2 1.6-2.8 2.6-0.2-0.3 0.1-0.2 0-0.6-0.1-0.3-0.3-0.6-0.6-0.9-0.5-0.6-1.1-1.1-1.7-1.5-1.3-0.8-2.9-1.6-4.5-1.6-3.5-0.2-7 1-8.8 4.3-0.4 0.6-0.8 1.3-0.9 2-0.2 0.8-0.2 1.8-0.2 2.6 0 1.8 0.5 3.4 1.2 5 0.7 1.5 1.9 2.9 3.4 3.7s3.6 0.3 5.1-0.2c1.7-0.5 3.7-1.5 5.1-2.8 0.4-0.3 0.7-0.7 1-1.2 0.2-0.3 0.3-0.8 0.6-1.1 0.1-0.1 0.6-0.4 0.6-0.1s-0.6 0.3-0.6 0.7c0.6-0.1 0.6-0.4 0.9 0.1 0.1 0.2 0.2 0.5 0.3 0.7 0.2 0.2 0.4 0.5 0.6 0.7 0.4 0.5 0.9 0.8 1.4 1.2s0.9 0.9 1.4 1.3c0.4 0.3 1.1 0.7 1.5 0.8 0.4 0 0.8-0.1 1.2-0.1 0.7 0 3.6 0.8 3.9 0.3-0.5 0-1 0-1.4-0.2 0.3-0.2 0.6-0.1 0.9-0.2 0.4-0.1 0.7-0.3 1.1-0.3 0.7 0 0.9 0 1.5-0.6-0.2-0.2-0.4 0.1-0.6-0.1 1.3-0.6 2.6-1.5 3.5-2.6 0.5-0.6 0.8-1.1 1.1-1.8s0.3-1.3 0.3-2.1c0.5 0.3 0.2 2.4 0.2 3v3.2c0.1-0.1 0.2-0.2 0.4-0.2 0 0.5-0.1 1 0.1 1.5 0.4-0.1 0.4-0.7 0.4-1.1 0.2 0 0.2 0.7 0.3 0.9 0.4-0.4 0.1-0.8 0.6-1.2 0 0.7 0.4 0.4 0.5 0 0.8 1 0.4-0.5 0.6-1 0 0.1 0.1 1.2 0.4 0.9 0.2-0.2 0-0.8 0-1.1 0.1-0.9 0.1-2 0.3-3.2 0.1-1 0.2-1.9 0.3-2.9 0.1-0.5 0.1-1.1 0.2-1.6 0.1-0.6 0-1.2 0.1-1.8 0.4-1.7 2.6-2.5 4.2-2 0.9 0.3 1.7 1.3 2 2.2 0.2 0.5 0.1 1 0.1 1.5 0 0.3-0.2 1.1 0.3 0.6 0.1 0.4 0 1.1 0.1 1.5 0 0 0.2 0 0.2 0.1 0.1 0.2 0.1 0.3 0.3 0.4 0.3-0.3 0.2-0.8 0.5-1s0.5 0 0.8-0.4c0.1 0.2 0.1 0.5 0.4 0.5 0.1 0 0.1-0.2 0.2-0.3 0 0 0.3-0.1 0.3-0.1 0.3-0.5 0.3-1.4 0.3-1.9m1.2 20.2c0.3-0.8 0.6-1.5 1.1-2.2 0 0.9-0.6 1.8-1 2.6-0.1-0.1-0.2-0.2-0.1-0.4m0.5 7.3c1-2.4 2-4.7 2.8-7.1 1.1 1.6 1.5 3.6 2.6 5.2 0.4 0.5 0.6 1.2 0.8 1.8 0.1 0.1 0.1 0.3 0.1 0.5h-0.2-2.1c-1.3-0.2-2.8-0.1-4-0.4m5.7-2c-0.1 0.1-0.4-0.7-0.5-0.8 0.1-0.1 0.4 0.6 0.5 0.8m-0.4-8.1c-0.1 0.1-0.7-1.1-0.8-1.3 0.2 0 0.7 1.1 0.8 1.3m-0.6 5.5c0.1 0.1 0.2 0.3 0.2 0.5-0.2 0-1-1.6-0.8-1.7 0.3 0.4 0.5 0.8 0.6 1.2m-1-2.3c-0.3 0.1-0.6-1.1-0.4-1.3 0.1 0.4 0.2 0.8 0.4 1.3m-1.3-1.2c-0.1 0.2-0.3 0.8-0.4 0.7 0-0.2 0.2-0.8 0.4-0.7m-1.4-2.3c-0.1 0.3-0.1 0.6-0.2 0.9-0.2-0.2 0.1-0.8 0.2-0.9m0.2-1.3c-0.1 0.4-0.2 1-0.5 1.3 0.1-0.6 0.2-1.2 0.4-1.8 0.2 0.1 0.2 0.3 0.1 0.5m-2 14.4c-0.1 0-0.1 0-0.2-0.1 0-0.2 0.1-0.3 0.2-0.2v0.3zm-1.9-5.2l1.5-3.3c0.1 0.5-0.4 1.3-0.6 1.7-0.2 0.5-0.5 1.2-0.9 1.6m-11.9 11c-0.4 0.1-0.9 0.1-1.4 0 0.4 0 0.9-0.1 1.4 0m-3.5-2.8c-0.4-0.3-0.7-1.1-0.9-1.6s-0.6-1.2-0.5-1.7c0.5 1.1 1 2.2 1.4 3.3m-1.6-13.1c0.3 0.5 0.4 1.9 0.2 2.4 0-0.8-0.1-1.6-0.2-2.4m-0.1 15.5c-0.1 0-0.6 0.1-0.6 0 0.1-0.1 0.5-0.2 0.6 0m-2.6-6.8c-0.1-0.3 0-0.6 0-0.9 0.2 0.2 0.1 0.6 0 0.9m0.1-1.9c-0.1 0 0-0.5 0-0.6v0.6zm-0.1-6.7c0 1-0.1 1.9-0.1 2.9 0-0.4-0.1-2.9 0.1-2.9m-0.1-2.3c-0.1 0-0.3-1.2 0-1.2v1.2zm0 14.4c0 0.4 0.1 1.9-0.5 1.8 0.2-0.7 0.3-1.5 0.5-2.2v0.4m30.8-8.5c0.9 1.2 1.5 2.6 2.1 3.9-0.2 0.1-0.3 0-0.3-0.1-0.1-0.3-0.2-0.5-0.3-0.7-0.2-0.5-0.5-0.9-0.7-1.4l-0.6-1.2c-0.1-0.2-0.2-0.4-0.2-0.5m0 1.4s0.1 0 0 0c0.5 0.8 1 1.7 1.4 2.6-0.2 0-0.3 0-0.4-0.1l-0.6-1.5c-0.1-0.4-0.2-0.7-0.4-1m3.7 7.8c0.1 0 0.1 0 0 0 0.1 0.1 0.2 0.3 0.3 0.4h-0.1c0-0.1-0.1-0.2-0.2-0.4m0.2-0.4c-0.1-0.1-0.1-0.2-0.2-0.3h0.1c0.5 0.6 0.7 1.2 1 1.9-0.1 0-0.1-0.1-0.2-0.2-0.1-0.3-0.3-0.6-0.4-0.9 0-0.2-0.2-0.3-0.3-0.5m1.1 2c0.2 0.1 0.2 0.2 0.2 0.4h-0.1c0-0.1-0.1-0.3-0.1-0.4m-13.3-15.9c-0.8 1.7-1.6 3.4-2.3 5.1-0.2 0.5-2.3 4.1-2 4.4 0.1-0.2 0.3-0.4 0.4-0.6 0.3 0.3 0 0.8-0.1 1.1-0.1 0.5-0.3 1-0.5 1.5s-1.5 2.8-1.1 3.1c-0.3 0.2-1.4 0.3-0.8-0.1-0.4-0.3-1-0.1-1.3 0-0.9 0.1-1.8 0-2.7 0-1.8 0-3.5 0.1-5.3 0.3 0.2-0.4-0.6-0.2-0.9-0.2s-0.8 0.1-1 0c-0.5-0.3-0.8-1.5-1-2-0.4-0.8-0.8-1.7-0.9-2.6v-0.9c0-0.6 0.1-0.6 0.7-0.6 0.8-0.1 1.7 0 2.5-0.2 0.4-0.1 0.4-0.2 0.8-0.3 0.3-0.1 0.9 0 1.2-0.1 0.9-0.1 1.7-0.1 2.6-0.2 0.1 0 0.9 0.1 0.9-0.2s-0.7-0.1-0.9-0.1c0-0.2 1.7-0.2 1.9-0.2 0.6 0 1.2-0.2 0.3-0.4 0.5-0.3 0.6-0.5 1.3-0.5 0.3 0 0.5 0 0.8-0.1-0.2 0.1 0.4-0.6 0.3-0.3 0.2-0.4 0-0.2-0.6-0.3-0.1 0-0.1-0.2-0.3-0.2-0.4-0.1-0.9 0-1.3 0 0.2-0.6-1-0.3-1.4-0.3h-2.3c-1.5 0-2.9 0-4.3 0.2-0.3 0-1.8 0.4-2 0.2s0.1-1.6 0.1-2c0-0.8-0.1-1.5-0.3-2.2-0.1-0.5-0.4-1.6 0-2 0.3-0.3 1.7-0.2 2.1-0.2 0.7-0.1 1.4-0.1 2.2-0.1 1.3 0 2.8 0.2 4.1 0 0.3 0 0.3-0.1 0.6-0.2s0.7 0 1-0.1c0.3 0 1.3 0 1.6-0.1 0.6-0.4-0.2-0.3-0.5-0.2-0.7 0.1-1.4 0-2.1 0 0 0.1 1.6-0.4 1.8-0.4h1c0.3-0.1 0.1-0.2 0.7-0.2 0.4 0 0.7 0 1-0.2-0.1 0 0.4-0.4 0.4-0.3 0.1-0.5-1.1-0.1-1.5-0.2 0.1-0.1 0.1-0.2 0.3-0.3-1.1-0.2-2.2 0.1-3.3-0.1 0.1-0.1 0.1-0.2 0.2-0.2-0.9-0.3-2.2-0.1-3.2-0.1h-3.7-3.5c-0.4 0-0.8-0.2-1.2-0.1-0.3 0.1-0.3 0.4-0.7 0.4 0 0.3-0.1 0.6-0.1 0.9-0.4 0 0.1-0.6-0.3-0.7-0.2 1.5 0.1 3.2 0.1 4.7v2.6c0 0.3 0.2 0.7 0.1 1s-0.3 0.5-0.1 0.7c-0.3 0.1-0.6 0-0.8 0.2 0.2 0.3 0.7-0.1 0.8 0.1 0.2 0.3-0.2 0.3-0.3 0.4-0.1 0-0.2 0.1-0.1 0.3 0.1 0 0.2 0 0.3 0.1 0.1 0.3-0.2 0.2-0.2 0.3-0.1 0-0.1 0-0.1 0.2 0 0.1 0.1 0.2 0.2 0.2 0.2 0 0.3 0.1 0.2 0.4v0.8c0 0.9 0 1.8 0.1 2.7-0.1 0-0.1-0.1-0.2-0.1 0.1 1 0 2-0.2 3-0.1 0.2-0.1 0.5-0.2 0.7 0 0.3-0.1 0.5-0.5 0.4-0.4 0.2-1 0.1-1.5 0.1l0.2 0.2c-0.2 0.2-0.5 0-0.7 0.1 0 0.3 1.2 0.4 1.5 0.5-0.4 0.2-0.8 0-1.1 0.3 0.5 0.3 1.1 0 1.7 0.3-0.2 0-1.9 0.1-1.5 0.4 0.2 0.2 1-0.1 1.3 0 0.2 0.1 0.6 0.2 0.8 0.4-1.4 0.4 0.7 0.8 1.2 0.8 0.2 0 0.6 0.2 0.4-0.1-0.1-0.2-1.4-0.3-1.6-0.3 0.1-0.6 1.4-0.1 1.7-0.2-0.2-0.3-0.6-0.1-0.9-0.3 0.1-0.3 1.7 0.2 2 0.1 0.4 0 0.2-0.2 0.5-0.3s0.9-0.1 1.2-0.1c0 0.1-0.2 0.3-0.3 0.3 0.5 0.2 1.1 0 1.6 0h1.7 4.1c0.6 0 1.2-0.1 1.8-0.2 0.4-0.1 1.4 0 1.7-0.3 0.2-0.1 0.1-0.5 0.3-0.6 0.2-0.2 0.9-0.2 1.1-0.1 0 0.1-0.1 0.3-0.2 0.4 0.3 0.2 0.5-1 0.8-0.8-0.2 0.4 0 0.5-0.1 0.8s-0.6 0.7 0 0.7c-0.1 0.2-0.2 0.4-0.3 0.7 0.3 0.1 0.5-0.6 0.7-0.8 0.3 0.2 0 1.2 0.6 0.7 0.1-0.1 0.1-0.5 0.2-0.6 0.2-0.2 0.6-0.4 0.8-0.5 0.1 0.7 0.4 0.4 0.7 0 0.3-0.3 0.4-0.7 0.6-1.1 0.3-0.7 0.5-1.2 0.8-1.9 0-0.1 0.5-0.9 0.5-1-0.2-0.3-0.2 0.1-0.4 0.1 0-1.3 1.3-1.2 2.2-1.2 1.1-0.1 2.3-0.3 3.4-0.3h3.2 0.1l0.2 0.2s-0.1 0.1-0.2 0.1h-0.2-0.4c0.2 0.2 0.5 0.2 0.7 0.2s0.2 0.1 0.3 0.2 0.1 0.3 0.2 0.4c0.3 0.6 0.5 1.1 0.6 1.8v0.1c0 0.1 0.1 0.2 0.1 0.4 0 0.1 0 0.1 0.1 0.2 0.1 0.3 0.1 0.5 0.2 0.8 0 0.1 0 0.2 0.1 0.2 0.1 0.3 0.3 0.6 0.4 0.9 0.1 0.2 0.1 0.4 0.3 0.4 0.2 0.1 0.4 0.1 0.6 0.1h0.7s0.1 0 0.1 0.1c0 0.2 0.1 0.3 0.1 0.5 0 0.1 0.1 0.2 0.1 0.3h0.1c0-0.1 0.1-0.2 0.1-0.3v-0.4s0-0.1 0.1-0.1c0 0 0.1 0 0.1 0.1l0.1 0.1c-0.1 0.2 0.1 0.3 0.2 0.4 0 0 0.1 0 0.2 0.1 0-0.1 0-0.1-0.1-0.2s-0.2-0.2-0.1-0.3h0.3s0.1 0 0.1 0.1c0-0.2 0-0.3 0.1-0.4 0 0.1 0.1 0.3 0.1 0.4h0.1c0.1-0.1 0.1-0.3 0.2-0.4 0.2 0.1 0.3 0.1 0.5 0.2 0-0.2 0.1-0.3-0.1-0.4-0.1 0-0.1-0.2-0.1-0.3 0.3 0 0.3 0.4 0.5 0.3-0.1-0.6-0.1-0.6 0.1-0.7v0.1l0.1 0.1c0-0.1 0.1-0.1 0-0.2 0-0.2-0.1-0.4-0.1-0.5-0.1-0.3-0.3-0.6-0.3-0.9-0.1-0.6-0.5-1-0.8-1.5-0.3-0.4-0.6-0.9-0.8-1.4-0.1-0.3-0.4-0.6-0.1-1-0.1-0.1-0.2-0.2-0.4-0.3 0.1-0.1 0.2-0.1 0.3-0.1 0.4-0.1 0.8-0.1 1.2-0.2 0.1 0 0.4 0 0.4-0.3 0-0.1 0.1-0.1 0.2-0.2s0.2-0.1 0.3-0.2c-0.2-0.3-0.5-0.1-0.7-0.2 0-0.1 0.1-0.2 0.1-0.3s-0.2-0.1-0.3-0.1h-1c-0.1 0-0.1 0-0.2-0.1l0.2-0.2h-0.9c-0.2 0-0.2-0.1-0.3-0.2-0.1-0.3-0.2-0.5-0.3-0.8-0.3-0.6-0.6-1.3-0.9-1.9-0.3-0.5-0.6-1-0.9-1.6-0.1-0.2-0.2-0.3-0.2-0.5s0.1-0.3 0-0.5c-0.1-0.4-0.2-0.7-0.4-1.1 0 0-0.1-0.1-0.1-0.2v0.2c0.1 0.2 0.1 0.4 0.2 0.5 0.1 0.2 0.1 0.3 0.2 0.5h-0.1l-0.1-0.1-0.6-1.5c-0.2-0.6-0.5-1.2-0.7-1.8-0.2-0.5-0.6-1-0.8-1.5-0.3-0.5-0.7-1-0.8-1.5-0.1-0.4 0.2-0.8 0-1.2-0.2 0-0.3 0.2-0.3 0.3-0.4-0.3-0.3 0.2-0.5 0.2-0.1 0-0.4-0.3-0.5-0.5s0.1-0.4-0.2-0.5c-0.4-0.1-0.6 0.4-0.7 0.6-0.2-0.2-0.6-0.7-0.9-0.5-0.2 0.1-0.1 0.5-0.4 0.7-0.1-0.1-0.2-0.3-0.4-0.3 0.1 0.3-0.2 0.5-0.3 0.8s-0.1 0.7-0.2 1.1c-0.3 0.7-0.5 1.2-0.8 1.9m3.2-17c0.1 0.7 0.1 1.5 0.1 2.3-0.3-0.5-0.4-1.9-0.1-2.3m0 9c0.3 0.2 0.5 0.3 0.8 0.5-0.8 0.2-2.1-1-2.2-1.8 0.4 0.5 0.8 1 1.4 1.3m-0.1-5c-0.1 0-0.2-0.4-0.1-0.5 0 0.2 0 0.4 0.1 0.5m-0.4 3.9c-0.1 0.1-0.4-0.3-0.5-0.4 0.1-0.1 0.4 0.3 0.5 0.4m1.3 1.3c0.2 0.1 0.4-0.1 0.5 0.2-0.2-0.1-0.4-0.1-0.5-0.2m0.6-2.7c-0.4-0.6-0.7-1.2-1-1.9-0.2-0.4-0.5-1.4-0.4-1.8 0.6 1.7 1.3 3 2.3 4.5-0.3 0.1-0.7-0.6-0.9-0.8m-4.9-10.9c-0.1-0.2-0.1-0.4 0-0.6v0.6zm0-5.1c-0.2 0-0.2-0.3-0.1-0.3 0 0.1 0 0.2 0.1 0.3m6.1 18.8c0.4-0.3 0.8-0.4 1.2-0.4-0.4 0.2-0.7 0.4-1.2 0.4m3.7-5.4c0.3-0.5 0.4-1 0.6-1.5 0.1 0.3 0 0.5-0.1 0.8-0.2 0.3-0.3 0.5-0.5 0.7v0m1.6 1.8c0.1-0.2 0.3-0.4 0.4-0.6h0.1c-0.2 0.3-0.3 0.5-0.5 0.6v0m2.3-2.9c0.1-0.3 0-0.7 0.1-1.1h0.1c0 0.3-0.1 0.7-0.1 1 0 0.1-0.1 0.1-0.1 0.1m1.6-8.7v-0.1h-0.2-1.1c-0.1 0-0.1-0.1-0.2-0.1 0.1-0.1 0.1-0.2 0.2-0.3h-1.8c0.1-0.1 0.1-0.1 0.1-0.2v-0.1h-0.2-6.3-2.3c-0.4 0-0.4 0.1-0.5-0.2-0.2-0.3-0.1-1.1-0.2-1.5 0-0.3 0.1-0.7-0.1-1l-0.4-0.6c-0.3-0.2-0.1-0.1-0.4 0s-0.2 0-0.5 0.3c-0.5-0.3-0.3-1-0.9-0.9-0.5 0.1-0.4 0.6-0.4 1-0.1-0.2-0.3-0.4-0.4-0.6-0.4 0.1-0.2 2.2-0.2 2.5 0.1 1 0.1 2 0.2 3 0.2 2.2-0.2 4.3 0 6.5 0.4-0.3 0.3 0.1 0.3 0.5 0 0.3 0.1 0.5 0.1 0.8 0 0.7 0.1 1.3 0.3 1.9 0.1 0.5 0.7 3 1.3 2.8-0.1-0.2-0.2-0.4-0.2-0.6 0.5 0.1 0.9 1.5 1.3 1.8 0.7 0.5 1.8 0.8 2.7 0.7 0.3-0.1 0.7-0.2 1-0.2 0.5 0 1-0.2 1.5-0.5 0.3-0.2 0.7-0.4 1-0.6 0.5-0.3 1-0.5 1.5-0.9 0.4-0.3 0.7-0.6 1.1-0.9 0.2-0.2 0.4-0.5 0.6-0.7 0.3-0.4 0.6-0.7 0.8-1.1 0.2-0.3 0.4-0.6 0.5-0.9 0.1-0.2 0.2-0.5 0.3-0.7 0.2-0.5 0.3-0.9 0.3-1.4 0-0.1-0.1-0.3-0.2-0.4s-0.2 0.1-0.2 0.2c0-0.2-0.1-0.3-0.1-0.5h-0.1c-0.1 0.1-0.2 0.2-0.2 0.3-0.1 0-0.2 0-0.3-0.1 0 0-0.1 0-0.1-0.1-0.1-0.2-0.2-0.3-0.5-0.3 0-0.1-0.1-0.2-0.1-0.2-0.3-0.1-0.7 0-0.7 0.3 0 0.1 0 0.2-0.1 0.4 0 0.1-0.1 0.2-0.1 0.3h-0.1v-0.3c0-0.1 0-0.1-0.1-0.2-0.1 0-0.2 0.1-0.2 0.2-0.1 0.3-0.1 0.6-0.2 0.9 0 0.1 0 0.1-0.1 0.1l-0.2-0.2c0 0.1-0.1 0.1-0.1 0.2s0 0.1-0.1 0.2l-0.3 0.9c-0.2 0.4-0.4 0.7-0.7 1.1-0.2 0.3-0.3 0.5-0.5 0.8 0 0.1-0.1 0.1-0.1 0.2-0.2 0.2-0.4 0.5-0.6 0.7l-0.2 0.2c-0.3 0.2-0.6 0.4-0.9 0.5l-0.6 0.3c-0.1 0.1-0.2 0-0.3-0.1-1.8-1.8-2.2-4.3-2.2-6.7 0-1.1 0-2.3-0.2-3.4-0.1-0.5-0.3-0.7 0.1-0.9s1.3-0.1 1.8-0.1h5.5c0.2 0 0.4 0.1 0.6 0.1s0.4 0 0.6-0.1c0.1 0 0.1-0.1 0-0.2-0.1 0-0.1-0.1-0.2-0.1h-0.8-3.3-0.2 0.2 3c0.1 0 0.2 0 0.2-0.1 0.1-0.1 0.2-0.2 0.4-0.2h1.5 0.1c0.1-0.2 0.4-0.2 0.5-0.3 0.1-0.2 0.2-0.3 0.4-0.4 0.1 0 0.2-0.1 0.4-0.1h0.3c0.1 0 0.2-0.1 0.2-0.2s0-0.2 0.2-0.2c0-0.1 0-0.1 0.1-0.2"/>
	<path d="m159.8 17.6s0.5 0.7 0.7 0.5c0.2 0 1.2 0.8 1.5 0.4h0.1c0 0.1 1.5-0.2 1.6-0.5 0.1 0 0.4-0.1 0.3-0.2 0.1 0.1 0.2-0.2 0.3-0.3 0.2-0.5 0.2-1 0.4-1.7v0c0-0.5-0.4-1.3-0.8-1.4h0.1c0-0.1-1.2-0.5-1.2-0.5h-0.1l0.2-0.2c0.1 0 0.4-0.4 0.4-0.5 0 0 0.6-0.7 0.6-0.6 0-0.2 0.6-0.5 0.7-0.8 0.1-0.2-0.1-0.9 0-0.9h-0.1c0.1-0.1-0.1 0 0-0.1h-0.5-0.3-0.4-2.4s-1.1 0.1-1.1 0-0.3 0-0.3 0v0.3 0.4 0.2c0 0.2 0 0.5 0.3 0.5 0 0.1 1 0 1.1 0 0.1 0.2 1.4 0.1 1.6 0.1-0.3 0.3-0.5 0.6-0.8 0.9-0.4 0.4-0.9 0.8-0.9 1.4 0 0.1 0.1 0.5 0.1 0.5v0.1c0.2-0.2 1.3 0.1 1.4 0.1 0.9 0.5 1 1 0.4 1.8-0.2 0.1-0.6 0.1-0.7 0.2 0 0-0.9-0.2-1-0.2 0 0-0.6-0.6-0.7-0.6-0.3-0.1-0.6 0.2-0.6 0.4 0 0-0.1 0 0 0-0.2 0-0.4 0.3-0.4 0.4l-0.1 0.1c0-0.2 0.6 0.1 0.6 0.2zm4.5-0.2z"/>
	<path d="m167.6 17.7c-0.1 0.1 0.1 0.2 0.1 0.1 0 0 1 0.5 1.3 0.6h0.7c0.3 0 1.6-0.3 1.6-0.7 0.9 0 1.3-2.8 1.4-2.8 0-0.2 0.1-0.8 0-0.9 0-0.1-0.1-0.8-0.2-0.8l-0.2-0.6c0.2 0.2-0.4-0.7-0.3-0.7 0-0.4-0.9-0.8-1.2-1 0 0-0.7-0.4-0.9-0.3-0.3-0.1-2.4 0-2.4 0.8-0.1 0-0.2 0.2-0.3 0.3-0.2 0-0.6 1-0.6 1-0.4 0-0.3 2.5-0.2 3 0.2 0.9 0.7 1.7 1.2 2zm0.2-3.8c0.4-0.8 0.9-2.3 2.2-1.8 0.8 0.3 1.2 1.5 1.2 2.2v1.3c-0.1 0.4-0.5 1.4-1.1 1.4 0 0-0.1 0.1 0 0-0.6 0.2-1.3 0-1.7-0.6-0.2-0.3-0.7-1.4-0.5-1.8-0.1 0-0.1-0.6-0.1-0.7z"/>
	<path d="m175.1 18.3c0.1 0.1 0.4 0.2 0.5 0.1 0 0.1 0.5 0.1 0.6 0.1h0.6c0 0.4 2.5-1.9 1.8-2v-0.7-1.1-3.2c0-0.4 0.1-0.7-0.4-0.7h-0.6-0.6c-0.3 0.3 0 1.5 0 1.8 0 0.1-0.1 1.3 0.1 1.3 0 0.1-0.1 0.3 0 0.4-0.1 0.1 0 0.3 0 0.4v0.6c0.1-0.1 0 0 0.1 0h-0.1c0 0.1 0.1 0 0 0.1-0.1 0 0 0.4 0 0.5-0.1 0.6-0.3 1.1-1.1 1.1s-0.8-0.4-1-0.9c-0.1-0.2-1.2 0-1.2-0.1v0.1h-0.1c-0.3 0.6 0.1 1.5 0.5 1.8 0 0 0.7 0.6 0.9 0.4z"/>
	<path d="m174.8 16s0.1 0 0 0c0.1 0 0 0 0 0z"/>
	<path d="m179.9 15.8v0c0.2 0.6 0.3 1 0.6 1.5 0 0.3 0.7 0.7 1 0.8 0.6 0.3 1.5 0.3 2.1 0.3h1.3c0.3 0 0.8 0.1 1.1 0 0.4-0.1 0.3 0 0.3-0.5 0-0.2 0.1-1.7-0.1-1.8 0.1-0.1 0-0.5 0-0.5 0.1 0 0-2.3 0-2.5v-0.5c0.1 0 0-0.8 0-0.8v-0.4c0.1 0-0.1-0.5-0.2-0.6-0.2-0.1-0.5 0-0.7 0-0.1 0-0.5-0.1-0.6 0l-0.1 0.3c-0.1 0 0 1.4 0 1.6v1.6 1.5c-0.2 0.1 0.2 0.9-0.2 1.1-0.3 0.1-1.3 0.1-1.6 0-0.6 0-1-0.2-1.3-0.7-0.2-0.4-0.2-1-0.4-1.2h0.1v-0.2-0.3c0-0.1 0.2-0.6 0-0.6 0-0.2 0.1-0.8 0.1-1v-1.5c0-0.1 0-0.1-0.1-0.1h0.1c0-0.7-0.3-0.6-0.9-0.6h-0.3s-0.1 0 0 0c-0.3 0-0.6 0.3-0.4 0.7v0.4 0.2c0.1 0.4-0.1 3.7 0.2 3.8z"/>
	<path d="m187.6 14.6c-0.1 0.4 0.1 1 0 1.4v0.4 0.1 0.8 0.8c-0.1 0.2 0 0.4 0.2 0.3 0 0.1 1.1 0 1.1 0.1s0.1 0 0.2 0c0 0 0.1-0.1 0.1 0s0.1-0.4 0.1-0.5c0.1-0.1 0-0.8 0-1v-2.4c0.8 0.9 1.8 1.9 2.5 2.8 0 0.1 0.8 0.8 0.8 0.9 0.3 0.4 0.3 0.4 0.8 0.4 0.1 0 0.6 0.1 0.7 0 0.3-0.2 0.1-0.8 0.1-1.1v-0.3-0.8-3.6c0-0.3 0.1-1.2 0-1.5 0 0 0.1-0.2 0-0.3v0.1-0.1c-0.1-0.1-0.3-0.1-0.4 0-0.1 0.2-0.9-0.2-1.2 0.2-0.1 0.1 0 0.7 0 0.9v1c0 0.3-0.1 1.1 0 1.3-0.1 0.1 0 0.3 0 0.3 0.1 0.3 0 0.7 0 1.1-0.8-1.1-1.9-2.1-2.9-3.1-0.2-0.2-0.4-0.5-0.5-0.7s0.1-0.6-0.1-0.8c-0.2-0.5-1.1-0.1-1.6-0.2v0.6 1.7c0.1 0.1 0.2 0.7 0.1 1.2v0z"/>
	<path d="m195.6 14.6v0.6c-0.1 0 0 1.4 0 1.5v0.3c-0.1 0 0 0.5 0 0.6v0.3c0 0.1 0 0.3 0.1 0.4s0.4 0.1 0.7 0.1c0.8 0 1 0.1 0.9-0.7 0-0.1 0-1.3-0.1-1.3 0 0 0.1-0.1 0-0.1 0.3-0.1-0.1-3 0-3.2 0.1-0.3 0.2-1.7 0-2.2-0.1-0.3-0.1-0.3-0.6-0.3-0.2 0-0.5-0.1-0.7 0-0.3 0.1-0.3 0-0.4 0.4 0 0.3 0.1 3.6 0.1 3.6z"/>
	<path d="m202.1 14.7h1.3 0.3 0.9c0.2-0.1 0.1-0.6 0.1-0.9-0.1-0.2-1.7 0-1.9 0h-0.5-0.8-0.6-0.2c0 0.3-0.3 1 0.3 0.9h0.8c0 0.1 0.2 0.1 0.3 0z"/>
	<path d="m208 13.5v0.7 2.3 1.4 0.1 0.3h0.1c0-0.1-0.1 0.1-0.1 0.1 0.4 0.1 0.8 0.1 1.2 0.1h0.2c0.2-0.2 0.2-0.6 0.1-1v-2.1c0-0.4 0.2-1.6 0-1.9v-1.8-0.7c0.3-0.6-0.8-0.2-0.8-0.3s-0.2 0-0.2 0c-0.1-0.1-0.4 0-0.5 0v0.1c0-0.1 0 0-0.1-0.1-0.2 0-0.5 0-0.6 0.2v1.2c0.9-0.5 0.7 1 0.7 1.4z"/>
	<path d="m212.8 16z"/>
	<path d="m216.5 16.3v-0.7-1.1-3.2c0-0.4 0.1-0.7-0.4-0.7h-0.6-0.6c-0.3 0.3 0 1.5 0 1.8 0 0.1-0.1 1.3 0.1 1.3 0 0.1-0.1 0.3 0 0.4-0.1 0.1 0 0.3 0 0.4v0.6c0.1-0.1 0 0 0.1 0h-0.1c0 0.1 0.1 0 0 0.1-0.1 0 0 0.4 0 0.5-0.1 0.6-0.3 1.1-1.1 1.1s-0.8-0.4-1-0.9c-0.1-0.2-1.2 0-1.2-0.1v0.1h-0.1c-0.3 0.6 0.1 1.5 0.5 1.8 0.1 0.1 0.9 0.7 1.1 0.5 0.1 0.1 0.4 0.2 0.5 0.1 0 0.1 0.5 0.1 0.6 0.1h0.6c-0.2 0.4 2.3-1.9 1.6-2.1z"/>
	<path d="m224 18.4c0.4-0.1 0.3 0 0.3-0.5 0-0.2 0.1-1.7-0.1-1.8 0.1-0.1 0-0.5 0-0.5 0.1 0 0-2.3 0-2.5v-0.5c0.1 0 0-0.8 0-0.8v-0.4c0.1 0-0.1-0.5-0.2-0.6-0.2-0.1-0.5 0-0.7 0-0.1 0-0.5-0.1-0.6 0l-0.1 0.3c-0.1 0 0 1.4 0 1.6v1.6 1.5c-0.2 0.1 0.2 0.9-0.2 1.1-0.3 0.1-1.3 0.1-1.6 0-0.6 0-1-0.2-1.3-0.7-0.2-0.4-0.2-1-0.4-1.2h0.1v-0.2-0.3c0-0.1 0.2-0.6 0-0.6 0-0.2 0.1-0.8 0.1-1v-1.5c0-0.1 0-0.1-0.1-0.1h0.1c0-0.7-0.3-0.6-0.9-0.6h-0.3s-0.1 0 0 0c-0.3 0-0.6 0.3-0.4 0.7v0.4 0.2c0 0.4-0.2 3.8 0.1 3.9 0.2 0.6 0.4 1 0.6 1.5 0 0.3 0.7 0.7 1 0.8 0.6 0.3 1.5 0.3 2.1 0.3h1.3c0.3-0.1 0.9 0 1.2-0.1z"/>
	<path d="m230.6 18.4c0.5 0 0.3-0.3 0.3-0.7s0.2-0.7-0.3-0.9c-0.2-0.1-1.5 0-1.5 0v-0.1h-1.5c-0.6 0-0.6-0.1-0.6-0.7v-2.6c0.1-0.1 0-2 0-2.1v0c0-0.2-0.1-1.2-0.4-0.9h-0.1c0.1 0-0.2-0.1-0.1 0-0.1 0-0.7-0.1-0.7 0-0.1-0.1-0.1 0-0.2 0 0.1 0 0 0 0.1 0.1 0 0-0.2-0.1-0.2 0 0 0 0.1 0 0.1 0.1-0.2 0 0 0.3 0 0.3s0.1-0.1 0.1 0c0 0 0 0.1-0.1 0-0.1 0.1 0.1 0.6 0 0.7v0 2.3 2.9c0 0.2 0.1 0.5 0.1 0.5-0.2 0 0.3 0.8 0.5 0.8 0 0 0.9 0.1 0.9 0 0 0 0.3 0.1 0.4 0 0.2-0.2 1.2 0 1.5 0h0.9c0.1 0.3 0.5 0.3 0.8 0.3z"/>
	<path d="m225.6 11.8v0z"/>
	<path d="m231.6 14.6v0.6c-0.1 0 0 1.4 0 1.5v0.3c-0.1 0 0 0.5 0 0.6v0.3c0 0.1 0 0.3 0.1 0.4s0.4 0.1 0.7 0.1c0.8 0 1 0.1 0.9-0.7 0-0.1 0-1.3-0.1-1.3 0 0 0.1-0.1 0-0.1 0.3-0.1-0.1-3 0-3.2 0.1-0.3 0.2-1.7 0-2.2-0.1-0.3-0.1-0.3-0.6-0.3-0.2 0-0.5-0.1-0.7 0-0.3 0.1-0.3 0-0.4 0.4 0.1 0.3 0.2 3.6 0.1 3.6z"/>
	<path d="m241.2 18.4h0.5c0.2 0 1.1 0.1 1.1-0.1 0-0.4 0.2-1.1-0.2-1.3-0.2-0.1-0.9 0-1.2 0h-1c0-0.1-0.7 0-0.8 0 0.2 0 0.9-0.9 0.9-0.9l0.2-0.2c0.1-0.1 1.3-0.8 1.2-1.1 0 0 0.9-1.1 0.7-1.1 0.2 0.1 0-1.5 0-1.5-0.2-0.8-1-1.3-1.8-1.5-0.6-0.1-1.6-0.2-2 0.2 0 0-0.8 0.5-0.8 0.7 0 0-0.2 0.1-0.2 0.2s-0.1 0.1-0.1 0c-0.1 0.1-0.6 0.8 0 0.8l0.6 0.4c0.2 0.2 0.6-0.4 0.8-0.6-0.1 0 0 0 0 0 0.1 0 0.3-0.3 0.4-0.3 0.4-0.2 0.9-0.2 1.3 0 0.9 0.6 0.1 1.1 0.1 1.8-0.3 0.3-0.5 0.7-0.8 0.9-0.1 0.1-0.6 0.5-0.6 0.6 0 0-1.5 1.2-1.4 1.2-0.2 0.1-0.4 0.4-0.5 0.5-0.2 0.2 0 0.8-0.2 1.2h0.1c0 0.1-0.1 0-0.1 0l0.2 0.1s0.2 0 0.2-0.1c0.1 0.2 2.2 0.1 2.4 0.1 0.1 0 1 0.1 1 0z"/>
	<path d="m249.7 14.1c0-0.1-0.1-0.8-0.2-0.8l-0.2-0.6c0.2 0.2-0.4-0.7-0.3-0.7 0-0.4-0.9-0.8-1.2-1 0 0-0.7-0.4-0.9-0.3-0.3-0.1-2.4 0-2.4 0.8-0.1 0-0.2 0.2-0.3 0.3-0.2 0-0.6 1-0.6 1-0.4 0-0.3 2.5-0.2 3 0.2 0.7 0.7 1.6 1.2 1.9-0.1 0.1 0.1 0.2 0.1 0.1 0 0 1 0.5 1.3 0.6h0.7c0.3 0 1.6-0.3 1.6-0.7 0.9 0 1.3-2.8 1.4-2.8 0-0.1 0.1-0.7 0-0.8zm-1.6 1.4c-0.1 0.4-0.5 1.4-1.1 1.4 0 0-0.1 0.1 0 0-0.6 0.2-1.3 0-1.7-0.6-0.2-0.3-0.7-1.4-0.5-1.8v-0.7c0.4-0.8 0.9-2.3 2.2-1.8 0.8 0.3 1.2 1.5 1.2 2.2 0 0.5 0 1-0.1 1.3z"/>
	<path d="m253.2 13.6v-1.8-0.7c0.3-0.6-0.8-0.2-0.8-0.3s-0.2 0-0.2 0c-0.1-0.1-0.4 0-0.5 0v0.1c0-0.1 0 0-0.1-0.1-0.2 0-0.5 0-0.6 0.2v1.2c1-0.5 0.8 1 0.8 1.4v0.7 2.3 1.4 0.3h0.1c0-0.1-0.1 0.1-0.1 0.1 0.4 0.1 0.8 0.1 1.2 0.1h0.2c0.2-0.2 0.2-0.6 0.1-1v-2.1c-0.1-0.4 0.2-1.6-0.1-1.8z"/>
	<path d="m260.3 11.4c0.1 0 0-0.6 0-0.6 0-0.2-0.7 0-0.8 0s-0.3 0.1-0.5 0h-0.1s-0.2 0.1-0.1 0.1h-0.3c0 0.1-0.9-0.2-0.8 0.1-0.2-0.1-0.6-0.1-0.7 0 0-0.1-0.1 0-0.1 0 0-0.1-0.5 0-0.6 0h-0.1-0.6c-0.1 0-0.7 0.1-0.6 0.1-0.2 0.2-0.1 1.2 0.2 1.3 0.2 0.1 1-0.1 1.3-0.1 0.1 0 2 0.2 2 0h0.1c-0.3 0.6-0.9 1.5-0.9 2.1-0.1 0-0.3 0.7-0.3 0.5-0.3 0.4-0.9 1.3-0.9 1.7l-1 1.9c0.1 0-0.1 0-0.1 0.1h0.2 0.4c0.2 0 0.8 0.2 1 0 0.2-0.1 0.2-0.5 0.3-0.7 0.2-0.4 0.4-0.6 0.5-0.9 0.7-1.3 1.3-2.6 2-3.9h-0.1s0.5-0.7 0.4-0.7c0.2 0.1 0.2-0.6 0.2-0.6v-0.4z"/>
	<path d="m258.9 10.7c0.1 0 0.1 0 0 0 0.1 0 0.1 0 0 0 0.1 0 0.1 0 0 0z"/>
	<path d="m165 26.6c0-0.1-0.2-0.7-0.3-0.7 0.1-0.1-0.2-0.3-0.3-0.3l-0.8-0.6c0.4 0 0.7-0.7 0.8-1.1 0.1-0.5 0.1-0.8 0-1.2-0.5-1.8-3-1.4-4.4-1.4-0.6 0-1.3-0.2-1.4 0.4s0 1.4 0 2.1c0 0.2 0.1 0.5-0.1 0.6-0.1 0.1-0.3-0.1-0.4 0-0.2 0.1-0.2 0.7-0.1 0.9 0.1 0.6 0.1 0.1 0.5 0.4 0.3 0.2 0.2 0.4 0.2 0.8s-0.2 2.1 0 2.3c0.2 0.3 3.8 0 3.8 0 0.1 0 0.9 0 0.9-0.1 0.3 0 0.6-0.2 0.8-0.3 0.1 0 0.4-0.2 0.4-0.3 0.3-0.1 0.4-0.9 0.4-1.5zm-4.8-3.6c0.2-0.5 0.7-0.2 1.2-0.2 0.4 0 1-0.1 1.3 0.2 0.4 0.4 0.2 1.1-0.3 1.3-0.3 0.1-2.3 0.4-2.3-0.1 0.1 0 0.1-1 0.1-1.2zm1.2 4.6c-0.2 0-0.9 0.2-1.1 0-0.2-0.1-0.1-0.7-0.1-1 0-1 0.9-0.8 1.8-0.8 0.7 0 1.4 0.1 1.4 1-0.1 0.9-1.5 0.8-2 0.8z"/>
	<path d="m172.1 28.3v-0.9c0-0.2-0.7-0.1-0.8-0.2s-0.2-0.4-0.3-0.4l-0.2-0.2c-0.2-0.3-0.2-0.1 0-0.4 0-0.1 0.6-0.4 0.6-0.4 0.4-0.3 0.8-1.1 0.8-1.4 0 0-0.1-2.5-0.6-2.3-0.7-0.8-2-0.7-3-0.8-0.1 0-1.5 0.1-1.5 0.1 0-0.1-1.6-0.1-1.1 0.3-0.1 0.1 0 0.3 0 0.4 0 0-0.1 1.2 0 1.1h-0.1c-0.1 0.1 0.1 1.4 0.1 1.4-0.2 0.2 0 4.3 0 4.3-0.4 0.3 0.2 0.2 0.3 0.2 0.4 0.1 0.9 0 1.3 0 0-0.3-0.2-2.2 0-2.4 0.4-0.5 1.4 0 1.6 0.4 0.3 0.5 0.6 0.9 0.9 1.4 0.3 0.4 0.4 0.7 0.9 0.7 1-0.2 1.2 0 1.1-0.9zm-1.6-3.8c-0.5 0.9-2 0.5-2.8 0.5 0.1-0.5 0-1.2 0-1.7 0-0.3 0-0.4 0.2-0.5h0.1c0.6 0.1 1.5-0.1 2.1 0.2 0.5 0.3 0.7 1 0.4 1.5z"/>
	<path d="m173.3 25.7c0 0.1 0.1 0.7 0.1 0.7 0 0.4 0.3 0.8 0.5 1.1 0.1-0.1 0 0 0 0l0.1 0.1c0.1 0 0.4 0.4 0.5 0.5s0.9 0.6 0.9 0.5c0.1 0.1 0.3 0.2 0.4 0.2 0.3 0.3 1.4 0.3 1.8 0.2h0.1s1.9-0.7 1.8-0.9c0.2 0 0.7-0.7 0.8-0.9 0.4-0.6 0.4-1.5 0.6-2.3 0 0 0-0.5-0.1-0.5-0.2-0.7-0.5-1.5-1.2-2.1l-0.2-0.2c0-0.2-0.6-0.2-0.6-0.4-0.2-0.1-1.4-0.5-1.4-0.4-0.1 0-0.6 0.1-0.6 0h-0.1-0.3-0.2c-0.4 0.1-0.8 0.2-1.1 0.4-0.2 0.1-0.4 0.3-0.5 0.4l-0.1 0.1c-0.1 0.1-0.5 0.4-0.5 0.5 0 0.2-0.5 0.7-0.5 0.9-0.1 0.2-0.1 0.5-0.2 0.7-0.1 0.1-0.1 0.4-0.1 0.5s-0.1 0.9 0.1 0.9zm1.7-1.3c0.3-0.8 0.7-1.1 1.5-1.5 0-0.5 1.8 0.3 2 0.5 0.1 0.1 0.2 0.1 0.3 0.3l0.1 0.1c0.2 0.2 0.3 0.6 0.4 0.9 0.2 0.7-0.1 1.8-0.6 2.2-0.2 0-0.5 0.6-0.8 0.6-0.4 0.2-1.2 0.1-1.5 0-0.1 0-0.6-0.2-0.6-0.3s-0.7-0.7-0.8-0.8c-0.3-0.9 0-1.3 0-2z"/>
	<path d="m185.2 27.5c-0.6 0-1-0.2-1.3-0.7-0.2-0.4-0.2-1-0.4-1.2h0.1v-0.2-0.3c0-0.1 0.2-0.6 0-0.6 0-0.2 0.1-0.8 0.1-1v-1.5c0-0.1 0-0.1-0.1-0.1h0.1c0-0.7-0.3-0.6-0.9-0.6h-0.3s-0.1 0 0 0c-0.3 0-0.6 0.3-0.4 0.7v0.4 0.2c0 1.2-0.1 2.7 0.1 3.9 0.2 0.6 0.4 1 0.6 1.5 0 0.3 0.7 0.7 1 0.8 0.6 0.3 1.5 0.3 2.1 0.3h1.3c0.3 0 0.8 0.1 1.1 0 0.4-0.1 0.3 0 0.3-0.5 0-0.2 0.1-1.7-0.1-1.8 0.1-0.1 0-0.5 0-0.5 0.1 0 0-2.3 0-2.5v-0.5c0.1 0 0-0.8 0-0.8v-0.4c0.1 0-0.1-0.5-0.2-0.6-0.2-0.1-0.5 0-0.7 0-0.1 0-0.5-0.1-0.6 0l-0.1 0.3c-0.1 0 0 1.4 0 1.6v1.6 1.5c-0.2 0.1 0.1 1-0.2 1.1-0.3 0-1.3 0-1.5-0.1z"/>
	<path d="m192.5 26.2z"/>
	<path d="m200.2 21.4c0-0.1-0.8-0.1-0.9 0-0.6 0.2-0.3 0.8-0.6 1.2-0.1 0.1-0.1 0.4-0.1 0.5h-0.1s-0.1 0.3 0 0.2c-0.4 0.4-0.4 1.2-0.6 1.7-0.1 0.5-0.3 1-0.5 1.5l-0.6-1.7c0.1-0.1-0.2-0.5-0.2-0.5 0.1 0-0.4-1.7-0.5-1.9 0 0 0 0.1-0.1 0.1v-0.2c0.1 0-0.1-0.3-0.2-0.3 0-0.1 0-0.1 0.1 0 0 0-0.1-0.1-0.1-0.2 0.1-0.1-0.1-0.4-0.3-0.4-0.2-0.1-0.5 0-0.7 0-0.4 0-0.8 0.1-1.1 0.1-0.9 0-0.6 0.2-0.6 0.9v0.4c-0.1 0 0 0-0.1 0.1 0.4 0 0.9-0.1 0.6 0.5-0.3 0-0.1 0.7-0.4 0.8h0.1c-0.1 0.1-0.6 1.4-0.5 1.4 0 0.1-0.2 0.8-0.3 0.9v0c0-0.1-0.1-0.2-0.2-0.3 0 0-0.1 0 0 0 0 0 0-0.1-0.1-0.1-0.2-0.2-0.3-1-0.4-1.4-0.1-0.3-0.1-0.6-0.2-0.9v0c0-0.2-0.4-1.1-0.5-1.5 0.2 0.1-0.4-1.6-0.7-0.8-0.1 0-1.1-0.3-1.2-0.1-0.1 0.1 0.1 0.3 0.1 0.4 0 0 1.2 4.2 1.4 4.2-0.1 0 0.3 0.8 0.3 0.9 0 0.4 0.3 0.9 0.5 1.4s0.1 0.8 0.5 1 1.1 0.1 1.3-0.2c0.1-0.2 0.1-0.6 0.2-0.7 0.2 0 0.7-2 0.8-2.3 0.2-0.6 0.4-1.1 0.6-1.8 0.1 0.2 0.4 0.8 0.4 1-0.2 0.2 0.6 1.5 0.6 1.7 0 0 0.3 1.8 0.6 1.9 0 0-0.1 0.3 0.1 0.4 0.4 0 0.8 0.1 1.3 0.1 0.2 0 0.3-0.5 0.4-0.8h-0.1c0.1 0 0 0 0 0s0.4-1.1 0.5-1.2c0.3-0.3 0.7-1.7 0.7-2.3 0 0 0.1 0 0 0 0.1-0.1 0.5-1.4 0.5-1.4s0.4-0.9 0.3-0.9l0.2-0.6c0-0.1 0.1-0.3 0.1-0.4l0.1-0.2h-0.2c0.1-0.3-0.2-0.2-0.2-0.2z"/>
	<path d="m201.8 26c0.2 0.2 0 1.2 0 1.5v1c0 0.5-0.1 0.6 0.4 0.6h2.1 0.3c0.6 0 2.6 0.3 2.8-0.2 0.1-0.1 0-0.6 0-0.8 0-0.7-0.2-0.6-1-0.5h-1.4c-0.3 0-1.4 0.2-1.6 0s-0.1-0.3-0.1-0.5c0-0.4-0.2-1.3 0.5-1.1h2.3 0.1c0.1 0 0.3 0.1 0.3 0 0.2 0.2 0.3-0.1 0.4-0.1 0.1-0.2 0.1-0.6 0-0.9-0.1-0.6-0.4-0.4-0.8-0.4h-1.3c-0.2 0-1.1 0.2-1.3 0 0 0-0.4-1.5-0.1-1.6 0.2-0.1 0.9 0 1.2 0h1.3c0.3 0 1.4 0.2 1.6-0.1 0.1-0.1 0-0.5 0-0.5 0-0.7 0.2-0.8-0.4-0.9-0.7-0.1-1.4 0-2 0h-1c-0.5 0-1.8-0.2-2.2 0.1-0.2 0.3-0.1 1.4 0 1.8 0 0.3-0.1 0.9 0 1.2-0.7 0-0.6 0.2-0.6 0.7 0 0.2-0.1 0.7 0 0.8 0.1-0.1 0.4-0.2 0.5-0.1z"/>
	<path d="m214.6 24.3s-0.1-2.5-0.6-2.3c-0.7-0.8-2-0.7-3-0.8-0.1 0-1.5 0.1-1.5 0.1 0-0.1-1.6-0.1-1.1 0.3-0.1 0.1 0 0.3 0 0.4 0 0-0.1 1.2 0 1.1h-0.1c-0.1 0.1 0.1 1.4 0.1 1.4-0.2 0.2 0 4.3 0 4.3-0.4 0.3 0.2 0.2 0.3 0.2 0.4 0.1 0.9 0 1.3 0 0-0.3-0.2-2.2 0-2.4 0.4-0.5 1.4 0 1.6 0.4 0.3 0.5 0.6 0.9 0.9 1.4 0.3 0.4 0.4 0.7 0.9 0.7 0.9 0 1.1 0.2 1-0.7v-0.9c0-0.2-0.7-0.1-0.8-0.2s-0.2-0.4-0.3-0.4l-0.2-0.2c-0.2-0.3-0.2-0.1 0-0.4 0-0.1 0.6-0.4 0.6-0.4 0.6-0.4 0.9-1.3 0.9-1.6zm-1.7 0.2c-0.5 0.9-2 0.5-2.8 0.5 0.1-0.5 0-1.2 0-1.7 0-0.3 0-0.4 0.2-0.5h0.1c0.6 0.1 1.5-0.1 2.1 0.2 0.5 0.3 0.7 1 0.4 1.5z"/>
	<path d="m219.8 24.7c-0.5-0.2-0.9-0.3-1.3-0.4-0.3-0.1-0.7-0.1-0.9-0.4-0.1-0.1-0.2-1 0-0.9 0.2 0 0.4-0.2 0.6-0.2 0.4 0 1 0.2 1.5 0.4 0.3 0.1 0.5 0.3 0.8 0.1 0.2-0.1 0.4-0.5 0.5-0.6 0.1-0.3 0.2-0.3 0-0.6s-0.7-0.4-1-0.5c-0.5-0.2-1-0.2-1.5-0.2-0.4-0.4-1.8 0.5-2 0.8-0.2 0-0.4 0.5-0.5 0.7v-0.1c-0.1 0.2-0.3 0.9-0.1 1-0.2 0.1 0 0.7 0.1 0.7-0.4 0.7 1.8 1.4 1.9 1.4s1.4 0.5 1.5 0.5c0.1 0.1 0.4 0.1 0.4 0.3 0.1 0.1-0.1 0.7 0 0.7-0.2 0.2-0.7 0.4-1 0.4s-0.7-0.1-0.9-0.1c-0.1-0.1-0.3-0.2-0.5-0.2 0 0-0.7-0.6-0.8-0.6-0.3 0-0.4 0.1-0.6 0.4s-0.3 0.4-0.5 0.7c0.1 0 0.6 0.4 0.7 0.5 0.2 0.1 1.3 0.8 1.5 0.6 0.1 0 0.3 0.1 0.3 0v0c0.1 0 0.7-0.1 0.8 0 0 0.1 1.4 0 1.4-0.3 0 0 0.4-0.2 0.3-0.2 0.1 0 0.3-0.3 0.3-0.4 0.1-0.1 0.4-0.9 0.4-0.9 0-0.1 0.1-0.4 0.1-0.4 0.1-1.1-0.5-1.9-1.5-2.2z"/>
	<path d="m218 25.8s-0.1 0 0 0c-0.1 0 0 0 0 0z"/>
	<path d="m227.7 26.4z"/>
	<path d="m226.7 21.4c-1-0.2-2-0.1-3-0.1-0.5 0-1.1 0-1.4 0.1-0.1 0.2 0 0.9 0 1.1 0 0.6 0.1 0.3 0.3 0.4l0.2 0.1c-0.1 0.7 0 1.5 0 2.2v2.6c0 0.8-0.2 1.2 0.8 1.2 1.5 0 2.8 0.1 4.2-0.6 0.2-0.1 0.8-0.4 0.8-0.5 0 0 0.2-0.1 0.1-0.1 0.1-0.2 0.4-0.5 0.6-0.7 0.3-0.6 0.5-1.4 0.5-2.1 0-1.7-1.5-3.2-3.1-3.6zm1.2 4.4c-0.1 0.2-0.2 0.8-0.3 0.8s-0.6 0.5-0.6 0.6h0.1s-0.1 0 0 0c-0.3 0.4-1.5 0.3-2.1 0.3-0.8 0-0.6-0.3-0.6-1.1v-1.3c0-0.6-0.2-2.1 0.2-2.3 0.4-0.3 1.9 0.1 2.3 0.3 0.2 0.1 0.8 1.1 0.9 1.1 0.2 0.4 0.2 1.3 0.1 1.6z"/>
	<path d="m236.4 25.7c-0.5-1.1-0.9-2.3-1.4-3.5-0.4-0.8-0.6-0.9-1.6-0.9h-0.9c-0.6 0-0.8 0-0.8 0.7 0 0.1 0 0.3 0.1 0.4 0.1 0.3 0.2 0.2 0.4 0.4s0.2 0 0.2 0.4-0.5 1.2-0.7 1.5c-0.3 0.7-0.6 1.3-0.9 2-0.3 0.6-1.5 2.1-0.4 2.2 1 0.2 1-0.3 1.3-1.1 0.1-0.1 0.2-0.6 0.4-0.7h0.4c0 0.1 2.6 0 2.8 0.1 0.1 0 0.5 1.1 0.5 1.1 0.2 0.7 0.5 0.6 1.2 0.6 0.1 0 0.6 0 0.6-0.2 0.1-0.2-0.4-1-0.5-1.3-0.1-0.5-0.4-1.1-0.7-1.7zm-2 0.2h-1c-0.6 0-0.7 0.1-0.5-0.5 0.1-0.4 0.3-0.8 0.4-1.2 0.3-0.7 0.3-1.2 0.6-0.4 0.1 0.4 0.3 0.9 0.5 1.2 0.1 0.2 0.2 0.5 0.3 0.8 0 0.1-0.1 0.1-0.3 0.1z"/>
	<path d="m240.3 21.4v0z"/>
	<path d="m240.2 28.8v0 0z"/>
	<path d="m240.2 27.7z"/>
	<path d="m240.2 27.7z"/>
	<path d="m245.8 21.3c-0.4-0.1-1.8-0.1-1.6 0.5-0.2 0-0.8 1.2-0.9 1.4-0.3 0.4-0.7 1-0.9 1.4-0.2-0.3-0.4-0.6-0.5-0.7h0.1c-0.1 0-0.6-0.9-0.7-1 0 0.1-0.5-1-0.7-1.1 0-0.1-0.2-0.3-0.2-0.4-0.1-0.3-1.3-0.1-1.6-0.1v1.3 1.8c0 0.3 0.1 1.2 0.1 1.4-0.1 0.1-0.1 2.6 0 2.6 0 0-0.1 0.6 0 0.6 0 0 0.7 0.1 0.8 0.1h0.3c0.1 0 0.5 0.1 0.5-0.1v-0.1c0-0.2 0-1-0.1-1.1 0.1-0.1 0-0.2 0-0.3v-1.1s0.1-0.3 0-0.3c0.1 0 0.1-1.7 0.1-2 0.1 0.2 1.5 2.4 1.6 2.3l0.1 0.2c-0.2 0.2 0.2 0.2 0.3 0.2 0.4 0.1 0.5-0.1 0.7-0.4 0.1-0.2 0.8-1.3 0.8-1.2 0.3 0 0.6-0.9 0.7-1.1v2.4 2.5c0 0.2 0.3 0.2 0.6 0.2h0.6s0.4-0.1 0.3-0.1c0.2 0 0.1-0.5 0.1-0.5s0.1-0.5 0-0.6c0 0 0.1-0.7 0-0.8-0.1-1.4 0-2.9 0-4.2-0.2-0.8 0.1-1.5-0.5-1.7z"/>
	<path d="m164.2 32.1c-0.1-0.2-0.4-0.1-0.6-0.2v0.1c-0.2-0.3-3-0.1-3.5 0-0.7 0-1.3 0.1-2 0 0 0.1-0.1 1.6 0.3 1.4h0.2 3.5c-0.5 0.6-1.1 1.3-1.6 1.9-0.2 0.3-1 1.5-1.2 1.5 0 0.3-1.1 1.1-1.3 1.5 0 0.1-0.2 1.1 0 1.2 0.1 0.1 0.9 0 1.2 0 0.7 0 1.4-0.1 2.2-0.1 0.6 0 1.1 0.1 1.7 0.1 0.2 0 1.1 0.1 1.2 0s0-0.3 0-0.4v-1c0-0.2-0.4-0.1-0.5-0.1h-0.2c-0.4 0-1.1-0.1-1.4 0h-0.8-1-0.1c0.4-0.5 0.9-1 1.3-1.6 0.2-0.2 1.1-1.1 1.1-1.4 0.1 0 0.3-0.4 0.4-0.4 0.4-0.5 0.9-1 1.3-1.6h-0.1c0-0.1 0.1-0.1 0.2-0.1h-0.1v-0.1 0.1c-0.2 0-0.1-0.7-0.2-0.8z"/>
	<path d="m170.2 38.2h-1.4c-0.3 0-1.4 0.2-1.6 0s-0.1-0.3-0.1-0.5c0-0.4-0.2-1.3 0.5-1.1h2.3 0.1c0.1 0 0.3 0.1 0.3 0 0.2 0.2 0.3-0.1 0.4-0.1 0.1-0.2 0.1-0.6 0-0.9-0.1-0.6-0.4-0.4-0.8-0.4h-1.3c-0.2 0-1.1 0.2-1.3 0 0 0-0.4-1.5-0.1-1.6 0.4-0.3 1.9 0 2.4 0 0.3 0 1.4 0.2 1.6-0.1 0.1-0.1 0-0.5 0-0.5 0-0.7 0.2-0.8-0.4-0.9-0.7-0.1-1.4 0-2 0h-1c-0.5 0-1.8-0.2-2.2 0.1-0.2 0.3-0.1 1.4 0 1.8 0 0.3-0.1 0.9 0 1.2-0.7 0-0.6 0.2-0.6 0.7 0 0.2-0.1 0.7 0 0.8s0.4-0.1 0.6 0c0.2 0.2 0 1.2 0 1.5v1c0 0.5-0.1 0.6 0.4 0.6h2.1 0.3c0.6 0 2.6 0.3 2.8-0.2 0.1-0.1 0-0.6 0-0.8 0-0.8-0.2-0.6-1-0.6z"/>
	<path d="m177.1 38.2h-1.4c-0.3 0-1.4 0.2-1.6 0s-0.1-0.3-0.1-0.5c0-0.4-0.2-1.3 0.5-1.1h2.3 0.1c0.1 0 0.3 0.1 0.3 0 0.2 0.2 0.3-0.1 0.4-0.1 0.1-0.2 0.1-0.6 0-0.9-0.1-0.6-0.4-0.4-0.8-0.4h-1.3c-0.2 0-1.1 0.2-1.3 0 0 0-0.4-1.5-0.1-1.6 0.4-0.3 1.9 0 2.4 0 0.3 0 1.4 0.2 1.6-0.1 0.1-0.1 0-0.5 0-0.5 0-0.7 0.2-0.8-0.4-0.9-0.7-0.1-1.4 0-2 0h-1c-0.5 0-1.8-0.2-2.2 0.1-0.2 0.3-0.1 1.4 0 1.8 0 0.3-0.1 0.9 0 1.2-0.7 0-0.6 0.2-0.6 0.7 0 0.2-0.1 0.7 0 0.8s0.4-0.1 0.6 0c0.2 0.2 0 1.2 0 1.5v1c0 0.5-0.1 0.6 0.4 0.6h2.1 0.3c0.6 0 2.6 0.3 2.8-0.2 0.1-0.1 0-0.6 0-0.8 0-0.8-0.2-0.6-1-0.6z"/>
	<path d="m179 33.1z"/>
	<path d="m184.1 38.2c-0.2-0.1-1.5 0-1.5 0v-0.1h-1.5c-0.6 0-0.6-0.1-0.6-0.7v-2.6c0.1-0.1 0-2 0-2.1v0c0-0.2-0.1-1.2-0.4-0.9h-0.1c0.1 0-0.2-0.1-0.1 0-0.1 0-0.7-0.1-0.7 0-0.1-0.1-0.1 0-0.2 0 0.1 0 0 0 0.1 0.1 0 0-0.2-0.1-0.2 0 0 0 0.1 0 0.1 0.1-0.2 0 0 0.3 0 0.3s0.1-0.1 0.1 0c0 0 0 0.1-0.1 0 0 0.1 0.1 0.6 0 0.7v0 2.3 2.9c0 0.2 0.1 0.5 0.1 0.5-0.3 0 0.3 0.8 0.5 0.8 0 0 0.9 0.1 0.9 0 0 0 0.3 0.1 0.4 0 0.2-0.2 1.2 0 1.5 0h0.9 0.8c0.5 0 0.3-0.3 0.3-0.7 0-0.2 0.2-0.5-0.3-0.6z"/>
	<path d="m191.5 36.3c-0.5-1.1-0.9-2.3-1.4-3.5-0.4-0.8-0.6-0.9-1.6-0.9h-0.9c-0.6 0-0.8 0-0.8 0.7 0 0.1 0 0.3 0.1 0.4 0.1 0.3 0.2 0.2 0.4 0.4s0.2 0 0.2 0.4-0.5 1.2-0.7 1.5c-0.3 0.7-0.6 1.3-0.9 2-0.3 0.6-1.5 2.1-0.4 2.2 1 0.2 1-0.3 1.3-1.1 0.1-0.1 0.2-0.6 0.4-0.7h0.4c0 0.1 2.6 0 2.8 0.1 0.1 0 0.5 1.1 0.5 1.1 0.2 0.7 0.5 0.6 1.2 0.6 0.1 0 0.6 0 0.6-0.2 0.1-0.2-0.4-1-0.5-1.3-0.2-0.4-0.4-1.1-0.7-1.7zm-2 0.2h-1c-0.6 0-0.7 0.1-0.5-0.5 0.1-0.4 0.3-0.8 0.4-1.2 0.3-0.7 0.3-1.2 0.6-0.4 0.1 0.4 0.3 0.9 0.5 1.2 0.1 0.2 0.2 0.5 0.3 0.8 0 0.1-0.2 0.1-0.3 0.1z"/>
	<path d="m200.3 33.8c0-0.3 0.1-1.2 0-1.5 0 0 0.1-0.2 0-0.3v0.1-0.1c-0.1-0.1-0.3-0.1-0.4 0-0.2 0.2-0.9-0.2-1.2 0.2-0.1 0.1 0 0.7 0 0.9v1c0 0.3-0.1 1.1 0 1.3-0.1 0.1 0 0.3 0 0.3 0.1 0.3 0 0.7 0 1.1-0.8-1.1-1.9-2.1-2.9-3.1-0.2-0.2-0.4-0.5-0.5-0.7s0.1-0.6-0.1-0.8c-0.2-0.5-1.1-0.1-1.6-0.2v0.6 1.7 1.6c-0.1 0.4 0.1 1 0 1.4v0.4 0.1 0.8 0.8c-0.1 0.2 0 0.4 0.2 0.3 0 0.1 1.1 0 1.1 0.1s0.1 0 0.2 0c0 0 0.1-0.1 0.1 0s0.1-0.4 0.1-0.5c0.1-0.1 0-0.8 0-1v-2.4c0.8 0.8 1.5 1.7 2.4 2.6l0.2 0.2c0 0.1 0.8 0.8 0.8 0.9 0.3 0.4 0.3 0.4 0.8 0.4 0.1 0 0.6 0.1 0.7 0 0.3-0.2 0.1-0.8 0.1-1.1v-0.3-0.8c0.1-0.4 0.1-3.7 0-4z"/>
	<path d="m207 37z"/>
	<path d="m206 32c-1-0.2-2-0.1-3-0.1-0.5 0-1.1 0-1.4 0.1-0.1 0.2 0 0.9 0 1.1 0 0.6 0.1 0.3 0.3 0.4l0.2 0.1c-0.1 0.7 0 1.5 0 2.2v2.6c0 0.8-0.2 1.2 0.8 1.2 1.5 0 2.8 0.1 4.2-0.6 0.2-0.1 0.8-0.4 0.8-0.5 0 0 0.2-0.1 0.1-0.1 0.1-0.2 0.4-0.5 0.6-0.7 0.3-0.6 0.5-1.4 0.5-2.1 0-1.7-1.5-3.2-3.1-3.6zm1.2 4.4c-0.1 0.2-0.2 0.8-0.3 0.8s-0.6 0.5-0.6 0.6h0.1s-0.1 0 0 0c-0.3 0.4-1.5 0.3-2.1 0.3-0.8 0-0.6-0.3-0.6-1.1v-1.3c0-0.6-0.2-2.1 0.2-2.3 0.4-0.3 1.9 0.1 2.3 0.3 0.2 0.1 0.8 1.1 0.9 1.1 0.2 0.4 0.2 1.3 0.1 1.6z"/>
</svg>
