<svg xmlns="http://www.w3.org/2000/svg" width="77" height="68" viewBox="0 0 77 68"><path d="M34.078 25.234C13.598 25.314 16.848 12.504 6 1c6.48 4.877 22.225 7.7 30.164 14.14 3.247 2.632 3.3 5.85 3.836 10.094m8.654 9.322C43.312 18.773 72.4 18.878 74.774 6c1.476 9.085 3.15 21.46-4.99 28.163-5.37 4.423-13.527 6.627-16.364-1.754m-19.253 7.5c-8.09-1.604-7.745-8.794-15.997-8.43-6.573.29-11.547 5.683-16.726 9.72 3.637-1.687 7.97-.067 11.23 2.22 3.262 2.288 6.104 5.273 9.815 6.75 5.902 2.354 13.756-2.58 17.17-7.923M40 31c7.752 15.616 9.338 16.58 7.02 36" fill="none" fill-rule="evenodd" stroke="#FFF" stroke-linecap="round" stroke-linejoin="round" stroke-width="1.5"/></svg>